<?xml version="1.0" encoding="utf-8"?>
<!-- Generator: Adobe Illustrator 25.1.0, SVG Export Plug-In . SVG Version: 6.00 Build 0)  -->
<svg version="1.1" xmlns="http://www.w3.org/2000/svg" xmlns:xlink="http://www.w3.org/1999/xlink" x="0px" y="0px"
	 viewBox="0 0 816.46 290.04" style="enable-background:new 0 0 816.46 290.04;" xml:space="preserve">
<style type="text/css">
	.st0{display:none;}
	.st1{fill:#FFFFFF;}
	.st2{fill:#59595B;}
	.st3{fill:#800000;}
</style>
<g id="DOES_NOT_PRINT" class="st0">
</g>
<g id="rule">
	<g>
		<rect x="148.19" y="79.29" width="617.54" height="1.67"/>
	</g>
</g>
<g id="tertiary">
</g>
<g id="secondary">
	<g>
		<g>
			<path class="st3" d="M77.82,67.95c-0.29,0.21,0.34,0.51,0.28,0.5c0.02,0.88-0.1,1.79,0.2,2.24c0.19,0.28,0.78,0.48,0.89,0.22
				c0.1-0.27,0.55-0.82,0.65-0.91c0.19-0.17,0.02-0.32-0.13-0.15c-0.33,0.34-0.51,0.19-0.75-0.04c-0.12-0.13-0.16-1.37-0.08-1.41
				c0,0,0.6-0.09,0.74-0.09c0.11,0,0.1-0.34-0.02-0.34c-0.18,0-0.71,0.01-0.74-0.08c-0.07-0.17,0.11-1,0.14-1.38
				c0.02-0.26-0.12-0.35-0.19-0.1C78.73,66.65,78.16,67.71,77.82,67.95 M79.4,64.8c0.35-0.03,0.91,0.18,1.53,0.13
				c0.74-0.05,1.32-1.2,1-2.09c-0.3-0.85-1.24-0.7-1.87-0.9c-0.58-0.16-0.82-0.53-0.19-0.94c0.75-0.48,1.68,0.29,1.76,0.45
				c0.14,0.25,0.25,0.24,0.25-0.08c0.02-0.7-0.04-0.3-0.11-0.96c-0.02-0.23-0.19-0.26-0.21-0.03c-0.02,0.23-0.3,0.16-0.51,0.16
				c-0.22,0-0.84-0.1-1.38,0.2c-0.34,0.2-1.13,0.81-0.69,1.55c0.26,0.43,1.76,0.78,2.14,1.03c0.38,0.25,0.46,0.88,0.1,1.17
				c-0.45,0.36-1.67,0.06-1.85-0.16c-0.25-0.27-0.34-0.5-0.39-0.81c-0.05-0.32-0.32-0.3-0.32,0c0,0.29,0.07,1.31,0.12,1.54
				c0.05,0.25,0.3,0.17,0.32-0.02C79.12,64.86,79.24,64.81,79.4,64.8 M81.12,65.77c-0.14,0.27-0.35,0.51-0.75,0.69
				c0.24,0.21,0.56,0.48,0.76,0.62c0.24-0.27,0.46-0.51,0.73-0.77C81.6,66.25,81.28,66.12,81.12,65.77 M77.37,65.38
				c0.25-0.2,0.44-0.54,0.54-0.62c0.19-0.16,0.03-0.33-0.13-0.17c-0.13,0.13-0.48-0.17-0.49-0.19c-0.11-0.13-0.28-1.85-0.2-1.89
				c0,0,1.09-0.14,1.24-0.13c0.11,0.01,0.12-0.34,0.01-0.35c-0.18,0-1.01,0.12-1.04,0.03c-0.05-0.18-0.16-0.79,0.12-1.32
				c0.13-0.23,0-0.45-0.09-0.22c-0.1,0.24-0.78,1.3-1.22,1.48c-0.36,0.15-0.32,0.23-0.09,0.29c0.18,0.04,0.38,0.26,0.34,0.25
				c-0.04,0.88-0.12,1.97,0.15,2.43C76.67,65.27,77.15,65.57,77.37,65.38 M74.35,67.2c-0.28,0.26-0.49,0.5-0.9,0.82
				c0.19,0.22,0.5,0.49,0.53,0.86c0.02,0.37,0.01,2.11,0.03,2.54c0.3,0,0.24,0.03,0.75,0.01c-0.05-0.29-0.01-2.55-0.01-2.87
				c0.19-0.18,0.22-0.21,0.43-0.37c0.16,0.14,0.52,0.22,0.52,0.46c0,0.24,0.07,1.31-0.01,1.71c-0.11,0.48-0.06,0.83,0.2,1.31
				c0.2-0.22,0.93-0.74,1.09-0.86c0.16-0.14,0.08-0.24-0.13-0.18c-0.22,0.05-0.26,0.09-0.26-0.05c0-0.26-0.1-1.43-0.12-2.18
				c-0.03-0.75-0.39-0.97-0.6-1.08c-0.22,0.24-0.7,0.54-0.98,0.79C74.69,67.93,74.58,67.57,74.35,67.2 M71.44,67.71
				c0.13,0.33,0.54,0.95,0.72,1.06c-0.32,0.32-1.1,0.85-1.32,1C70.44,69.27,70.23,68.45,71.44,67.71 M70.07,69.24
				c-0.19,1.41,1.14,2.25,1.78,2.52c0.16-0.32,0.49-0.85,0.81-1.22c0.24-0.28-0.02-0.36-0.24-0.14c-0.29,0.32-1.17,0.02-1.41-0.41
				c0.43-0.32,1.53-1.25,2.01-1.64c-0.32-0.3-0.81-1.04-0.89-1.46C71.7,67.17,70.28,67.77,70.07,69.24 M69.7,62.46
				c-0.51,0.78-0.79,2.02,0.1,2.74c0.42,0.35,0.76,0.62,1.62,0.47c0.17-0.34,0.25-0.45,0.54-0.84c-0.59,0.1-1.04-0.01-1.47-0.34
				c-0.88-0.69-0.61-1.79-0.35-2.17c0.48-0.71,1.15,0.3,1.28,0.44c0.16-0.19,0.43-0.46,0.7-0.67c-0.26-0.35-0.48-0.67-0.66-0.88
				C70.89,61.42,70.05,61.93,69.7,62.46 M73.81,60.36c-0.07-0.09-0.2-0.23-0.2-0.4c0-0.12,0.01-1.33,0.01-1.48
				c0-0.14-0.29-0.13-0.29,0c-0.01,0.22,0.02,0.58-0.17,0.88c-0.53,0.82-1.54,1.16-2.26,0.15c-0.24-0.33-0.3-0.84-0.33-1.2
				c-0.05-0.48,0.32-1.11,0.34-1.16c0.9-1.19,2.16-0.31,2.26,0.18c0.07,0.32,0.14,0.72,0.14,0.92c-0.01,0.14,0.29,0.12,0.29-0.02
				c0-0.15,0.01-1.97,0.01-2.1c0.01-0.12-0.24-0.16-0.24,0c-0.01,0.29-0.18,0.31-0.4,0.24c-0.46-0.14-1.47-0.35-2.06-0.02
				c-0.52,0.3-1.32,1.02-1.3,1.92c0.02,1.48,0.57,1.61,1.22,2c0.61,0.36,1.45,0.13,2.22-0.1c0.3-0.08,0.34,0.11,0.49,0.33
				C73.78,60.85,73.98,60.63,73.81,60.36 M74.24,64.62c0,0.11,0,0.2,0,0.3c-0.11,0.03-0.23,0.05-0.38,0.13
				c-0.21-0.17-1.17-0.49-0.54-1c0.39,0.23,0.54,0.05,0.92-0.18C74.24,64.19,74.24,64.5,74.24,64.62 M74.23,63.61
				c-0.56,0.36-0.74,0.35-1.12-0.08c-0.19-0.22-0.17-0.64-0.09-0.8c0.17-0.27,0.48-0.55,0.62-0.54c0.13,0.01,0.58,0.55,0.54,0.79
				C74.22,63.12,74.23,63.36,74.23,63.61 M74.19,61.57c-0.5,0.05-1.22,0.63-1.44,1.13c-0.09,0.2,0.04,0.93,0.13,1.01
				c0.07,0.06,0.12,0.1,0.17,0.14c-0.33,0.3-0.64,0.56-0.63,1.02c0.01,0.44,0.36,0.82,0.81,1.03c0.24-0.36,0.62-0.59,1.02-0.68
				c0.03,0.35,0.11,0.6,0.34,0.78c0.16-0.18,0.82-0.75,0.95-0.88c0.14-0.13,0.03-0.29-0.13-0.13c-0.1,0.09-0.33-0.04-0.4-0.16
				c0-0.19,0-2.2,0.08-2.29C74.81,62.22,74.53,61.54,74.19,61.57 M77.83,56.67c0.2-0.19-0.01-0.33-0.19-0.17
				c-0.13-0.16-0.46-0.5-0.64-0.71c-0.19,0.16-0.62,0.42-0.86,0.55c-0.19-0.22-0.42-0.22-0.8-0.51c-0.21,0.16-0.67,0.5-0.92,0.8
				c0.44,0.13,0.77,0.15,0.8,0.53c0.02,0.31-0.03,2.2-0.01,2.55c0.24,0.05,0.52,0.03,0.86,0.01c0.03-0.27,0.01-2.65,0.01-2.91
				c0.13-0.07,0.26-0.14,0.32-0.2c0.14,0.11,0.41,0.51,0.64,0.64C77.2,57.13,77.64,56.86,77.83,56.67 M79.16,57.5
				c-0.29-0.93-0.18-1.26,0.4-1.72c0.13,0.32,0.46,0.55,0.65,0.66C79.88,56.77,79.37,57.34,79.16,57.5 M81.05,58.66
				c-1.15,0.29-1.69-0.63-1.8-0.88c0.46-0.48,1.26-1.25,1.74-1.65c-0.32-0.29-0.45-0.78-1.02-0.82c-0.49,0.01-1.64,0.57-1.85,2.03
				c-0.19,1.4,1.12,2.16,2.17,2.2c0.35,0,0.78-0.45,1-0.56C81.75,58.76,81.57,58.53,81.05,58.66 M84.28,56.95
				c-0.07,0.06-0.27,0.21-0.48,0.39c-0.12,0.02-0.25,0.04-0.38,0.02c-0.39-0.06-0.58-0.35-0.77-0.59c-0.19-0.25,0.3-0.46,0.53-0.43
				C83.43,56.37,83.96,56.65,84.28,56.95 M83.45,58.06c0.26,0.12,0.53,0.24,0.82,0.41c0.42,0.24,0.2,0.69-0.25,0.9
				c-0.46,0.21-1.28-0.38-1.41-0.63C82.78,58.59,83.1,58.34,83.45,58.06 M85.43,56.44c-0.32-0.22-0.67-0.75-1.44-0.78
				c-0.77-0.03-1.65,0.67-1.93,1.11c-0.38,0.58,0.09,1.09,0.58,1.47c-0.31,0.27-0.75,0.68-1.16,1.06c0.16,0.18,1.05,0.59,1.55,0.58
				c0.75-0.02,1.45-0.4,1.87-0.75c0.78-0.62,0.51-1.28-0.29-1.74c-0.08-0.05-0.15-0.06-0.23-0.07
				C84.89,56.92,85.32,56.57,85.43,56.44 M86.39,60.93l-0.47-0.49l-0.47,0.43l0.01,0.58l0.29,0.3h0.29l0.35-0.32V60.93z
				 M86.17,57.63c-0.18-0.01-0.46,0.49,0.63,0.45C86.98,58.07,87.1,57.68,86.17,57.63 M86.16,58.29c-0.19-0.01-0.47,0.33,0.62,0.45
				C86.96,58.75,87.18,58.35,86.16,58.29 M86.87,65.63l0.41-0.44c-0.45-0.09-0.45-0.06-0.7-0.27l0.02-2.1l-0.4-0.59l-0.21,0.03
				l-0.91,0.84c-0.25,0.22-0.03,0.33,0.25,0.08l0.47,0.29l0.02,1.98c0.05,0.24,0.26,0.32,0.55,0.62L86.87,65.63z M84.08,69.36
				c0.34,0.23,0.53,0.2,0.96,0.16c-0.02,0.23-0.03,0.44-0.03,0.54c0,0.1,0.04,0.18,0.07,0.27c-0.22,0.08-0.5,0.13-0.72,0.24
				C84.16,70.39,83.44,69.9,84.08,69.36 M85.06,69.3c-0.37,0.01-0.69-0.11-1.09-0.46c-0.08-0.06-0.15-0.52-0.06-0.67
				c0.18-0.28,0.18-0.37,0.33-0.37c0.12,0,0.87,0.45,0.83,0.69C85.1,68.66,85.08,68.98,85.06,69.3 M83.77,69.12
				c-0.33,0.34-0.57,0.71-0.57,1.18c0.02,0.45,0.17,0.89,0.62,1.1c0.4-0.3,0.92-0.66,1.42-0.75c0.24,0.3,0.62,0.49,0.85,0.67
				c0.16-0.19,0.66-0.59,0.79-0.72c0.13-0.13,0-0.32-0.14-0.15c-0.11,0.16-0.46,0.04-0.56-0.12c0-0.19-0.18-2.2-0.1-2.3
				c-0.29-0.32-0.79-1.05-1.13-1.02c-0.49,0.05-1.22,0.75-1.38,0.98c-0.12,0.17,0.04,1,0.13,1.08
				C83.74,69.09,83.75,69.1,83.77,69.12 M82.46,64.33c0.31,0.87,1.03,1.14,1.57,1.19c0.16-0.3,0.46-0.75,0.62-0.96
				c0.24-0.32,0-0.51-0.17-0.14c-0.13,0.29-0.83-0.03-1.08-0.27c-0.34-0.32-0.55-1.15-0.28-1.44c0.27-0.3,0.67-0.16,1.17-0.17
				c0.33-0.02,0.41-0.32,0.46-0.48c-0.16-0.08-0.4-0.21-0.72-0.4c-0.33,0.21-0.83,0.63-1.05,0.81
				C82.71,62.69,82.16,63.48,82.46,64.33 M82.27,70.64l0.4-0.44c-0.45-0.08-0.24-0.08-0.47-0.3l-0.01-1.81l-0.58-0.85l-0.22,0.03
				l-0.91,0.85c-0.24,0.21-0.03,0.31,0.25,0.08l0.6,0.31l0.01,1.92c0.05,0.24,0.26,0.29,0.55,0.59L82.27,70.64z M89.83,81.1
				c0,0,0.37-0.4,0.36-0.68c0-0.38-0.36-0.66-0.36-0.66c0.31,0.09,1.05,0.51,1.32,0.68L89.83,81.1z M92.15,80.4v-0.05
				c-0.81-0.12-1.45-0.69-2.19-0.97c-1.03-0.39-2.12,0.4-2.12,0.53c0,0.28,0.29,0.42,1.12-0.1c-0.65,0.75,0.09,1.37,0.09,1.37
				c-0.27-0.04-0.66-0.13-0.9-0.27c-0.05,0.27,0.33,0.37,0.5,0.49C90.03,81.96,90.94,80.63,92.15,80.4 M101.48,67.76
				c-0.21,0.22-0.58,0.46-0.93,0.85c0.29,0.02,0.53,0.08,0.66,0.36c0.14,0.27,0.02,1.42,0.04,1.87c0.02,0.43,0.28,0.52,0.63,0.88
				c0.34-0.09,1.29-0.48,1.61-0.7c-0.03,0.35,0.42,0.75,0.68,0.83c0.18-0.19,0.37-0.3,0.63-0.54c-0.25-0.17-0.22-0.19-0.32-0.53
				c-0.07-0.33,0.02-1.56,0.03-2.08c-0.2-0.31-0.53-0.67-0.87-0.92c-0.24,0.22-0.56,0.51-0.94,0.91c0.28-0.04,0.83,0.07,0.86,0.31
				c0.02,0.31,0.06,0.97,0,1.49c-0.06,0.52-1.47,0.28-1.49-0.07c-0.03-0.36,0.07-1.4,0.08-1.89
				C101.96,68.2,101.85,68.03,101.48,67.76 M102.18,63.71c0.1-0.52,0.47-0.73,0.63-0.89c0.24,0.26,0.47,0.56,0.83,0.56
				c0.35,0,0.71-0.16,0.82-0.3c-0.29-0.23-0.94-0.92-1.07-1.05c-0.33,0.18-1.77,0.93-1.89,1.79c-0.17,1.27,0.23,1.52,0.78,2.22
				c0.31,0.4,0.84,0.41,1.08,0.35c0.26-0.18,1.2-1.07,1.3-1.18c0.09-0.11-0.04-0.21-0.16-0.1c-0.12,0.11-0.07,0.15-0.23,0.18
				c-0.16,0.03-0.8,0.13-1.17-0.06C102.65,64.98,102.04,64.41,102.18,63.71 M98.17,63.57c0.03,0.86-0.41,1.75-0.89,2.16
				c0.84-0.22,0.95-0.72,1.4-1.3c0.25,0.37,0.72,0.83,1.07,1.02c0.24-0.16,0.93-0.93,1.08-1.09c-0.49-0.13-1.45-0.64-1.68-1.17
				c-0.19-0.39-0.14-0.58,0.04-0.89c0.17,0.22,1.33,0.75,1.85-0.14c-0.57-0.21-1.08-0.58-1.26-0.88c-0.15,0.13-0.66,0.68-0.95,0.86
				c-0.07-0.31-0.53-0.63-0.92-0.7c-0.12,0.13-1.02,0.82-1.43,1.01c-0.13,0.06-0.08,0.33,0.1,0.26c0.17-0.07,0.44-0.28,0.76-0.43
				C97.71,62.42,98.13,62.8,98.17,63.57 M98.01,67.68c-0.34,0.17,0.46,0.49,0.4,0.47c-0.01,0.9-0.19,2.38,0.12,2.85
				c0.19,0.29,0.63,0.48,0.92,0.36c0.28-0.11,0.64-0.67,0.75-0.76c0.21-0.16,0.03-0.32-0.14-0.16c-0.17,0.16-0.64,0.05-0.7-0.12
				c-0.05-0.17-0.11-2.14-0.03-2.18c0,0,0.56-0.01,0.71-0.01c0.12,0,0.13-0.36,0.01-0.36c-0.21,0-0.66-0.04-0.69-0.13
				c-0.07-0.19,0.02-0.79,0.13-1.03c0.12-0.25-0.11-0.35-0.2-0.11C99.2,66.76,98.61,67.38,98.01,67.68 M94.77,68.27
				c0.19-0.29,0.31-0.35,0.47-0.35c0.14,0.01,0.67,0.38,0.65,0.62c0.03,0.16,0.03,0.5,0.03,0.84c-0.4,0.05-0.68,0.09-1.13-0.29
				C94.7,69.03,94.68,68.42,94.77,68.27 M95.01,69.59c0.3,0.16,0.44,0.06,0.9,0.01c0,0.29-0.01,0.55-0.01,0.69
				c-0.2,0.14-0.45,0.27-0.74,0.41C94.94,70.52,94.61,70.36,95.01,69.59 M94.65,69.33c-0.25,0.23-0.69,0.84-0.68,1.29
				c0.01,0.46,0.23,0.9,0.49,1.15c0.45-0.32,0.74-0.75,1.49-1.04c0.09,0.35,0.34,0.41,0.64,0.63c0.18-0.19,0.82-0.98,0.96-1.12
				c0.14-0.13,0.06-0.27-0.14-0.13c-0.2,0.13-0.34,0.05-0.68-0.31c0.01-0.2-0.02-1.8,0.06-1.89c-0.31-0.33-0.59-0.78-0.95-0.75
				c-0.53,0.04-1.2,0.96-1.37,1.2c-0.13,0.17,0.01,0.83,0.11,0.92C94.6,69.3,94.61,69.3,94.65,69.33 M91.56,66.27
				c0.02,0.43,0.18,4.17,0.13,4.69c-0.03,0.3,0.37,0.61,0.73,0.86c0.18-0.21,0.56-0.77,0.88-1.01c0.19-0.15,0.06-0.25-0.09-0.2
				c-0.29,0.13-0.57,0.03-0.6-0.3c-0.03-0.33-0.03-3.55,0-4.01C92.39,66.3,91.77,66.29,91.56,66.27 M91.29,63.56
				c0.02,1.53,0.62,1.66,1.32,2.06c0.66,0.37,1.76,0.3,2.59,0.08c0.31-0.09,0.48-0.11,0.47,0.16c0,0.17,0.24,0.13,0.24,0.01
				c0-0.13,0.01-1.41,0.01-1.55c0-0.16-0.23-0.14-0.23,0c0,0.21,0,0.28-0.21,0.58c-0.57,0.84-2,0.81-2.76-0.22
				c-0.26-0.35-0.5-0.82-0.2-0.91c0.3-0.09,1.22,0.1,1.82,0.15c0.36,0.02,1.2,0.11,1.31,0.17c0.09,0.07,0.23,0.16,0.23-0.02
				c0.01-0.18,0.01-0.77,0.01-0.95c0-0.18-0.14-0.09-0.24-0.03c-0.1,0.07-1,0.22-1.36,0.28c-0.36,0.07-1.47,0.16-1.76,0.06
				c-0.3-0.1-0.2-0.7,0.07-1.04c0.77-1.02,2.34-0.95,2.9-0.1c0.19,0.3,0.19,0.37,0.19,0.59c0,0.13,0.22,0.15,0.22,0
				c0.01-0.14,0.02-1.69,0.02-1.81c0-0.12-0.23-0.16-0.23,0c0,0.11-0.25,0.18-0.49,0.11c-0.49-0.15-1.9,0.07-2.53,0.41
				C92.14,61.9,91.28,62.64,91.29,63.56 M97.3,54.68c-0.29-0.03-1.24,0.05-1.58,0.1c-0.34,0.05-0.34,0.22-0.06,0.25
				c0.28,0.03,0.34,0.09,0.49,0.47c0.14,0.39-0.55,2.13-0.72,2.54c-0.2-0.3-0.93-1.9-0.93-2.12c0-0.16,0.32-0.31,0.46-0.35
				c0.27-0.08,0.26-0.27,0.06-0.31c-0.57-0.08-2.57-0.26-2.93-0.3c-0.26-0.02-0.37,0.27-0.06,0.27c0.32,0.01,0.66-0.09,1.01,0.43
				c0.4,0.58,1.67,3.31,1.98,4.46c0.15-0.24,1.42-3.91,1.49-4.3c0.09-0.38,0.36-0.75,0.73-0.86C97.62,54.87,97.59,54.71,97.3,54.68
				 M99.02,55.35l0.38-0.33V54.5l-0.51-0.49l-0.5,0.43l0.01,0.6l0.31,0.31H99.02z M99.6,60.14l0.67-0.87
				c-0.49-0.08-0.69-0.17-1.02-0.56l0.01-2.16l-0.68-0.68l-0.23,0.03l-1.07,0.94C97.16,57,97.44,57,97.59,56.81l0.78,0.45l0.03,2.09
				c0.06,0.25,0.27,0.49,0.57,0.8H99.6z M104.05,56.44c-0.2,0-1.57,0.03-1.61-0.05c-0.1-0.29-0.13-0.65,0.11-1.15
				c0.12-0.25-0.11-0.35-0.2-0.1c-0.09,0.24-0.77,1.19-1.48,1.5c-0.37,0.14,0.45,0.48,0.39,0.46c0,0.91,0.13,2.28,0.32,2.83
				c0.12,0.33,0.49,0.86,0.75,0.69c0.17-0.1,0.52-0.81,0.64-0.9c0.2-0.16,0-0.43-0.16-0.27c-0.18,0.16-0.34-0.09-0.39-0.26
				c-0.06-0.16-0.23-2.17-0.14-2.21c0,0,1.62-0.2,1.78-0.2C104.16,56.79,104.16,56.44,104.05,56.44 M106.53,60.33
				c-0.22,0.01-0.42,0.07-0.7,0.21c-0.23-0.19-0.84-0.92-0.39-1.74c-0.06-0.04-0.13-0.07-0.19-0.11c0.41,0.23,0.89,0.43,1.27,0.55
				c0,0.33-0.01,0.62-0.01,0.72C106.51,60.11,106.52,60.23,106.53,60.33 M106.53,59.05c-0.43-0.15-1.27-0.55-1.57-0.8
				c-0.08-0.06-0.09-0.1,0.01-0.26c0.19-0.29,0.42-0.54,0.57-0.53c0.13,0,0.99,0.46,0.96,0.7
				C106.53,58.33,106.53,58.69,106.53,59.05 M107.05,61.24l0.87-0.95c0,0-0.39-0.3-0.61-0.58c0-0.2,0-2.09,0.08-2.2
				c-0.65-0.58-1.13-0.65-1.41-0.62c-0.53,0.08-1.07,0.76-1.24,0.98c-0.12,0.18-0.09,0.4,0,0.49c0.11,0.09,0.24,0.17,0.39,0.26
				c-0.03-0.01-0.05-0.03-0.07-0.04c-0.25,0.23-0.61,0.9-0.59,1.35c0,0.46,0.42,1.12,0.69,1.37c0.31-0.24,0.76-0.63,1.42-0.76
				C106.64,60.86,106.8,61.05,107.05,61.24 M107.08,66.25c-0.22-0.11-1.04-0.74-1.22-1.22c-0.24-0.65-0.24-1.37,0.45-1.79
				c0.54,0.2,1.17,0.73,1.22,1.22C107.6,65.09,107.42,65.84,107.08,66.25 M107.81,65.99c0.24-0.43,0.58-1.12,0.56-1.65
				c-0.03-0.65-0.43-1.61-1.38-1.93c-1.2,0.43-1.95,1.38-1.98,2.5c-0.02,0.66,0.54,2.01,1.69,2.02
				C107.06,66.6,107.44,66.24,107.81,65.99 M108.95,69.27c-0.14-0.17-0.53-0.49-0.87-0.73c-0.2,0.16-0.61,0.46-0.87,0.6
				c-0.19-0.22-0.45-0.52-0.84-0.83c-0.24,0.16-0.92,0.78-1.21,0.95c0.42,0.01,1.03,0.15,1.06,0.53c0.01,0.31-0.02,2.26,0,2.62
				c0.25,0.05,0.55,0.03,0.92,0.01c0.02-0.28,0.01-2.52,0.02-2.8c0.12-0.07,0.27-0.14,0.34-0.2c0.14,0.11,0.58,0.6,0.83,0.74
				c0.17-0.13,0.62-0.53,0.82-0.71C109.36,69.23,109.13,69.1,108.95,69.27 M108.95,65.14c0.16,0.05,0.44,0.09,0.73,0.11
				c0.18,0.02,0.12-0.28-0.02-0.34c-0.14-0.05-0.46-0.11-0.65-0.12C108.8,64.8,108.7,65.07,108.95,65.14 M109.69,64.24
				c-0.15-0.06-0.47-0.11-0.66-0.11c-0.2,0-0.3,0.28-0.06,0.35c0.16,0.04,0.45,0.1,0.73,0.11C109.89,64.6,109.83,64.3,109.69,64.24
				 M114.61,112.07c-0.38,1.89-1.03,3.63-2.17,5.26c-0.79,1.15-1.12-1.09-0.43-3.25C112.98,113.69,113.95,112.93,114.61,112.07
				 M113.53,112.45c-2.53,2.5-6.33,1.6-9.33,2.94c-2.71,0.99-4.68,3.5-7.53,4.13c-0.84,0.27-0.97,0.69-0.44,0.67
				c0.31-0.01,2.05,1.8,4.82,0.41c0.93-0.47,3.81-2.07,4.29-2.16c-1.56,1.48-2.34,2.81-3.73,3.59c-0.85,0.48-4.32,1.72-7.79,1.05
				c-1.53-0.3-2.72,1.12-2.32,1.08c0.82-0.22,1.74-0.11,2.3,0.62c1.01,0.79,2.46,1.77,3.71,0.31c0.42-0.48,2.4-1.52,4.27,0.38
				c-1.99-0.1-1.79,3.47-5.56,3.05c-1.4-0.01-4.47-3.2-5.35-2.21c-1.56,1.75,3.34,3.41,1.22,5.61c-1.92,1.99-4.21-1.58-4.21-1.58
				c1.2,0.5,3.4,0.82,2.43-1.12c-0.39-0.77-1.12-1.47-1.12-2.89c-0.17-0.71-4.56,5.65-7.46,2.78c-1.14-1.13-3.45-3.6-5.54-4.55
				c5.54-0.47,6.38,1.75,6.65,2.1c1.77,2.39,3.41-0.04,3.79-0.46c0.58-0.66,1.39-1.56,1.1-1.7c-2.15-1.02-4.6-1.24-6.44-0.39
				c3.93-5.4,6.98-0.34,6.98-0.34c0.43,0.27-0.11-3.2-3.99-3.39c-2.43-0.12-4.56,2.06-6.23,2.06c-1.36,0-5.48-2.79-6.45-5.26
				c2.4,1.79,5.46,2.82,7.37,1.69c3.58-2.14,8.1,1.09,8.31,0.7c-1-0.78-3.28-3.84-9.44-2.1c-2.39,1.37-3.39-1.02-4.86-1.06
				c2.49-2.21,4.22-1.09,5.1-1.02c0.21,0-1.04-1.03-1.92-1.12c-6.8-0.71-11.11-2.58-11.11-2.58c-0.03,0,0.57-1.37,3.49-0.38
				c0,0-2.62-1.61-2.6-3.67c0.09-1.27,0.7-2.63-0.27-3.69c3.95-0.16,1.14,5.34,3.92,6.76c0.06,0.02-0.82-1.32,0.42-2.35
				c0.57,1.62,1.98,2.45,2.97,2.71c0.23-0.13,0.52-0.62,0.52-0.62c-1.04-1.73-1.18-3.73-0.9-6.04l0.04-0.02
				c0.23,0.01,0.6,0.79,0.87,1.37c0.58,1.24,0.56,3.02,1.71,4.49c0.64,0.81,1.03,1.62,1.6,2.01c0.25-0.57,0.06-1.56,0.03-1.82
				c-0.13-0.94-0.72-2.57,0.88-4.02c0.75,2.16,1.76,1.53,1.9,2.57c0.19,1.45,0.13,1.22-0.02,2.33c0.08,1.53,1.47,1.97,2.71,2.95
				c2.79,1.52,4.64,2.34,5.86,4.28c0.59-3.28-8.26-3.94-7.12-10.27c-0.12-2.53,0.32-2.74-1.48-4.29c3.55,0.1,5.49,5.94,5.68,7
				c0.35,1.96,1.54,2.06,3.17,4.61c0.23,0.09-2.92-6.8,0.84-12.69c0,0,1.27,3.06,0.67,5.07c-0.36,1.21-0.03,2.55,0.04,3.3
				c0.07,0.77-0.15-2.79,2.53-4.64c0.17,1.35,1.46,3.44,0.23,5.68c-1.49,2.72-1.6,1.75-1.62,5.1c0.14-0.06,0.52-2.31,1.54-3.59
				c2.16-2.7,0.62-4.15,2.73-6.5c0.17,1.17,0.47,0.71,0.59,1.75c0.28,2.34-2.16,4.9-1.62,4.82c0.62-0.09,1.62-0.63,1.96-2.41
				c0,0,0.9,1.62,0.08,2.16c-1.49,0.98-1.8,2.03-1.57,3.22c1.2-1.43,2.83-3.01,2.55-5.04c0.13-1.23,1.47-1.73,1.73-4.58
				c0.04-0.47,0.52-1.05,0.99-1.3c-0.21,1.6,1.04,3.26-0.38,5.22c0.32,0.17,1.52-1.53,3.27-0.91c-3.51,0.63-2.49,4.44-5.18,6.2
				c-0.81,0.53-0.67,1.13-0.91,1.19c2.4-0.14,4.25-3,4.57-3.21c2.41-1.63,2.94-1.88,3.91-4.53c0.38-1.01,0.1-1.45,1.44-2.81
				c0.59,1.34-0.27,4.11-0.47,4.71c-0.43,1.28-1.95,2.38-1.63,2.38c6.47-2.86,6.39-4.77,7.94-6.82c0.46-0.78,2.77-2.14,3.63-2.26
				c-0.21,0.43-1.1,1.14-1.15,1.92c-0.08,1.43-0.54,2.3-1.26,3.45c0.4,0.5,1.17-0.94,1.96-0.22
				C114.81,110.6,114.34,111.76,113.53,112.45 M107.61,110.42c0.19-0.67,0.19-1.13,0.27-1.72c0.04-0.25,0.04-0.22,0.06-0.44
				c0-0.07,1.83,1.52,1.93,1.58c-0.46,0.57-0.85,0.78-1.29,1.19C108.27,110.76,107.59,110.48,107.61,110.42 M108.16,111.41
				c-0.84,0.74-1.39,1-1.21,0.64c0.21-0.41,0.36-0.76,0.47-1.06C107.46,110.88,108.16,111.41,108.16,111.41 M116.43,104.23
				c-0.77,0.2-2.81,1.01-3.3,1.81c0.26-4.4-1.16-8.72-1.61-9.76c-0.88-2.03,0.39,4.73,0.48,6.29c0,0.07-7.3-9.38-2.89-2.1
				c1.14,1.89,2.93,3.12,2.93,3.15c0.03,1.31-0.06,2.28-0.31,2.98c-0.45,0.36-9.94-12.63-4.7-3.64c0.65,1.12,4.46,4.49,4.43,4.56
				c-0.24,0.51-0.67,1.26-1.26,1.81c-0.1-0.1-2.19-1.64-2.2-1.73c-0.16-1-0.16-1.95-1.41-1.24c0,0-4.68-5.45-2.51-1.63
				c0.95,1.67,1.57,1.85,1.82,2.15c0,0-0.73,0.98-0.96,2.03c-0.09,0.42-4.05-4.39-2.5-1.37c0.5,0.97,2.31,2.03,2.29,2.09
				c-0.19,0.63-0.37,1.24-0.57,1.64c-0.25,0.5-3.73,3.27-3.72,3.27c0,0,0.68-2.2,2.16-3.27c0.84-0.62,0.85-0.48,1.41-0.83
				c-0.01-0.33-0.32-0.85-0.73-0.99c-0.51-0.18-2.15,0.12-2.15,0.12c0.16-0.82-0.57-2.6-0.56-4.55c-0.62,0.06-1.71,1.02-1.97,1.57
				c-0.19,3.23-0.89,2.27-1.55,4.59c-0.71-0.98,0.05-2.38-0.65-3.29c-0.96-1.26-1.11-2.1-1.25-3.65c0.23-0.13,1.21-1.21,0.31-3.49
				c-0.15-3.58,1.46-4.96-1.41-7.46c0.24-0.08,0.41-1.87,0.41-1.88c2.11,1.12,1.69-1.3,2.51-1.78c1.31-0.76,1.07-1.54,0.48-2.52
				c3.73,1.06-0.17,3.61,1.52,3.67c1.23,0.04,2.05-0.27,2.58-1.1c0.57-0.87-0.1-1.4,1.48-2.82c0.16-0.14,0.58-1.08-0.68-1.34
				c-0.28-0.06,0-1.13,0-1.13c-1.01,0.85-1.32,2.05-2.94,1.29c-0.83-0.39-1.36-0.01-1.7,0.16c0,0-0.17-0.68,0.51-0.9
				c1.77-0.59,2.21-1.3,2.11-1.69c-0.24-0.92-0.31,0-0.26-0.97c0.02-0.38,0.47-0.91,0.84-1.35c1.2-1.45,2.05-0.9,2.35-0.78
				c0.7-0.54,0.82-0.5,1.47-0.76c1.11-0.44,3.52,0.29,4.86,0.91c0.65,0.3,1.43,0.47,2.19,0.31c-0.01,0.39-0.28,0.6-0.56,0.68
				c-0.42,0.13-0.92,0-0.89,0.31c0.02,0.18,0.59,0.21,0.95,0.31c1.99,0.54,4.57,2.33,2.88,1.95c-0.2-0.04,1.22,1.06,2.3,2.5
				l3.8,3.69c-0.17,0.21-1.51,0.02-5.73-3.94c-0.6,0.54,5.13,4.86,7.5,9.45c-0.2,0.14-3.15-0.93-4.22-2.03
				c-1.64-1.7-3.52-6.01-4.3-5.38c-0.09,0.04,3.12,5.03,4.7,8c0.8,1.5,1.46,3.65,1.51,5.27c0.25,7.98-0.95,7.37-0.95,7.37
				c-1.87-6.29-2.74-13.6-5.47-16.97C112.25,90.46,116.26,97.7,116.43,104.23 M119.38,61.46c-0.02-0.12-0.04-0.31-0.08-0.57
				c-0.06-0.41-1.24-0.65-2.08-0.29c-1.17,0.51-4.1,2.19-5.18,1.87v-4.13c2.64,1.15,3.67,0.11,4.52,0.11c2.61,0,2.74,2.43,2.74,2.43
				C119.34,61.15,119.36,61.34,119.38,61.46 M116.67,67.11c2.29-0.33,2.63,2.37,2.63,2.37h0c-0.56-0.45-1.7-0.65-2.46-0.16
				c-2.56,1.65-4.86,1.67-4.86,1.67v-4.13C111.97,66.86,112.46,67.72,116.67,67.11 M111.2,75.49c-4.15,0.28-12.77-2.08-14.97-2.08
				c-4.52,0-6.71,1.76-6.71,1.76s0.01-20.52,0-21.26c0,0,5.94-2.79,10.26-1.19c5.29,1.95,11.41,1.09,11.41,1.09V75.49z M93.99,78.69
				c0.14,0.82-0.62,1.03-0.62,1.03c1.19,0.28,1.75-0.43,1.98-0.87c0.46,1.89-1.45,2-2.05,2.11c0,0,0.97,0.28,1.02,0.91
				c0.13,1.6,1.16,1.46,1.38,1.34c-0.04,0.19-0.35,1.16-1.51,0.29c-0.2,0.19,0.32,0.49,0.42,1.29c0.13,1.01,0.1,1.94,1.26,2.55
				c-0.71,0.57-1.55-0.91-1.62-0.73c-0.08,0.2,0.99,0.74-0.19,3.52c-0.54-0.31-0.24-0.25-0.86-0.99c-0.48-0.4-0.66-0.49-0.27,0.17
				c0.69,0.87,0.86,2.86,0.62,3.39c-0.57-0.25-0.43-0.71-1.1-1.33c-0.06,0.27,0.21,1.58,0.91,2.21c1.21,1.09,1.64,2.41,1.66,2.67
				c0.1,0.99-0.22,2.3-0.33,3.57c-0.58-0.08-1.07-1.73-1.21-1.64c-0.17,0.11,0.07,1.61,1.17,2.63c0.53,1.54,0.32,2.37,0.18,2.43
				c-0.19,0.08-0.77-1.58-1.09-1.29c1.55,3.96,0.47,5.33,0.06,6.55c-0.32-1.25-0.48-2.18-0.89-3.6c-0.85,0.67-1.05,1.65-2.09,2.55
				c0-1.61-0.93-5.51-1.67-6.42c-0.03-0.04-1.34,3.49-1.93,5.06c-0.77,2.04-0.89,4.58,0,6.57c-1.92-2.73-2.13-7.81-0.47-8.5
				c0.14-0.36-0.1-1.56-0.47-1.41c-0.11,0.59-0.04,1.09-0.52,1.66c-1.27-0.37-0.69-1.92-0.58-2.44c1.65-1.98,0.62-2.44,0.54-2.38
				c-0.18,0.45-0.33,1.01-0.84,1.21c-1.06-1.82-0.38-4.67,1.63-6.81c0.08-0.8-0.9,0.59-1.54,0.55c-0.17-1.54,0.39-4.2,3.23-4.29
				c-0.54-0.16-0.83-0.26-0.96-0.71c0.86-0.13,3.55-0.33,3.1-2.45c-0.26,0.25-0.34,0.64-1.04,1.06c-0.47,0.29-0.99,0.31-1.25-0.1
				c1.25-0.41,0.84-1.93-0.79-1.48c-0.5,0.14-1.23-0.39-1.26-0.96c0.36,0.36,1.1,0.09,1.52-0.18c1.83-1.19,2.95,0.53,3.2,0.91
				c0.07,0,0.82-1.73-1.78-2.19c-0.22-0.61-0.81-1.68-2.58-1.54c-0.58-2.05-2.34-1.04-2.29-0.11c-1.87-1.38,0.03-3.12,0.79-3.38
				c0.52,0.04,0.41,1.7,1.33,1.42c0.22-0.07-0.72-1.14-0.36-1.63c0.84-0.48,0.82,0.62,1.24,0.21c0.21-0.72,1.03-1.12,1.72-1.2
				C90.67,77.63,92.15,79.72,93.99,78.69 M88.53,75.16c0,0-2.82-1.53-6.12-1.75c-3.2-0.21-9.65,2.34-14.61,2V53.63
				c0,0,5.65,0.75,7.98-0.14c7.9-3.05,12.76,0.36,12.76,0.36V75.16z M66.79,70.6H64.1v-2.65h2.69V70.6z M66.79,61.38H64.1v-2.65
				h2.69V61.38z M60.93,71.36c-3.16,0-3.16-4.63,0-4.63C63.97,66.74,63.99,71.36,60.93,71.36 M60.93,62.12c-3.09,0-3.02-4.63,0-4.63
				C63.97,57.49,63.97,62.12,60.93,62.12 M81.28,83.73c-0.56-0.96,0.67-1.88,0.67-1.88c-0.04,2.71,3.42,0.85,5.23,1.71
				c0.43,0.2,0.74,0.58,0.92,0.98C86.15,83.2,82.56,85.93,81.28,83.73 M71.93,106.64c0.01,0.93-0.05,1.61,0.22,2.56
				c0.44,1.42,0.22,0.98-0.38,0.49c-0.47-0.53-0.92-0.96-1.15-1.58C70.57,107.67,70.92,107.65,71.93,106.64 M64.96,87.52l-0.05-0.05
				c-0.06,0-4.49,2.8-7.37,1.45c2.14-1.19,9.57-5.91,11.61-7.25c0.96,0.21,1.35-0.14,1.65-0.35c-0.78,0.05-3.35,0.45-2.05-1.85
				c0.5,2.06,4.11,0.17,5.4-0.13c3.61-0.83,3.58,3.03,3.28,4.62c-0.11,0.59,1.11,1.02,1.71,0.93c-1.04,2.55-2.8,0.15-3.01,1.12
				c-0.09,0.39-1.27,0.7-1.26,1.68c0.01,1.34,0.53,0.61,0.58,1.64c0.05,1-0.43,0.22-0.32,1.31c0.17,1.73,3.03-0.23,4.21,0.24
				c0.59,0.23,0.98,0.76,1.56,0.66c0.17-0.14,0.09-0.79,0.07-1.02c-0.06-0.55-1.07-0.61-1.55-1.36c-0.41-0.65,0.47-2.62,0.94-3.19
				c0.68,3.24,3.72,2.22,4.17,5.63c0.29,0.96-1.04,2.04,0.04,3.6c-0.8,0.78-1.77,4.47-0.09,6.2c-0.29,0.79-0.66,2.6,0.83,3.65
				c-0.5,1.07-0.39,2.38,0.04,3.71c-0.93,0-0.74-5.21-6.32-5.38c-0.12-0.04-0.15,0.59,0.01,0.87c0.67,1.17,1.56,1.1,1.37,3.86
				c-0.06,0.94-0.62-0.16-0.91-0.43c-0.67-0.6-1.2-0.68-1.49-2.62c-2.26,1.77-2.04,3.92-1.9,5.02c0,0-0.5-1.36-1.07-2.76
				c-0.03-0.07,2.3-2.88,2.67-3.54c4.7-8.46-3.04,2.74-3.05,2.7c-0.42-0.96-0.78-1.8-1.03-2.06c0.06-0.12,1.35-1.56,1.93-2.77
				c3.64-7.57-2.16,2.52-2.37,2.34c-0.44-0.39-0.8-0.89-1.08-0.71c-0.07,1.16-0.34,1.01-0.26,2.19c-0.61,0.81-1.91,2.08-2.82,2.71
				c0,0-0.23-2.1-0.17-2.18c0.46-0.56,2.25-2.47,2.61-3.05c5.96-9.36-2.79,2.25-2.8,2.15c-0.06-0.37-0.54-0.98-1.05-1.5
				c0,0,1.93-2.63,2.41-3.61c3.63-7.45-2.91,3.3-2.99,3.26c-0.16-0.08-0.17-0.08-0.36-0.14c-0.18-0.06,0.2-2.15,0.45-3.4
				c0.49-2.48-0.83-0.48-1.18,3.45c-0.34,0.05-1.15,0.14-1.46,0.42c0.2,1.05,0.45,0.24,0.89,1.25c0.53,1.21-0.73,3.19,0.36,4.64
				c0.42,0.56,0.45,0.47,0.36,0.83c-0.68-0.05-1.09-0.06-1.51,0.52c-0.83-3.77-0.8-5.58-0.61-9.42c0.09-1.74,0.66-4.38,0.4-4.43
				c-0.25-0.05-4.2,10.12-5.15,12.11c-1.66-0.56,1.04-9.36,4.47-13.6c0.32-1.35-1.8,1.37-3.07,2.45c-1.16,0.99-2.63,2.28-4.24,1.84
				c2.06-2.18,6.78-6.25,7.3-7.27c0.44-0.87-3.22,2.72-7.09,1.38C59.12,92.58,64.95,89.6,64.96,87.52 M64.92,112.27
				c0.65,0.44,1.41,0.63,2.11,0.93c0.86,2.26,0.02,4.48-0.46,3.56C65.71,115.15,65.38,113.81,64.92,112.27 M124.52,99.7l0-50.36
				c-40.46-3.9-71,0-71,0s0,50.36,0,50.37c3.22,34.14,35.2,38.15,35.5,38.1C94.74,136.78,121.55,131.39,124.52,99.7"/>
			<path class="st3" d="M77.82,67.95c-0.29,0.21,0.34,0.51,0.28,0.5c0.02,0.88-0.1,1.79,0.2,2.24c0.19,0.28,0.78,0.48,0.89,0.22
				c0.1-0.27,0.55-0.82,0.65-0.91c0.19-0.17,0.02-0.32-0.13-0.15c-0.33,0.34-0.51,0.19-0.75-0.04c-0.12-0.13-0.16-1.37-0.08-1.41
				c0,0,0.6-0.09,0.74-0.09c0.11,0,0.1-0.34-0.02-0.34c-0.18,0-0.71,0.01-0.74-0.08c-0.07-0.17,0.11-1,0.14-1.38
				c0.02-0.26-0.12-0.35-0.19-0.1C78.73,66.65,78.16,67.71,77.82,67.95 M79.4,64.8c0.35-0.03,0.91,0.18,1.53,0.13
				c0.74-0.05,1.32-1.2,1-2.09c-0.3-0.85-1.24-0.7-1.87-0.9c-0.58-0.16-0.82-0.53-0.19-0.94c0.75-0.48,1.68,0.29,1.76,0.45
				c0.14,0.25,0.25,0.24,0.25-0.08c0.02-0.7-0.04-0.3-0.11-0.96c-0.02-0.23-0.19-0.26-0.21-0.03c-0.02,0.23-0.3,0.16-0.51,0.16
				c-0.22,0-0.84-0.1-1.38,0.2c-0.34,0.2-1.13,0.81-0.69,1.55c0.26,0.43,1.76,0.78,2.14,1.03c0.38,0.25,0.46,0.88,0.1,1.17
				c-0.45,0.36-1.67,0.06-1.85-0.16c-0.25-0.27-0.34-0.5-0.39-0.81c-0.05-0.32-0.32-0.3-0.32,0c0,0.29,0.07,1.31,0.12,1.54
				c0.05,0.25,0.3,0.17,0.32-0.02C79.12,64.86,79.24,64.81,79.4,64.8 M81.12,65.77c-0.14,0.27-0.35,0.51-0.75,0.69
				c0.24,0.21,0.56,0.48,0.76,0.62c0.24-0.27,0.46-0.51,0.73-0.77C81.6,66.25,81.28,66.12,81.12,65.77 M77.37,65.38
				c0.25-0.2,0.44-0.54,0.54-0.62c0.19-0.16,0.03-0.33-0.13-0.17c-0.13,0.13-0.48-0.17-0.49-0.19c-0.11-0.13-0.28-1.85-0.2-1.89
				c0,0,1.09-0.14,1.24-0.13c0.11,0.01,0.12-0.34,0.01-0.35c-0.18,0-1.01,0.12-1.04,0.03c-0.05-0.18-0.16-0.79,0.12-1.32
				c0.13-0.23,0-0.45-0.09-0.22c-0.1,0.24-0.78,1.3-1.22,1.48c-0.36,0.15-0.32,0.23-0.09,0.29c0.18,0.04,0.38,0.26,0.34,0.25
				c-0.04,0.88-0.12,1.97,0.15,2.43C76.67,65.27,77.15,65.57,77.37,65.38 M74.35,67.2c-0.28,0.26-0.49,0.5-0.9,0.82
				c0.19,0.22,0.5,0.49,0.53,0.86c0.02,0.37,0.01,2.11,0.03,2.54c0.3,0,0.24,0.03,0.75,0.01c-0.05-0.29-0.01-2.55-0.01-2.87
				c0.19-0.18,0.22-0.21,0.43-0.37c0.16,0.14,0.52,0.22,0.52,0.46c0,0.24,0.07,1.31-0.01,1.71c-0.11,0.48-0.06,0.83,0.2,1.31
				c0.2-0.22,0.93-0.74,1.09-0.86c0.16-0.14,0.08-0.24-0.13-0.18c-0.22,0.05-0.26,0.09-0.26-0.05c0-0.26-0.1-1.43-0.12-2.18
				c-0.03-0.75-0.39-0.97-0.6-1.08c-0.22,0.24-0.7,0.54-0.98,0.79C74.69,67.93,74.58,67.57,74.35,67.2 M71.44,67.71
				c0.13,0.33,0.54,0.95,0.72,1.06c-0.32,0.32-1.1,0.85-1.32,1C70.44,69.27,70.23,68.45,71.44,67.71 M70.07,69.24
				c-0.19,1.41,1.14,2.25,1.78,2.52c0.16-0.32,0.49-0.85,0.81-1.22c0.24-0.28-0.02-0.36-0.24-0.14c-0.29,0.32-1.17,0.02-1.41-0.41
				c0.43-0.32,1.53-1.25,2.01-1.64c-0.32-0.3-0.81-1.04-0.89-1.46C71.7,67.17,70.28,67.77,70.07,69.24 M69.7,62.46
				c-0.51,0.78-0.79,2.02,0.1,2.74c0.42,0.35,0.76,0.62,1.62,0.47c0.17-0.34,0.25-0.45,0.54-0.84c-0.59,0.1-1.04-0.01-1.47-0.34
				c-0.88-0.69-0.61-1.79-0.35-2.17c0.48-0.71,1.15,0.3,1.28,0.44c0.16-0.19,0.43-0.46,0.7-0.67c-0.26-0.35-0.48-0.67-0.66-0.88
				C70.89,61.42,70.05,61.93,69.7,62.46 M73.81,60.36c-0.07-0.09-0.2-0.23-0.2-0.4c0-0.12,0.01-1.33,0.01-1.48
				c0-0.14-0.29-0.13-0.29,0c-0.01,0.22,0.02,0.58-0.17,0.88c-0.53,0.82-1.54,1.16-2.26,0.15c-0.24-0.33-0.3-0.84-0.33-1.2
				c-0.05-0.48,0.32-1.11,0.34-1.16c0.9-1.19,2.16-0.31,2.26,0.18c0.07,0.32,0.14,0.72,0.14,0.92c-0.01,0.14,0.29,0.12,0.29-0.02
				c0-0.15,0.01-1.97,0.01-2.1c0.01-0.12-0.24-0.16-0.24,0c-0.01,0.29-0.18,0.31-0.4,0.24c-0.46-0.14-1.47-0.35-2.06-0.02
				c-0.52,0.3-1.32,1.02-1.3,1.92c0.02,1.48,0.57,1.61,1.22,2c0.61,0.36,1.45,0.13,2.22-0.1c0.3-0.08,0.34,0.11,0.49,0.33
				C73.78,60.85,73.98,60.63,73.81,60.36 M74.24,64.62c0,0.11,0,0.2,0,0.3c-0.11,0.03-0.23,0.05-0.38,0.13
				c-0.21-0.17-1.17-0.49-0.54-1c0.39,0.23,0.54,0.05,0.92-0.18C74.24,64.19,74.24,64.5,74.24,64.62 M74.23,63.61
				c-0.56,0.36-0.74,0.35-1.12-0.08c-0.19-0.22-0.17-0.64-0.09-0.8c0.17-0.27,0.48-0.55,0.62-0.54c0.13,0.01,0.58,0.55,0.54,0.79
				C74.22,63.12,74.23,63.36,74.23,63.61 M74.19,61.57c-0.5,0.05-1.22,0.63-1.44,1.13c-0.09,0.2,0.04,0.93,0.13,1.01
				c0.07,0.06,0.12,0.1,0.17,0.14c-0.33,0.3-0.64,0.56-0.63,1.02c0.01,0.44,0.36,0.82,0.81,1.03c0.24-0.36,0.62-0.59,1.02-0.68
				c0.03,0.35,0.11,0.6,0.34,0.78c0.16-0.18,0.82-0.75,0.95-0.88c0.14-0.13,0.03-0.29-0.13-0.13c-0.1,0.09-0.33-0.04-0.4-0.16
				c0-0.19,0-2.2,0.08-2.29C74.81,62.22,74.53,61.54,74.19,61.57 M77.83,56.67c0.2-0.19-0.01-0.33-0.19-0.17
				c-0.13-0.16-0.46-0.5-0.64-0.71c-0.19,0.16-0.62,0.42-0.86,0.55c-0.19-0.22-0.42-0.22-0.8-0.51c-0.21,0.16-0.67,0.5-0.92,0.8
				c0.44,0.13,0.77,0.15,0.8,0.53c0.02,0.31-0.03,2.2-0.01,2.55c0.24,0.05,0.52,0.03,0.86,0.01c0.03-0.27,0.01-2.65,0.01-2.91
				c0.13-0.07,0.26-0.14,0.32-0.2c0.14,0.11,0.41,0.51,0.64,0.64C77.2,57.13,77.64,56.86,77.83,56.67 M79.16,57.5
				c-0.29-0.93-0.18-1.26,0.4-1.72c0.13,0.32,0.46,0.55,0.65,0.66C79.88,56.77,79.37,57.34,79.16,57.5 M81.05,58.66
				c-1.15,0.29-1.69-0.63-1.8-0.88c0.46-0.48,1.26-1.25,1.74-1.65c-0.32-0.29-0.45-0.78-1.02-0.82c-0.49,0.01-1.64,0.57-1.85,2.03
				c-0.19,1.4,1.12,2.16,2.17,2.2c0.35,0,0.78-0.45,1-0.56C81.75,58.76,81.57,58.53,81.05,58.66 M84.28,56.95
				c-0.07,0.06-0.27,0.21-0.48,0.39c-0.12,0.02-0.25,0.04-0.38,0.02c-0.39-0.06-0.58-0.35-0.77-0.59c-0.19-0.25,0.3-0.46,0.53-0.43
				C83.43,56.37,83.96,56.65,84.28,56.95 M83.45,58.06c0.26,0.12,0.53,0.24,0.82,0.41c0.42,0.24,0.2,0.69-0.25,0.9
				c-0.46,0.21-1.28-0.38-1.41-0.63C82.78,58.59,83.1,58.34,83.45,58.06 M85.43,56.44c-0.32-0.22-0.67-0.75-1.44-0.78
				c-0.77-0.03-1.65,0.67-1.93,1.11c-0.38,0.58,0.09,1.09,0.58,1.47c-0.31,0.27-0.75,0.68-1.16,1.06c0.16,0.18,1.05,0.59,1.55,0.58
				c0.75-0.02,1.45-0.4,1.87-0.75c0.78-0.62,0.51-1.28-0.29-1.74c-0.08-0.05-0.15-0.06-0.23-0.07
				C84.89,56.92,85.32,56.57,85.43,56.44 M86.39,60.93l-0.47-0.49l-0.47,0.43l0.01,0.58l0.29,0.3h0.29l0.35-0.32V60.93z
				 M86.17,57.63c-0.18-0.01-0.46,0.49,0.63,0.45C86.98,58.07,87.1,57.68,86.17,57.63 M86.16,58.29c-0.19-0.01-0.47,0.33,0.62,0.45
				C86.96,58.75,87.18,58.35,86.16,58.29 M86.87,65.63l0.41-0.44c-0.45-0.09-0.45-0.06-0.7-0.27l0.02-2.1l-0.4-0.59l-0.21,0.03
				l-0.91,0.84c-0.25,0.22-0.03,0.33,0.25,0.08l0.47,0.29l0.02,1.98c0.05,0.24,0.26,0.32,0.55,0.62L86.87,65.63z M84.08,69.36
				c0.34,0.23,0.53,0.2,0.96,0.16c-0.02,0.23-0.03,0.44-0.03,0.54c0,0.1,0.04,0.18,0.07,0.27c-0.22,0.08-0.5,0.13-0.72,0.24
				C84.16,70.39,83.44,69.9,84.08,69.36 M85.06,69.3c-0.37,0.01-0.69-0.11-1.09-0.46c-0.08-0.06-0.15-0.52-0.06-0.67
				c0.18-0.28,0.18-0.37,0.33-0.37c0.12,0,0.87,0.45,0.83,0.69C85.1,68.66,85.08,68.98,85.06,69.3 M83.77,69.12
				c-0.33,0.34-0.57,0.71-0.57,1.18c0.02,0.45,0.17,0.89,0.62,1.1c0.4-0.3,0.92-0.66,1.42-0.75c0.24,0.3,0.62,0.49,0.85,0.67
				c0.16-0.19,0.66-0.59,0.79-0.72c0.13-0.13,0-0.32-0.14-0.15c-0.11,0.16-0.46,0.04-0.56-0.12c0-0.19-0.18-2.2-0.1-2.3
				c-0.29-0.32-0.79-1.05-1.13-1.02c-0.49,0.05-1.22,0.75-1.38,0.98c-0.12,0.17,0.04,1,0.13,1.08
				C83.74,69.09,83.75,69.1,83.77,69.12 M82.46,64.33c0.31,0.87,1.03,1.14,1.57,1.19c0.16-0.3,0.46-0.75,0.62-0.96
				c0.24-0.32,0-0.51-0.17-0.14c-0.13,0.29-0.83-0.03-1.08-0.27c-0.34-0.32-0.55-1.15-0.28-1.44c0.27-0.3,0.67-0.16,1.17-0.17
				c0.33-0.02,0.41-0.32,0.46-0.48c-0.16-0.08-0.4-0.21-0.72-0.4c-0.33,0.21-0.83,0.63-1.05,0.81
				C82.71,62.69,82.16,63.48,82.46,64.33 M82.27,70.64l0.4-0.44c-0.45-0.08-0.24-0.08-0.47-0.3l-0.01-1.81l-0.58-0.85l-0.22,0.03
				l-0.91,0.85c-0.24,0.21-0.03,0.31,0.25,0.08l0.6,0.31l0.01,1.92c0.05,0.24,0.26,0.29,0.55,0.59L82.27,70.64z M89.83,81.1
				c0,0,0.37-0.4,0.36-0.68c0-0.38-0.36-0.66-0.36-0.66c0.31,0.09,1.05,0.51,1.32,0.68L89.83,81.1z M92.15,80.4v-0.05
				c-0.81-0.12-1.45-0.69-2.19-0.97c-1.03-0.39-2.12,0.4-2.12,0.53c0,0.28,0.29,0.42,1.12-0.1c-0.65,0.75,0.09,1.37,0.09,1.37
				c-0.27-0.04-0.66-0.13-0.9-0.27c-0.05,0.27,0.33,0.37,0.5,0.49C90.03,81.96,90.94,80.63,92.15,80.4 M101.48,67.76
				c-0.21,0.22-0.58,0.46-0.93,0.85c0.29,0.02,0.53,0.08,0.66,0.36c0.14,0.27,0.02,1.42,0.04,1.87c0.02,0.43,0.28,0.52,0.63,0.88
				c0.34-0.09,1.29-0.48,1.61-0.7c-0.03,0.35,0.42,0.75,0.68,0.83c0.18-0.19,0.37-0.3,0.63-0.54c-0.25-0.17-0.22-0.19-0.32-0.53
				c-0.07-0.33,0.02-1.56,0.03-2.08c-0.2-0.31-0.53-0.67-0.87-0.92c-0.24,0.22-0.56,0.51-0.94,0.91c0.28-0.04,0.83,0.07,0.86,0.31
				c0.02,0.31,0.06,0.97,0,1.49c-0.06,0.52-1.47,0.28-1.49-0.07c-0.03-0.36,0.07-1.4,0.08-1.89
				C101.96,68.2,101.85,68.03,101.48,67.76 M102.18,63.71c0.1-0.52,0.47-0.73,0.63-0.89c0.24,0.26,0.47,0.56,0.83,0.56
				c0.35,0,0.71-0.16,0.82-0.3c-0.29-0.23-0.94-0.92-1.07-1.05c-0.33,0.18-1.77,0.93-1.89,1.79c-0.17,1.27,0.23,1.52,0.78,2.22
				c0.31,0.4,0.84,0.41,1.08,0.35c0.26-0.18,1.2-1.07,1.3-1.18c0.09-0.11-0.04-0.21-0.16-0.1c-0.12,0.11-0.07,0.15-0.23,0.18
				c-0.16,0.03-0.8,0.13-1.17-0.06C102.65,64.98,102.04,64.41,102.18,63.71 M98.17,63.57c0.03,0.86-0.41,1.75-0.89,2.16
				c0.84-0.22,0.95-0.72,1.4-1.3c0.25,0.37,0.72,0.83,1.07,1.02c0.24-0.16,0.93-0.93,1.08-1.09c-0.49-0.13-1.45-0.64-1.68-1.17
				c-0.19-0.39-0.14-0.58,0.04-0.89c0.17,0.22,1.33,0.75,1.85-0.14c-0.57-0.21-1.08-0.58-1.26-0.88c-0.15,0.13-0.66,0.68-0.95,0.86
				c-0.07-0.31-0.53-0.63-0.92-0.7c-0.12,0.13-1.02,0.82-1.43,1.01c-0.13,0.06-0.08,0.33,0.1,0.26c0.17-0.07,0.44-0.28,0.76-0.43
				C97.71,62.42,98.13,62.8,98.17,63.57 M98.01,67.68c-0.34,0.17,0.46,0.49,0.4,0.47c-0.01,0.9-0.19,2.38,0.12,2.85
				c0.19,0.29,0.63,0.48,0.92,0.36c0.28-0.11,0.64-0.67,0.75-0.76c0.21-0.16,0.03-0.32-0.14-0.16c-0.17,0.16-0.64,0.05-0.7-0.12
				c-0.05-0.17-0.11-2.14-0.03-2.18c0,0,0.56-0.01,0.71-0.01c0.12,0,0.13-0.36,0.01-0.36c-0.21,0-0.66-0.04-0.69-0.13
				c-0.07-0.19,0.02-0.79,0.13-1.03c0.12-0.25-0.11-0.35-0.2-0.11C99.2,66.76,98.61,67.38,98.01,67.68 M94.77,68.27
				c0.19-0.29,0.31-0.35,0.47-0.35c0.14,0.01,0.67,0.38,0.65,0.62c0.03,0.16,0.03,0.5,0.03,0.84c-0.4,0.05-0.68,0.09-1.13-0.29
				C94.7,69.03,94.68,68.42,94.77,68.27 M95.01,69.59c0.3,0.16,0.44,0.06,0.9,0.01c0,0.29-0.01,0.55-0.01,0.69
				c-0.2,0.14-0.45,0.27-0.74,0.41C94.94,70.52,94.61,70.36,95.01,69.59 M94.65,69.33c-0.25,0.23-0.69,0.84-0.68,1.29
				c0.01,0.46,0.23,0.9,0.49,1.15c0.45-0.32,0.74-0.75,1.49-1.04c0.09,0.35,0.34,0.41,0.64,0.63c0.18-0.19,0.82-0.98,0.96-1.12
				c0.14-0.13,0.06-0.27-0.14-0.13c-0.2,0.13-0.34,0.05-0.68-0.31c0.01-0.2-0.02-1.8,0.06-1.89c-0.31-0.33-0.59-0.78-0.95-0.75
				c-0.53,0.04-1.2,0.96-1.37,1.2c-0.13,0.17,0.01,0.83,0.11,0.92C94.6,69.3,94.61,69.3,94.65,69.33 M91.56,66.27
				c0.02,0.43,0.18,4.17,0.13,4.69c-0.03,0.3,0.37,0.61,0.73,0.86c0.18-0.21,0.56-0.77,0.88-1.01c0.19-0.15,0.06-0.25-0.09-0.2
				c-0.29,0.13-0.57,0.03-0.6-0.3c-0.03-0.33-0.03-3.55,0-4.01C92.39,66.3,91.77,66.29,91.56,66.27 M91.29,63.56
				c0.02,1.53,0.62,1.66,1.32,2.06c0.66,0.37,1.76,0.3,2.59,0.08c0.31-0.09,0.48-0.11,0.47,0.16c0,0.17,0.24,0.13,0.24,0.01
				c0-0.13,0.01-1.41,0.01-1.55c0-0.16-0.23-0.14-0.23,0c0,0.21,0,0.28-0.21,0.58c-0.57,0.84-2,0.81-2.76-0.22
				c-0.26-0.35-0.5-0.82-0.2-0.91c0.3-0.09,1.22,0.1,1.82,0.15c0.36,0.02,1.2,0.11,1.31,0.17c0.09,0.07,0.23,0.16,0.23-0.02
				c0.01-0.18,0.01-0.77,0.01-0.95c0-0.18-0.14-0.09-0.24-0.03c-0.1,0.07-1,0.22-1.36,0.28c-0.36,0.07-1.47,0.16-1.76,0.06
				c-0.3-0.1-0.2-0.7,0.07-1.04c0.77-1.02,2.34-0.95,2.9-0.1c0.19,0.3,0.19,0.37,0.19,0.59c0,0.13,0.22,0.15,0.22,0
				c0.01-0.14,0.02-1.69,0.02-1.81c0-0.12-0.23-0.16-0.23,0c0,0.11-0.25,0.18-0.49,0.11c-0.49-0.15-1.9,0.07-2.53,0.41
				C92.14,61.9,91.28,62.64,91.29,63.56 M97.3,54.68c-0.29-0.03-1.24,0.05-1.58,0.1c-0.34,0.05-0.34,0.22-0.06,0.25
				c0.28,0.03,0.34,0.09,0.49,0.47c0.14,0.39-0.55,2.13-0.72,2.54c-0.2-0.3-0.93-1.9-0.93-2.12c0-0.16,0.32-0.31,0.46-0.35
				c0.27-0.08,0.26-0.27,0.06-0.31c-0.57-0.08-2.57-0.26-2.93-0.3c-0.26-0.02-0.37,0.27-0.06,0.27c0.32,0.01,0.66-0.09,1.01,0.43
				c0.4,0.58,1.67,3.31,1.98,4.46c0.15-0.24,1.42-3.91,1.49-4.3c0.09-0.38,0.36-0.75,0.73-0.86C97.62,54.87,97.59,54.71,97.3,54.68
				 M99.02,55.35l0.38-0.33V54.5l-0.51-0.49l-0.5,0.43l0.01,0.6l0.31,0.31H99.02z M99.6,60.14l0.67-0.87
				c-0.49-0.08-0.69-0.17-1.02-0.56l0.01-2.16l-0.68-0.68l-0.23,0.03l-1.07,0.94C97.16,57,97.44,57,97.59,56.81l0.78,0.45l0.03,2.09
				c0.06,0.25,0.27,0.49,0.57,0.8H99.6z M104.05,56.44c-0.2,0-1.57,0.03-1.61-0.05c-0.1-0.29-0.13-0.65,0.11-1.15
				c0.12-0.25-0.11-0.35-0.2-0.1c-0.09,0.24-0.77,1.19-1.48,1.5c-0.37,0.14,0.45,0.48,0.39,0.46c0,0.91,0.13,2.28,0.32,2.83
				c0.12,0.33,0.49,0.86,0.75,0.69c0.17-0.1,0.52-0.81,0.64-0.9c0.2-0.16,0-0.43-0.16-0.27c-0.18,0.16-0.34-0.09-0.39-0.26
				c-0.06-0.16-0.23-2.17-0.14-2.21c0,0,1.62-0.2,1.78-0.2C104.16,56.79,104.16,56.44,104.05,56.44 M106.53,60.33
				c-0.22,0.01-0.42,0.07-0.7,0.21c-0.23-0.19-0.84-0.92-0.39-1.74c-0.06-0.04-0.13-0.07-0.19-0.11c0.41,0.23,0.89,0.43,1.27,0.55
				c0,0.33-0.01,0.62-0.01,0.72C106.51,60.11,106.52,60.23,106.53,60.33 M106.53,59.05c-0.43-0.15-1.27-0.55-1.57-0.8
				c-0.08-0.06-0.09-0.1,0.01-0.26c0.19-0.29,0.42-0.54,0.57-0.53c0.13,0,0.99,0.46,0.96,0.7
				C106.53,58.33,106.53,58.69,106.53,59.05 M107.05,61.24l0.87-0.95c0,0-0.39-0.3-0.61-0.58c0-0.2,0-2.09,0.08-2.2
				c-0.65-0.58-1.13-0.65-1.41-0.62c-0.53,0.08-1.07,0.76-1.24,0.98c-0.12,0.18-0.09,0.4,0,0.49c0.11,0.09,0.24,0.17,0.39,0.26
				c-0.03-0.01-0.05-0.03-0.07-0.04c-0.25,0.23-0.61,0.9-0.59,1.35c0,0.46,0.42,1.12,0.69,1.37c0.31-0.24,0.76-0.63,1.42-0.76
				C106.64,60.86,106.8,61.05,107.05,61.24 M107.08,66.25c-0.22-0.11-1.04-0.74-1.22-1.22c-0.24-0.65-0.24-1.37,0.45-1.79
				c0.54,0.2,1.17,0.73,1.22,1.22C107.6,65.09,107.42,65.84,107.08,66.25 M107.81,65.99c0.24-0.43,0.58-1.12,0.56-1.65
				c-0.03-0.65-0.43-1.61-1.38-1.93c-1.2,0.43-1.95,1.38-1.98,2.5c-0.02,0.66,0.54,2.01,1.69,2.02
				C107.06,66.6,107.44,66.24,107.81,65.99 M108.95,69.27c-0.14-0.17-0.53-0.49-0.87-0.73c-0.2,0.16-0.61,0.46-0.87,0.6
				c-0.19-0.22-0.45-0.52-0.84-0.83c-0.24,0.16-0.92,0.78-1.21,0.95c0.42,0.01,1.03,0.15,1.06,0.53c0.01,0.31-0.02,2.26,0,2.62
				c0.25,0.05,0.55,0.03,0.92,0.01c0.02-0.28,0.01-2.52,0.02-2.8c0.12-0.07,0.27-0.14,0.34-0.2c0.14,0.11,0.58,0.6,0.83,0.74
				c0.17-0.13,0.62-0.53,0.82-0.71C109.36,69.23,109.13,69.1,108.95,69.27 M108.95,65.14c0.16,0.05,0.44,0.09,0.73,0.11
				c0.18,0.02,0.12-0.28-0.02-0.34c-0.14-0.05-0.46-0.11-0.65-0.12C108.8,64.8,108.7,65.07,108.95,65.14 M109.69,64.24
				c-0.15-0.06-0.47-0.11-0.66-0.11c-0.2,0-0.3,0.28-0.06,0.35c0.16,0.04,0.45,0.1,0.73,0.11C109.89,64.6,109.83,64.3,109.69,64.24
				 M114.61,112.07c-0.38,1.89-1.03,3.63-2.17,5.26c-0.79,1.15-1.12-1.09-0.43-3.25C112.98,113.69,113.95,112.93,114.61,112.07
				 M113.53,112.45c-2.53,2.5-6.33,1.6-9.33,2.94c-2.71,0.99-4.68,3.5-7.53,4.13c-0.84,0.27-0.97,0.69-0.44,0.67
				c0.31-0.01,2.05,1.8,4.82,0.41c0.93-0.47,3.81-2.07,4.29-2.16c-1.56,1.48-2.34,2.81-3.73,3.59c-0.85,0.48-4.32,1.72-7.79,1.05
				c-1.53-0.3-2.72,1.12-2.32,1.08c0.82-0.22,1.74-0.11,2.3,0.62c1.01,0.79,2.46,1.77,3.71,0.31c0.42-0.48,2.4-1.52,4.27,0.38
				c-1.99-0.1-1.79,3.47-5.56,3.05c-1.4-0.01-4.47-3.2-5.35-2.21c-1.56,1.75,3.34,3.41,1.22,5.61c-1.92,1.99-4.21-1.58-4.21-1.58
				c1.2,0.5,3.4,0.82,2.43-1.12c-0.39-0.77-1.12-1.47-1.12-2.89c-0.17-0.71-4.56,5.65-7.46,2.78c-1.14-1.13-3.45-3.6-5.54-4.55
				c5.54-0.47,6.38,1.75,6.65,2.1c1.77,2.39,3.41-0.04,3.79-0.46c0.58-0.66,1.39-1.56,1.1-1.7c-2.15-1.02-4.6-1.24-6.44-0.39
				c3.93-5.4,6.98-0.34,6.98-0.34c0.43,0.27-0.11-3.2-3.99-3.39c-2.43-0.12-4.56,2.06-6.23,2.06c-1.36,0-5.48-2.79-6.45-5.26
				c2.4,1.79,5.46,2.82,7.37,1.69c3.58-2.14,8.1,1.09,8.31,0.7c-1-0.78-3.28-3.84-9.44-2.1c-2.39,1.37-3.39-1.02-4.86-1.06
				c2.49-2.21,4.22-1.09,5.1-1.02c0.21,0-1.04-1.03-1.92-1.12c-6.8-0.71-11.11-2.58-11.11-2.58c-0.03,0,0.57-1.37,3.49-0.38
				c0,0-2.62-1.61-2.6-3.67c0.09-1.27,0.7-2.63-0.27-3.69c3.95-0.16,1.14,5.34,3.92,6.76c0.06,0.02-0.82-1.32,0.42-2.35
				c0.57,1.62,1.98,2.45,2.97,2.71c0.23-0.13,0.52-0.62,0.52-0.62c-1.04-1.73-1.18-3.73-0.9-6.04l0.04-0.02
				c0.23,0.01,0.6,0.79,0.87,1.37c0.58,1.24,0.56,3.02,1.71,4.49c0.64,0.81,1.03,1.62,1.6,2.01c0.25-0.57,0.06-1.56,0.03-1.82
				c-0.13-0.94-0.72-2.57,0.88-4.02c0.75,2.16,1.76,1.53,1.9,2.57c0.19,1.45,0.13,1.22-0.02,2.33c0.08,1.53,1.47,1.97,2.71,2.95
				c2.79,1.52,4.64,2.34,5.86,4.28c0.59-3.28-8.26-3.94-7.12-10.27c-0.12-2.53,0.32-2.74-1.48-4.29c3.55,0.1,5.49,5.94,5.68,7
				c0.35,1.96,1.54,2.06,3.17,4.61c0.23,0.09-2.92-6.8,0.84-12.69c0,0,1.27,3.06,0.67,5.07c-0.36,1.21-0.03,2.55,0.04,3.3
				c0.07,0.77-0.15-2.79,2.53-4.64c0.17,1.35,1.46,3.44,0.23,5.68c-1.49,2.72-1.6,1.75-1.62,5.1c0.14-0.06,0.52-2.31,1.54-3.59
				c2.16-2.7,0.62-4.15,2.73-6.5c0.17,1.17,0.47,0.71,0.59,1.75c0.28,2.34-2.16,4.9-1.62,4.82c0.62-0.09,1.62-0.63,1.96-2.41
				c0,0,0.9,1.62,0.08,2.16c-1.49,0.98-1.8,2.03-1.57,3.22c1.2-1.43,2.83-3.01,2.55-5.04c0.13-1.23,1.47-1.73,1.73-4.58
				c0.04-0.47,0.52-1.05,0.99-1.3c-0.21,1.6,1.04,3.26-0.38,5.22c0.32,0.17,1.52-1.53,3.27-0.91c-3.51,0.63-2.49,4.44-5.18,6.2
				c-0.81,0.53-0.67,1.13-0.91,1.19c2.4-0.14,4.25-3,4.57-3.21c2.41-1.63,2.94-1.88,3.91-4.53c0.38-1.01,0.1-1.45,1.44-2.81
				c0.59,1.34-0.27,4.11-0.47,4.71c-0.43,1.28-1.95,2.38-1.63,2.38c6.47-2.86,6.39-4.77,7.94-6.82c0.46-0.78,2.77-2.14,3.63-2.26
				c-0.21,0.43-1.1,1.14-1.15,1.92c-0.08,1.43-0.54,2.3-1.26,3.45c0.4,0.5,1.17-0.94,1.96-0.22
				C114.81,110.6,114.34,111.76,113.53,112.45 M107.61,110.42c0.19-0.67,0.19-1.13,0.27-1.72c0.04-0.25,0.04-0.22,0.06-0.44
				c0-0.07,1.83,1.52,1.93,1.58c-0.46,0.57-0.85,0.78-1.29,1.19C108.27,110.76,107.59,110.48,107.61,110.42 M108.16,111.41
				c-0.84,0.74-1.39,1-1.21,0.64c0.21-0.41,0.36-0.76,0.47-1.06C107.46,110.88,108.16,111.41,108.16,111.41 M116.43,104.23
				c-0.77,0.2-2.81,1.01-3.3,1.81c0.26-4.4-1.16-8.72-1.61-9.76c-0.88-2.03,0.39,4.73,0.48,6.29c0,0.07-7.3-9.38-2.89-2.1
				c1.14,1.89,2.93,3.12,2.93,3.15c0.03,1.31-0.06,2.28-0.31,2.98c-0.45,0.36-9.94-12.63-4.7-3.64c0.65,1.12,4.46,4.49,4.43,4.56
				c-0.24,0.51-0.67,1.26-1.26,1.81c-0.1-0.1-2.19-1.64-2.2-1.73c-0.16-1-0.16-1.95-1.41-1.24c0,0-4.68-5.45-2.51-1.63
				c0.95,1.67,1.57,1.85,1.82,2.15c0,0-0.73,0.98-0.96,2.03c-0.09,0.42-4.05-4.39-2.5-1.37c0.5,0.97,2.31,2.03,2.29,2.09
				c-0.19,0.63-0.37,1.24-0.57,1.64c-0.25,0.5-3.73,3.27-3.72,3.27c0,0,0.68-2.2,2.16-3.27c0.84-0.62,0.85-0.48,1.41-0.83
				c-0.01-0.33-0.32-0.85-0.73-0.99c-0.51-0.18-2.15,0.12-2.15,0.12c0.16-0.82-0.57-2.6-0.56-4.55c-0.62,0.06-1.71,1.02-1.97,1.57
				c-0.19,3.23-0.89,2.27-1.55,4.59c-0.71-0.98,0.05-2.38-0.65-3.29c-0.96-1.26-1.11-2.1-1.25-3.65c0.23-0.13,1.21-1.21,0.31-3.49
				c-0.15-3.58,1.46-4.96-1.41-7.46c0.24-0.08,0.41-1.87,0.41-1.88c2.11,1.12,1.69-1.3,2.51-1.78c1.31-0.76,1.07-1.54,0.48-2.52
				c3.73,1.06-0.17,3.61,1.52,3.67c1.23,0.04,2.05-0.27,2.58-1.1c0.57-0.87-0.1-1.4,1.48-2.82c0.16-0.14,0.58-1.08-0.68-1.34
				c-0.28-0.06,0-1.13,0-1.13c-1.01,0.85-1.32,2.05-2.94,1.29c-0.83-0.39-1.36-0.01-1.7,0.16c0,0-0.17-0.68,0.51-0.9
				c1.77-0.59,2.21-1.3,2.11-1.69c-0.24-0.92-0.31,0-0.26-0.97c0.02-0.38,0.47-0.91,0.84-1.35c1.2-1.45,2.05-0.9,2.35-0.78
				c0.7-0.54,0.82-0.5,1.47-0.76c1.11-0.44,3.52,0.29,4.86,0.91c0.65,0.3,1.43,0.47,2.19,0.31c-0.01,0.39-0.28,0.6-0.56,0.68
				c-0.42,0.13-0.92,0-0.89,0.31c0.02,0.18,0.59,0.21,0.95,0.31c1.99,0.54,4.57,2.33,2.88,1.95c-0.2-0.04,1.22,1.06,2.3,2.5
				l3.8,3.69c-0.17,0.21-1.51,0.02-5.73-3.94c-0.6,0.54,5.13,4.86,7.5,9.45c-0.2,0.14-3.15-0.93-4.22-2.03
				c-1.64-1.7-3.52-6.01-4.3-5.38c-0.09,0.04,3.12,5.03,4.7,8c0.8,1.5,1.46,3.65,1.51,5.27c0.25,7.98-0.95,7.37-0.95,7.37
				c-1.87-6.29-2.74-13.6-5.47-16.97C112.25,90.46,116.26,97.7,116.43,104.23 M119.38,61.46c-0.02-0.12-0.04-0.31-0.08-0.57
				c-0.06-0.41-1.24-0.65-2.08-0.29c-1.17,0.51-4.1,2.19-5.18,1.87v-4.13c2.64,1.15,3.67,0.11,4.52,0.11c2.61,0,2.74,2.43,2.74,2.43
				C119.34,61.15,119.36,61.34,119.38,61.46 M116.67,67.11c2.29-0.33,2.63,2.37,2.63,2.37h0c-0.56-0.45-1.7-0.65-2.46-0.16
				c-2.56,1.65-4.86,1.67-4.86,1.67v-4.13C111.97,66.86,112.46,67.72,116.67,67.11 M111.2,75.49c-4.15,0.28-12.77-2.08-14.97-2.08
				c-4.52,0-6.71,1.76-6.71,1.76s0.01-20.52,0-21.26c0,0,5.94-2.79,10.26-1.19c5.29,1.95,11.41,1.09,11.41,1.09V75.49z M93.99,78.69
				c0.14,0.82-0.62,1.03-0.62,1.03c1.19,0.28,1.75-0.43,1.98-0.87c0.46,1.89-1.45,2-2.05,2.11c0,0,0.97,0.28,1.02,0.91
				c0.13,1.6,1.16,1.46,1.38,1.34c-0.04,0.19-0.35,1.16-1.51,0.29c-0.2,0.19,0.32,0.49,0.42,1.29c0.13,1.01,0.1,1.94,1.26,2.55
				c-0.71,0.57-1.55-0.91-1.62-0.73c-0.08,0.2,0.99,0.74-0.19,3.52c-0.54-0.31-0.24-0.25-0.86-0.99c-0.48-0.4-0.66-0.49-0.27,0.17
				c0.69,0.87,0.86,2.86,0.62,3.39c-0.57-0.25-0.43-0.71-1.1-1.33c-0.06,0.27,0.21,1.58,0.91,2.21c1.21,1.09,1.64,2.41,1.66,2.67
				c0.1,0.99-0.22,2.3-0.33,3.57c-0.58-0.08-1.07-1.73-1.21-1.64c-0.17,0.11,0.07,1.61,1.17,2.63c0.53,1.54,0.32,2.37,0.18,2.43
				c-0.19,0.08-0.77-1.58-1.09-1.29c1.55,3.96,0.47,5.33,0.06,6.55c-0.32-1.25-0.48-2.18-0.89-3.6c-0.85,0.67-1.05,1.65-2.09,2.55
				c0-1.61-0.93-5.51-1.67-6.42c-0.03-0.04-1.34,3.49-1.93,5.06c-0.77,2.04-0.89,4.58,0,6.57c-1.92-2.73-2.13-7.81-0.47-8.5
				c0.14-0.36-0.1-1.56-0.47-1.41c-0.11,0.59-0.04,1.09-0.52,1.66c-1.27-0.37-0.69-1.92-0.58-2.44c1.65-1.98,0.62-2.44,0.54-2.38
				c-0.18,0.45-0.33,1.01-0.84,1.21c-1.06-1.82-0.38-4.67,1.63-6.81c0.08-0.8-0.9,0.59-1.54,0.55c-0.17-1.54,0.39-4.2,3.23-4.29
				c-0.54-0.16-0.83-0.26-0.96-0.71c0.86-0.13,3.55-0.33,3.1-2.45c-0.26,0.25-0.34,0.64-1.04,1.06c-0.47,0.29-0.99,0.31-1.25-0.1
				c1.25-0.41,0.84-1.93-0.79-1.48c-0.5,0.14-1.23-0.39-1.26-0.96c0.36,0.36,1.1,0.09,1.52-0.18c1.83-1.19,2.95,0.53,3.2,0.91
				c0.07,0,0.82-1.73-1.78-2.19c-0.22-0.61-0.81-1.68-2.58-1.54c-0.58-2.05-2.34-1.04-2.29-0.11c-1.87-1.38,0.03-3.12,0.79-3.38
				c0.52,0.04,0.41,1.7,1.33,1.42c0.22-0.07-0.72-1.14-0.36-1.63c0.84-0.48,0.82,0.62,1.24,0.21c0.21-0.72,1.03-1.12,1.72-1.2
				C90.67,77.63,92.15,79.72,93.99,78.69 M88.53,75.16c0,0-2.82-1.53-6.12-1.75c-3.2-0.21-9.65,2.34-14.61,2V53.63
				c0,0,5.65,0.75,7.98-0.14c7.9-3.05,12.76,0.36,12.76,0.36V75.16z M66.79,70.6H64.1v-2.65h2.69V70.6z M66.79,61.38H64.1v-2.65
				h2.69V61.38z M60.93,71.36c-3.16,0-3.16-4.63,0-4.63C63.97,66.74,63.99,71.36,60.93,71.36 M60.93,62.12c-3.09,0-3.02-4.63,0-4.63
				C63.97,57.49,63.97,62.12,60.93,62.12 M81.28,83.73c-0.56-0.96,0.67-1.88,0.67-1.88c-0.04,2.71,3.42,0.85,5.23,1.71
				c0.43,0.2,0.74,0.58,0.92,0.98C86.15,83.2,82.56,85.93,81.28,83.73 M71.93,106.64c0.01,0.93-0.05,1.61,0.22,2.56
				c0.44,1.42,0.22,0.98-0.38,0.49c-0.47-0.53-0.92-0.96-1.15-1.58C70.57,107.67,70.92,107.65,71.93,106.64 M64.96,87.52l-0.05-0.05
				c-0.06,0-4.49,2.8-7.37,1.45c2.14-1.19,9.57-5.91,11.61-7.25c0.96,0.21,1.35-0.14,1.65-0.35c-0.78,0.05-3.35,0.45-2.05-1.85
				c0.5,2.06,4.11,0.17,5.4-0.13c3.61-0.83,3.58,3.03,3.28,4.62c-0.11,0.59,1.11,1.02,1.71,0.93c-1.04,2.55-2.8,0.15-3.01,1.12
				c-0.09,0.39-1.27,0.7-1.26,1.68c0.01,1.34,0.53,0.61,0.58,1.64c0.05,1-0.43,0.22-0.32,1.31c0.17,1.73,3.03-0.23,4.21,0.24
				c0.59,0.23,0.98,0.76,1.56,0.66c0.17-0.14,0.09-0.79,0.07-1.02c-0.06-0.55-1.07-0.61-1.55-1.36c-0.41-0.65,0.47-2.62,0.94-3.19
				c0.68,3.24,3.72,2.22,4.17,5.63c0.29,0.96-1.04,2.04,0.04,3.6c-0.8,0.78-1.77,4.47-0.09,6.2c-0.29,0.79-0.66,2.6,0.83,3.65
				c-0.5,1.07-0.39,2.38,0.04,3.71c-0.93,0-0.74-5.21-6.32-5.38c-0.12-0.04-0.15,0.59,0.01,0.87c0.67,1.17,1.56,1.1,1.37,3.86
				c-0.06,0.94-0.62-0.16-0.91-0.43c-0.67-0.6-1.2-0.68-1.49-2.62c-2.26,1.77-2.04,3.92-1.9,5.02c0,0-0.5-1.36-1.07-2.76
				c-0.03-0.07,2.3-2.88,2.67-3.54c4.7-8.46-3.04,2.74-3.05,2.7c-0.42-0.96-0.78-1.8-1.03-2.06c0.06-0.12,1.35-1.56,1.93-2.77
				c3.64-7.57-2.16,2.52-2.37,2.34c-0.44-0.39-0.8-0.89-1.08-0.71c-0.07,1.16-0.34,1.01-0.26,2.19c-0.61,0.81-1.91,2.08-2.82,2.71
				c0,0-0.23-2.1-0.17-2.18c0.46-0.56,2.25-2.47,2.61-3.05c5.96-9.36-2.79,2.25-2.8,2.15c-0.06-0.37-0.54-0.98-1.05-1.5
				c0,0,1.93-2.63,2.41-3.61c3.63-7.45-2.91,3.3-2.99,3.26c-0.16-0.08-0.17-0.08-0.36-0.14c-0.18-0.06,0.2-2.15,0.45-3.4
				c0.49-2.48-0.83-0.48-1.18,3.45c-0.34,0.05-1.15,0.14-1.46,0.42c0.2,1.05,0.45,0.24,0.89,1.25c0.53,1.21-0.73,3.19,0.36,4.64
				c0.42,0.56,0.45,0.47,0.36,0.83c-0.68-0.05-1.09-0.06-1.51,0.52c-0.83-3.77-0.8-5.58-0.61-9.42c0.09-1.74,0.66-4.38,0.4-4.43
				c-0.25-0.05-4.2,10.12-5.15,12.11c-1.66-0.56,1.04-9.36,4.47-13.6c0.32-1.35-1.8,1.37-3.07,2.45c-1.16,0.99-2.63,2.28-4.24,1.84
				c2.06-2.18,6.78-6.25,7.3-7.27c0.44-0.87-3.22,2.72-7.09,1.38C59.12,92.58,64.95,89.6,64.96,87.52 M64.92,112.27
				c0.65,0.44,1.41,0.63,2.11,0.93c0.86,2.26,0.02,4.48-0.46,3.56C65.71,115.15,65.38,113.81,64.92,112.27 M124.52,99.7l0-50.36
				c-40.46-3.9-71,0-71,0s0,50.36,0,50.37c3.22,34.14,35.2,38.15,35.5,38.1C94.74,136.78,121.55,131.39,124.52,99.7"/>
		</g>
	</g>
	<g>
		<path class="st2" d="M146.41,108.19v-0.09c0-8.76,6.6-15.93,16.06-15.93c5.81,0,9.29,1.94,12.15,4.75l-4.31,4.97
			c-2.38-2.16-4.8-3.48-7.88-3.48c-5.19,0-8.93,4.31-8.93,9.59v0.09c0,5.28,3.65,9.68,8.93,9.68c3.52,0,5.68-1.41,8.1-3.61
			l4.31,4.36c-3.17,3.39-6.69,5.5-12.63,5.5C153.14,124.03,146.41,117.03,146.41,108.19z"/>
		<path class="st2" d="M180.26,92.7h14.08c3.92,0,6.95,1.1,8.98,3.12c1.72,1.72,2.64,4.14,2.64,7.04v0.09c0,4.97-2.68,8.1-6.6,9.55
			l7.53,11h-7.92l-6.6-9.86h-5.32v9.86h-6.78V92.7z M193.9,107.66c3.3,0,5.19-1.76,5.19-4.36v-0.09c0-2.9-2.02-4.4-5.33-4.4h-6.73
			v8.85H193.9z"/>
		<path class="st2" d="M210.72,108.19v-0.09c0-8.76,6.91-15.93,16.42-15.93c9.5,0,16.33,7.08,16.33,15.84v0.09
			c0,8.76-6.91,15.93-16.42,15.93C217.54,124.03,210.72,116.95,210.72,108.19z M236.38,108.19v-0.09c0-5.28-3.87-9.68-9.33-9.68
			c-5.46,0-9.24,4.31-9.24,9.59v0.09c0,5.28,3.87,9.68,9.33,9.68C232.59,117.78,236.38,113.47,236.38,108.19z"/>
		<path class="st2" d="M245,92.7h7.26l6.38,20.86l6.91-20.95h5.81l6.91,20.95l6.38-20.86h7.08l-10.52,31.02h-5.9l-6.95-20.15
			l-6.95,20.15h-5.9L245,92.7z"/>
		<path class="st2" d="M296.78,92.7h6.25l14.43,18.97V92.7h6.69v30.8h-5.76l-14.92-19.58v19.58h-6.69V92.7z"/>
		<path class="st2" d="M346.05,92.7h23.46v6.16h-16.68v6.56h14.7v6.16h-14.7v11.93h-6.78V92.7z"/>
		<path class="st2" d="M383.23,92.48h6.25l13.2,31.02h-7.08l-2.82-6.91h-13.03l-2.82,6.91h-6.91L383.23,92.48z M390.36,110.61
			l-4.09-9.99l-4.09,9.99H390.36z"/>
		<path class="st2" d="M406.68,92.7h7.31l8.1,13.03l8.1-13.03h7.3v30.8h-6.73v-20.11l-8.67,13.16h-0.18l-8.58-13.03v19.98h-6.65
			V92.7z"/>
		<path class="st2" d="M445.69,92.7h6.78v30.8h-6.78V92.7z"/>
		<path class="st2" d="M460.58,92.7h6.78v24.64h15.36v6.16h-22.14V92.7z"/>
		<path class="st2" d="M491.81,111.36L479.97,92.7h7.92l7.35,12.37l7.48-12.37h7.7l-11.84,18.53v12.28h-6.78V111.36z"/>
		<path class="st2" d="M527.05,119.01l4-4.8c2.77,2.29,5.68,3.74,9.2,3.74c2.77,0,4.44-1.1,4.44-2.9v-0.09
			c0-1.72-1.06-2.6-6.21-3.92c-6.2-1.58-10.21-3.3-10.21-9.42v-0.09c0-5.59,4.49-9.29,10.78-9.29c4.49,0,8.32,1.41,11.44,3.92
			l-3.52,5.1c-2.73-1.89-5.41-3.04-8.01-3.04c-2.6,0-3.96,1.19-3.96,2.68v0.09c0,2.02,1.32,2.68,6.64,4.05
			c6.25,1.63,9.77,3.87,9.77,9.24v0.09c0,6.12-4.67,9.55-11.31,9.55C535.46,123.94,530.75,122.31,527.05,119.01z"/>
		<path class="st2" d="M555.92,108.19v-0.09c0-8.76,6.6-15.93,16.06-15.93c5.81,0,9.29,1.94,12.15,4.75l-4.31,4.97
			c-2.38-2.16-4.8-3.48-7.88-3.48c-5.19,0-8.93,4.31-8.93,9.59v0.09c0,5.28,3.65,9.68,8.93,9.68c3.52,0,5.68-1.41,8.1-3.61
			l4.31,4.36c-3.17,3.39-6.69,5.5-12.63,5.5C562.66,124.03,555.92,117.03,555.92,108.19z"/>
		<path class="st2" d="M589.77,92.7h6.78v12.19h12.5V92.7h6.78v30.8h-6.78v-12.37h-12.5v12.37h-6.78V92.7z"/>
		<path class="st2" d="M622.3,108.19v-0.09c0-8.76,6.91-15.93,16.42-15.93c9.5,0,16.33,7.08,16.33,15.84v0.09
			c0,8.76-6.91,15.93-16.42,15.93C629.12,124.03,622.3,116.95,622.3,108.19z M647.96,108.19v-0.09c0-5.28-3.87-9.68-9.33-9.68
			c-5.46,0-9.24,4.31-9.24,9.59v0.09c0,5.28,3.87,9.68,9.33,9.68C644.17,117.78,647.96,113.47,647.96,108.19z"/>
		<path class="st2" d="M659.87,108.19v-0.09c0-8.76,6.91-15.93,16.42-15.93c9.5,0,16.33,7.08,16.33,15.84v0.09
			c0,8.76-6.91,15.93-16.41,15.93C666.69,124.03,659.87,116.95,659.87,108.19z M685.53,108.19v-0.09c0-5.28-3.87-9.68-9.33-9.68
			c-5.46,0-9.24,4.31-9.24,9.59v0.09c0,5.28,3.87,9.68,9.33,9.68C681.74,117.78,685.53,113.47,685.53,108.19z"/>
		<path class="st2" d="M699.02,92.7h6.78v24.64h15.36v6.16h-22.14V92.7z"/>
		<path class="st2" d="M146.41,152.19v-0.09c0-8.76,6.91-15.93,16.41-15.93s16.33,7.08,16.33,15.84v0.09
			c0,8.76-6.91,15.93-16.41,15.93S146.41,160.95,146.41,152.19z M172.07,152.19v-0.09c0-5.28-3.87-9.68-9.33-9.68
			s-9.24,4.31-9.24,9.59v0.09c0,5.28,3.87,9.68,9.33,9.68S172.07,157.47,172.07,152.19z"/>
		<path class="st2" d="M185.56,136.7h23.46v6.16h-16.68v6.56h14.7v6.16h-14.7v11.93h-6.78V136.7z"/>
		<path class="st2" d="M226.83,163.01l4-4.8c2.77,2.29,5.68,3.74,9.2,3.74c2.77,0,4.44-1.1,4.44-2.9v-0.09
			c0-1.72-1.06-2.6-6.21-3.92c-6.2-1.58-10.21-3.3-10.21-9.42v-0.09c0-5.59,4.49-9.29,10.78-9.29c4.49,0,8.32,1.41,11.44,3.92
			l-3.52,5.1c-2.73-1.89-5.41-3.04-8.01-3.04c-2.6,0-3.96,1.19-3.96,2.68v0.09c0,2.02,1.32,2.68,6.64,4.05
			c6.25,1.63,9.77,3.87,9.77,9.24v0.09c0,6.12-4.67,9.55-11.31,9.55C235.23,167.94,230.53,166.31,226.83,163.01z"/>
		<path class="st2" d="M255.68,152.19v-0.09c0-8.76,6.91-15.93,16.42-15.93c9.5,0,16.33,7.08,16.33,15.84v0.09
			c0,8.76-6.91,15.93-16.42,15.93C262.5,168.03,255.68,160.95,255.68,152.19z M281.34,152.19v-0.09c0-5.28-3.87-9.68-9.33-9.68
			c-5.46,0-9.24,4.31-9.24,9.59v0.09c0,5.28,3.87,9.68,9.33,9.68C277.55,161.78,281.34,157.47,281.34,152.19z"/>
		<path class="st2" d="M293.25,152.19v-0.09c0-8.76,6.6-15.93,16.06-15.93c5.81,0,9.29,1.94,12.15,4.75l-4.31,4.97
			c-2.38-2.16-4.8-3.48-7.88-3.48c-5.19,0-8.93,4.31-8.93,9.59v0.09c0,5.28,3.65,9.68,8.93,9.68c3.52,0,5.68-1.41,8.1-3.61
			l4.31,4.36c-3.17,3.39-6.69,5.5-12.63,5.5C299.98,168.03,293.25,161.03,293.25,152.19z"/>
		<path class="st2" d="M327.22,136.7H334v30.8h-6.78V136.7z"/>
		<path class="st2" d="M352.13,136.48h6.25l13.2,31.02h-7.08l-2.82-6.91h-13.03l-2.82,6.91h-6.91L352.13,136.48z M359.26,154.61
			l-4.09-9.99l-4.09,9.99H359.26z"/>
		<path class="st2" d="M376.45,136.7h6.78v24.64h15.36v6.16h-22.14V136.7z"/>
		<path class="st2" d="M415.83,136.7h7.26l6.38,20.86l6.91-20.95h5.81l6.91,20.95l6.38-20.86h7.08l-10.52,31.02h-5.9l-6.95-20.15
			l-6.95,20.15h-5.9L415.83,136.7z"/>
		<path class="st2" d="M464.14,152.19v-0.09c0-8.76,6.91-15.93,16.42-15.93c9.5,0,16.33,7.08,16.33,15.84v0.09
			c0,8.76-6.91,15.93-16.42,15.93C470.97,168.03,464.14,160.95,464.14,152.19z M489.8,152.19v-0.09c0-5.28-3.87-9.68-9.33-9.68
			c-5.46,0-9.24,4.31-9.24,9.59v0.09c0,5.28,3.87,9.68,9.33,9.68C486.02,161.78,489.8,157.47,489.8,152.19z"/>
		<path class="st2" d="M502.42,136.7h14.08c3.92,0,6.95,1.1,8.98,3.12c1.72,1.72,2.64,4.14,2.64,7.04v0.09c0,4.97-2.68,8.1-6.6,9.55
			l7.53,11h-7.92l-6.6-9.86h-5.32v9.86h-6.78V136.7z M516.07,151.66c3.3,0,5.19-1.76,5.19-4.36v-0.09c0-2.9-2.02-4.4-5.33-4.4h-6.73
			v8.85H516.07z"/>
		<path class="st2" d="M534.83,136.7h6.78v13.47l12.5-13.47h8.18l-12.54,13.07l13.11,17.73h-8.14l-9.55-13.11l-3.56,3.7v9.42h-6.78
			V136.7z"/>
		<path class="st2" d="M566.07,171.86c3.04-0.31,4.53-1.85,4.31-4.36h-2.73v-7.04h7.13v5.94c0,5.81-2.9,8.14-8.14,8.23
			L566.07,171.86z"/>
		<path class="st2" d="M595.73,136.7h12.59c7.35,0,11.79,4.36,11.79,10.65v0.09c0,7.13-5.54,10.83-12.45,10.83h-5.15v9.24h-6.78
			V136.7z M607.88,152.23c3.39,0,5.37-2.02,5.37-4.66v-0.09c0-3.04-2.11-4.67-5.5-4.67h-5.24v9.42H607.88z"/>
		<path class="st2" d="M624.33,152.19v-0.09c0-8.76,6.91-15.93,16.42-15.93c9.5,0,16.33,7.08,16.33,15.84v0.09
			c0,8.76-6.91,15.93-16.41,15.93C631.15,168.03,624.33,160.95,624.33,152.19z M649.98,152.19v-0.09c0-5.28-3.87-9.68-9.33-9.68
			c-5.46,0-9.24,4.31-9.24,9.59v0.09c0,5.28,3.87,9.68,9.33,9.68C646.2,161.78,649.98,157.47,649.98,152.19z"/>
		<path class="st2" d="M662.6,136.7h6.78v24.64h15.36v6.16H662.6V136.7z"/>
		<path class="st2" d="M689.9,136.7h6.78v30.8h-6.78V136.7z"/>
		<path class="st2" d="M703.21,152.19v-0.09c0-8.76,6.6-15.93,16.06-15.93c5.81,0,9.29,1.94,12.15,4.75l-4.31,4.97
			c-2.38-2.16-4.8-3.48-7.88-3.48c-5.19,0-8.93,4.31-8.93,9.59v0.09c0,5.28,3.65,9.68,8.93,9.68c3.52,0,5.68-1.41,8.1-3.61
			l4.31,4.36c-3.17,3.39-6.69,5.5-12.63,5.5C709.94,168.03,703.21,161.03,703.21,152.19z"/>
		<path class="st2" d="M745.92,155.36l-11.84-18.66H742l7.35,12.37l7.48-12.37h7.7l-11.84,18.53v12.28h-6.78V155.36z"/>
		<path class="st2" d="M757.57,171.86c3.04-0.31,4.53-1.85,4.31-4.36h-2.73v-7.04h7.13v5.94c0,5.81-2.9,8.14-8.14,8.23
			L757.57,171.86z"/>
		<path class="st2" d="M158.34,180.48h6.25l13.2,31.02h-7.08l-2.82-6.91h-13.03l-2.82,6.91h-6.91L158.34,180.48z M165.47,198.61
			l-4.09-9.99l-4.09,9.99H165.47z"/>
		<path class="st2" d="M182.66,180.7h6.25l14.43,18.97V180.7h6.69v30.8h-5.76l-14.92-19.58v19.58h-6.69V180.7z"/>
		<path class="st2" d="M218.08,180.7h12.01c9.68,0,16.37,6.65,16.37,15.31v0.09c0,8.67-6.69,15.4-16.37,15.4h-12.01V180.7z
			 M230.1,205.38c5.54,0,9.29-3.74,9.29-9.2v-0.09c0-5.46-3.74-9.29-9.29-9.29h-5.24v18.57H230.1z"/>
		<path class="st2" d="M267.01,180.7h12.59c7.35,0,11.79,4.36,11.79,10.65v0.09c0,7.13-5.54,10.83-12.45,10.83h-5.15v9.24h-6.78
			V180.7z M279.16,196.23c3.39,0,5.37-2.02,5.37-4.66v-0.09c0-3.04-2.11-4.67-5.5-4.67h-5.24v9.42H279.16z"/>
		<path class="st2" d="M296.75,180.7h14.08c3.92,0,6.95,1.1,8.98,3.12c1.72,1.72,2.64,4.14,2.64,7.04v0.09c0,4.97-2.68,8.1-6.6,9.55
			l7.53,11h-7.92l-6.6-9.86h-5.32v9.86h-6.78V180.7z M310.39,195.66c3.3,0,5.19-1.76,5.19-4.36v-0.09c0-2.9-2.02-4.4-5.33-4.4h-6.73
			v8.85H310.39z"/>
		<path class="st2" d="M340.39,180.48h6.25l13.2,31.02h-7.08l-2.82-6.91h-13.03l-2.82,6.91h-6.91L340.39,180.48z M347.51,198.61
			l-4.09-9.99l-4.09,9.99H347.51z"/>
		<path class="st2" d="M361.58,196.19v-0.09c0-8.76,6.6-15.93,16.06-15.93c5.81,0,9.29,1.94,12.15,4.75l-4.31,4.97
			c-2.38-2.16-4.8-3.48-7.88-3.48c-5.19,0-8.93,4.31-8.93,9.59v0.09c0,5.28,3.65,9.68,8.93,9.68c3.52,0,5.68-1.41,8.1-3.61
			l4.31,4.36c-3.17,3.39-6.69,5.5-12.63,5.5C368.32,212.03,361.58,205.03,361.58,196.19z"/>
		<path class="st2" d="M403.39,186.95h-9.37v-6.25h25.52v6.25h-9.37v24.56h-6.78V186.95z"/>
		<path class="st2" d="M424.75,180.7h6.78v30.8h-6.78V180.7z"/>
		<path class="st2" d="M438.06,196.19v-0.09c0-8.76,6.6-15.93,16.06-15.93c5.81,0,9.29,1.94,12.15,4.75l-4.31,4.97
			c-2.38-2.16-4.8-3.48-7.88-3.48c-5.19,0-8.93,4.31-8.93,9.59v0.09c0,5.28,3.65,9.68,8.93,9.68c3.52,0,5.68-1.41,8.1-3.61
			l4.31,4.36c-3.17,3.39-6.69,5.5-12.63,5.5C444.79,212.03,438.06,205.03,438.06,196.19z"/>
		<path class="st2" d="M471.91,180.7h23.24v6.03h-16.5v6.25h14.52V199h-14.52v6.47h16.72v6.03h-23.46V180.7z"/>
	</g>
</g>
<g id="primary">
	<g>
		<g>
			<path class="st3" d="M153.55,53.19h-5.54v-3.69h15.08v3.69h-5.54V67.7h-4V53.19z"/>
			<path class="st3" d="M167.07,49.49h4v7.2h7.38v-7.2h4v18.2h-4v-7.31h-7.38v7.31h-4V49.49z"/>
			<path class="st3" d="M187.74,49.49h13.73v3.56h-9.75v3.69h8.58v3.56h-8.58v3.82h9.88v3.56h-13.86V49.49z"/>
			<path class="st3" d="M214.5,59.89v-10.4h4v10.3c0,2.96,1.48,4.5,3.93,4.5c2.44,0,3.93-1.48,3.93-4.37V49.49h4v10.27
				c0,5.51-3.09,8.22-7.98,8.22S214.5,65.25,214.5,59.89z"/>
			<path class="st3" d="M235.35,49.49h3.69l8.53,11.21V49.49h3.95v18.2h-3.41l-8.81-11.57V67.7h-3.95V49.49z"/>
			<path class="st3" d="M256.98,49.49h4v18.2h-4V49.49z"/>
			<path class="st3" d="M264.88,49.49h4.42l4.76,12.82l4.76-12.82h4.32l-7.36,18.33h-3.54L264.88,49.49z"/>
			<path class="st3" d="M286.85,49.49h13.73v3.56h-9.75v3.69h8.58v3.56h-8.58v3.82h9.88v3.56h-13.86V49.49z"/>
			<path class="st3" d="M305.18,49.49h8.32c2.31,0,4.11,0.65,5.3,1.85c1.01,1.01,1.56,2.44,1.56,4.16v0.05
				c0,2.94-1.59,4.78-3.9,5.64l4.45,6.5h-4.68l-3.9-5.82h-3.15v5.82h-4V49.49z M313.24,58.33c1.95,0,3.07-1.04,3.07-2.57v-0.05
				c0-1.72-1.2-2.6-3.15-2.6h-3.98v5.23H313.24z"/>
			<path class="st3" d="M323.64,65.04l2.37-2.83c1.64,1.35,3.35,2.21,5.43,2.21c1.64,0,2.63-0.65,2.63-1.72v-0.05
				c0-1.01-0.62-1.53-3.67-2.31c-3.67-0.94-6.03-1.95-6.03-5.56v-0.05c0-3.3,2.65-5.49,6.37-5.49c2.65,0,4.91,0.83,6.76,2.31
				l-2.08,3.02c-1.61-1.12-3.2-1.79-4.73-1.79s-2.34,0.7-2.34,1.59v0.05c0,1.2,0.78,1.59,3.93,2.39c3.69,0.96,5.77,2.29,5.77,5.46
				v0.05c0,3.61-2.76,5.64-6.68,5.64C328.61,67.95,325.83,66.99,323.64,65.04z"/>
			<path class="st3" d="M342.62,49.49h4v18.2h-4V49.49z"/>
			<path class="st3" d="M356.32,53.19h-5.54v-3.69h15.08v3.69h-5.54V67.7h-4V53.19z"/>
			<path class="st3" d="M374.97,60.52l-6.99-11.03h4.68l4.34,7.31l4.42-7.31h4.55l-6.99,10.95v7.25h-4V60.52z"/>
			<path class="st3" d="M397.27,58.65v-0.05c0-5.17,4.08-9.41,9.7-9.41s9.65,4.19,9.65,9.36v0.05c0,5.17-4.08,9.41-9.7,9.41
				S397.27,63.82,397.27,58.65z M412.43,58.65v-0.05c0-3.12-2.29-5.72-5.51-5.72s-5.46,2.55-5.46,5.67v0.05
				c0,3.12,2.29,5.72,5.51,5.72C410.2,64.32,412.43,61.77,412.43,58.65z"/>
			<path class="st3" d="M421.09,49.49h13.86v3.64h-9.85v3.87h8.68v3.64h-8.68v7.05h-4V49.49z"/>
			<path class="st3" d="M446.96,58.65v-0.05c0-5.17,3.9-9.41,9.49-9.41c3.43,0,5.49,1.14,7.18,2.81l-2.55,2.94
				c-1.4-1.27-2.83-2.05-4.65-2.05c-3.07,0-5.28,2.55-5.28,5.67v0.05c0,3.12,2.16,5.72,5.28,5.72c2.08,0,3.35-0.83,4.78-2.13
				l2.55,2.57c-1.87,2-3.95,3.25-7.46,3.25C450.94,68.01,446.96,63.87,446.96,58.65z"/>
			<path class="st3" d="M467.86,49.49h4v7.2h7.38v-7.2h4v18.2h-4v-7.31h-7.38v7.31h-4V49.49z"/>
			<path class="st3" d="M488.71,49.49h4v18.2h-4V49.49z"/>
			<path class="st3" d="M497.37,58.65v-0.05c0-5.17,3.9-9.41,9.49-9.41c3.43,0,5.49,1.14,7.18,2.81l-2.55,2.94
				c-1.4-1.27-2.83-2.05-4.65-2.05c-3.07,0-5.28,2.55-5.28,5.67v0.05c0,3.12,2.16,5.72,5.28,5.72c2.08,0,3.35-0.83,4.78-2.13
				l2.55,2.57c-1.87,2-3.95,3.25-7.46,3.25C501.35,68.01,497.37,63.87,497.37,58.65z"/>
			<path class="st3" d="M524.52,49.36h3.69l7.8,18.33h-4.19l-1.66-4.08h-7.7l-1.66,4.08h-4.08L524.52,49.36z M528.73,60.08
				l-2.42-5.9l-2.42,5.9H528.73z"/>
			<path class="st3" d="M537.75,58.65v-0.05c0-5.17,4.03-9.41,9.54-9.41c3.28,0,5.25,0.88,7.15,2.5l-2.52,3.04
				c-1.4-1.17-2.65-1.85-4.76-1.85c-2.91,0-5.23,2.57-5.23,5.67v0.05c0,3.33,2.29,5.77,5.51,5.77c1.46,0,2.76-0.36,3.77-1.09v-2.6
				h-4.03v-3.46h7.9v7.9c-1.87,1.59-4.45,2.89-7.77,2.89C541.65,68.01,537.75,64.03,537.75,58.65z"/>
			<path class="st3" d="M559.04,58.65v-0.05c0-5.17,4.08-9.41,9.7-9.41s9.65,4.19,9.65,9.36v0.05c0,5.17-4.08,9.41-9.7,9.41
				S559.04,63.82,559.04,58.65z M574.2,58.65v-0.05c0-3.12-2.29-5.72-5.51-5.72s-5.46,2.55-5.46,5.67v0.05
				c0,3.12,2.29,5.72,5.51,5.72C571.97,64.32,574.2,61.77,574.2,58.65z"/>
		</g>
	</g>
	<g>
		<g>
			<path class="st2" d="M153.92,223.8h2.96l8.01,18.33h-3.38l-1.85-4.39h-8.61l-1.87,4.39h-3.28L153.92,223.8z M158.5,234.9
				l-3.15-7.28l-3.12,7.28H158.5z"/>
			<path class="st2" d="M166.99,235.29v-0.05c0-4.55,3.09-7.12,6.37-7.12c2.26,0,3.69,1.14,4.68,2.42v-7.38h3.15v18.98h-3.15v-2.29
				c-1.01,1.43-2.44,2.57-4.68,2.57C170.14,242.41,166.99,239.84,166.99,235.29z M178.09,235.29v-0.05c0-2.65-1.87-4.39-3.98-4.39
				c-2.16,0-3.95,1.66-3.95,4.39v0.05c0,2.65,1.82,4.39,3.95,4.39C176.22,239.68,178.09,237.92,178.09,235.29z"/>
			<path class="st2" d="M184.25,228.4h3.38l3.69,10.09l3.72-10.09h3.3l-5.62,13.83h-2.83L184.25,228.4z"/>
			<path class="st2" d="M209.58,242.13v-1.69c-0.94,1.12-2.37,1.98-4.45,1.98c-2.6,0-4.89-1.48-4.89-4.24v-0.05
				c0-3.04,2.37-4.5,5.56-4.5c1.66,0,2.73,0.23,3.8,0.57v-0.26c0-1.9-1.2-2.94-3.38-2.94c-1.53,0-2.68,0.34-3.93,0.86l-0.86-2.52
				c1.51-0.68,2.99-1.14,5.23-1.14c4.06,0,6.03,2.13,6.03,5.8v8.14H209.58z M209.65,236.38c-0.81-0.31-1.92-0.55-3.15-0.55
				c-1.98,0-3.15,0.81-3.15,2.13v0.05c0,1.3,1.17,2.03,2.65,2.03c2.08,0,3.64-1.17,3.64-2.89V236.38z"/>
			<path class="st2" d="M217.09,228.4h3.15v2.13c0.88-1.3,2.16-2.42,4.29-2.42c3.09,0,4.89,2.08,4.89,5.28v8.74h-3.15v-7.8
				c0-2.13-1.07-3.35-2.94-3.35c-1.82,0-3.09,1.27-3.09,3.41v7.75h-3.15V228.4z"/>
			<path class="st2" d="M233.02,235.34v-0.05c0-3.9,3.02-7.18,7.12-7.18c2.6,0,4.21,0.96,5.49,2.37l-1.95,2.11
				c-0.96-1.01-1.98-1.72-3.56-1.72c-2.29,0-3.95,1.98-3.95,4.37v0.05c0,2.44,1.69,4.42,4.11,4.42c1.48,0,2.57-0.7,3.56-1.72
				l1.9,1.87c-1.35,1.51-2.94,2.57-5.62,2.57C236.03,242.44,233.02,239.24,233.02,235.34z"/>
			<path class="st2" d="M248.93,223.3h3.38v2.99h-3.38V223.3z M249.06,228.4h3.15v13.73h-3.15V228.4z"/>
			<path class="st2" d="M256.79,228.4h3.15v2.13c0.88-1.3,2.16-2.42,4.29-2.42c3.09,0,4.89,2.08,4.89,5.28v8.74h-3.15v-7.8
				c0-2.13-1.07-3.35-2.94-3.35c-1.82,0-3.09,1.27-3.09,3.41v7.75h-3.15V228.4z"/>
			<path class="st2" d="M273.42,244.7l1.17-2.37c1.46,0.91,3.02,1.46,4.89,1.46c2.81,0,4.34-1.46,4.34-4.21v-1.07
				c-1.14,1.48-2.57,2.52-4.84,2.52c-3.22,0-6.24-2.39-6.24-6.42v-0.05c0-4.06,3.04-6.45,6.24-6.45c2.31,0,3.74,1.07,4.81,2.34
				v-2.05h3.15v10.92c0,2.31-0.6,4.03-1.74,5.17c-1.25,1.25-3.17,1.85-5.64,1.85C277.3,246.34,275.19,245.77,273.42,244.7z
				 M283.85,234.61v-0.05c0-2.26-1.85-3.8-4.03-3.8c-2.18,0-3.9,1.51-3.9,3.77v0.05c0,2.26,1.74,3.8,3.9,3.8
				C282,238.38,283.85,236.82,283.85,234.61z"/>
			<path class="st2" d="M308.37,242.13v-1.69c-0.94,1.12-2.37,1.98-4.45,1.98c-2.6,0-4.89-1.48-4.89-4.24v-0.05
				c0-3.04,2.37-4.5,5.56-4.5c1.66,0,2.73,0.23,3.8,0.57v-0.26c0-1.9-1.2-2.94-3.38-2.94c-1.53,0-2.68,0.34-3.93,0.86l-0.86-2.52
				c1.51-0.68,2.99-1.14,5.23-1.14c4.06,0,6.03,2.13,6.03,5.8v8.14H308.37z M308.44,236.38c-0.81-0.31-1.92-0.55-3.15-0.55
				c-1.98,0-3.15,0.81-3.15,2.13v0.05c0,1.3,1.17,2.03,2.65,2.03c2.08,0,3.64-1.17,3.64-2.89V236.38z"/>
			<path class="st2" d="M324.69,223.93h3.41l5.54,8.61l5.54-8.61h3.41v18.2h-3.2v-13.05l-5.75,8.58h-0.1l-5.69-8.53v13h-3.15V223.93
				z"/>
			<path class="st2" d="M346.8,235.34v-0.05c0-3.93,3.12-7.18,7.33-7.18c4.21,0,7.31,3.2,7.31,7.12v0.05c0,3.9-3.12,7.15-7.36,7.15
				C349.9,242.44,346.8,239.24,346.8,235.34z M358.3,235.34v-0.05c0-2.42-1.74-4.42-4.21-4.42c-2.52,0-4.13,1.98-4.13,4.37v0.05
				c0,2.39,1.74,4.42,4.19,4.42C356.68,239.71,358.3,237.71,358.3,235.34z"/>
			<path class="st2" d="M365.19,228.4h3.15v3.09c0.86-2.05,2.44-3.46,4.86-3.35v3.33h-0.18c-2.76,0-4.68,1.79-4.68,5.43v5.23h-3.15
				V228.4z"/>
			<path class="st2" d="M375.5,235.32v-0.05c0-3.93,2.78-7.15,6.71-7.15c4.37,0,6.58,3.43,6.58,7.38c0,0.29-0.03,0.57-0.05,0.88
				h-10.09c0.34,2.24,1.92,3.48,3.95,3.48c1.53,0,2.63-0.57,3.72-1.64l1.85,1.64c-1.3,1.56-3.09,2.57-5.62,2.57
				C378.57,242.44,375.5,239.55,375.5,235.32z M385.67,234.3c-0.21-2.03-1.4-3.61-3.48-3.61c-1.92,0-3.28,1.48-3.56,3.61H385.67z"/>
			<path class="st2" d="M399.63,239.45l2.11-2.16c1.07,1.35,2.13,2.13,3.67,2.13c1.72,0,2.89-1.14,2.89-3.56v-11.93h3.28v12.01
				c0,2.16-0.62,3.77-1.69,4.84c-1.07,1.07-2.6,1.61-4.42,1.61C402.64,242.39,400.82,241.09,399.63,239.45z"/>
			<path class="st2" d="M416.24,237.14v-8.74h3.15v7.8c0,2.13,1.07,3.35,2.94,3.35c1.82,0,3.09-1.27,3.09-3.41v-7.75h3.15v13.73
				h-3.15V240c-0.88,1.3-2.16,2.42-4.29,2.42C418.03,242.41,416.24,240.33,416.24,237.14z"/>
			<path class="st2" d="M432.01,240.33l1.4-2.13c1.48,1.12,3.09,1.69,4.5,1.69c1.35,0,2.13-0.57,2.13-1.48v-0.05
				c0-1.07-1.46-1.43-3.07-1.92c-2.03-0.57-4.29-1.4-4.29-4.03v-0.05c0-2.6,2.16-4.19,4.89-4.19c1.72,0,3.59,0.6,5.04,1.56
				l-1.25,2.24c-1.33-0.81-2.73-1.3-3.87-1.3c-1.22,0-1.92,0.57-1.92,1.38v0.05c0,0.99,1.48,1.4,3.09,1.92c2,0.62,4.26,1.53,4.26,4
				v0.05c0,2.89-2.24,4.32-5.1,4.32C435.88,242.39,433.73,241.69,432.01,240.33z"/>
			<path class="st2" d="M447.31,238.33v-7.23h-1.74v-2.7h1.74v-3.77h3.15v3.77h3.69v2.7h-3.69v6.73c0,1.22,0.62,1.72,1.69,1.72
				c0.7,0,1.33-0.16,1.95-0.47v2.57c-0.78,0.44-1.66,0.7-2.83,0.7C448.95,242.36,447.31,241.35,447.31,238.33z"/>
			<path class="st2" d="M474.82,242.13v-1.69c-0.94,1.12-2.37,1.98-4.45,1.98c-2.6,0-4.89-1.48-4.89-4.24v-0.05
				c0-3.04,2.37-4.5,5.56-4.5c1.66,0,2.73,0.23,3.8,0.57v-0.26c0-1.9-1.2-2.94-3.38-2.94c-1.53,0-2.68,0.34-3.93,0.86l-0.86-2.52
				c1.51-0.68,2.99-1.14,5.23-1.14c4.06,0,6.03,2.13,6.03,5.8v8.14H474.82z M474.89,236.38c-0.81-0.31-1.92-0.55-3.15-0.55
				c-1.98,0-3.15,0.81-3.15,2.13v0.05c0,1.3,1.17,2.03,2.65,2.03c2.08,0,3.64-1.17,3.64-2.89V236.38z"/>
			<path class="st2" d="M482.33,228.4h3.15v2.13c0.88-1.3,2.16-2.42,4.29-2.42c3.09,0,4.89,2.08,4.89,5.28v8.74h-3.15v-7.8
				c0-2.13-1.07-3.35-2.94-3.35c-1.82,0-3.09,1.27-3.09,3.41v7.75h-3.15V228.4z"/>
			<path class="st2" d="M498.33,235.29v-0.05c0-4.55,3.09-7.12,6.37-7.12c2.26,0,3.69,1.14,4.68,2.42v-7.38h3.15v18.98h-3.15v-2.29
				c-1.01,1.43-2.44,2.57-4.68,2.57C501.48,242.41,498.33,239.84,498.33,235.29z M509.43,235.29v-0.05c0-2.65-1.87-4.39-3.98-4.39
				c-2.16,0-3.95,1.66-3.95,4.39v0.05c0,2.65,1.82,4.39,3.95,4.39C507.56,239.68,509.43,237.92,509.43,235.29z"/>
			<path class="st2" d="M525.92,223.93h3.2v7.57h8.68v-7.57h3.2v18.2h-3.2v-7.67h-8.68v7.67h-3.2V223.93z"/>
			<path class="st2" d="M545.9,237.14v-8.74h3.15v7.8c0,2.13,1.07,3.35,2.94,3.35c1.82,0,3.09-1.27,3.09-3.41v-7.75h3.15v13.73
				h-3.15V240c-0.88,1.3-2.16,2.42-4.29,2.42C547.69,242.41,545.9,240.33,545.9,237.14z"/>
			<path class="st2" d="M562.75,228.4h3.15v2.08c0.88-1.22,2.08-2.37,4.19-2.37c1.98,0,3.35,0.96,4.08,2.42
				c1.12-1.46,2.57-2.42,4.65-2.42c2.99,0,4.81,1.9,4.81,5.25v8.76h-3.15v-7.8c0-2.18-1.01-3.35-2.78-3.35
				c-1.72,0-2.94,1.2-2.94,3.41v7.75h-3.15v-7.83c0-2.13-1.04-3.33-2.78-3.33s-2.94,1.3-2.94,3.43v7.72h-3.15V228.4z"/>
			<path class="st2" d="M596.48,242.13v-1.69c-0.94,1.12-2.37,1.98-4.45,1.98c-2.6,0-4.89-1.48-4.89-4.24v-0.05
				c0-3.04,2.37-4.5,5.56-4.5c1.66,0,2.73,0.23,3.8,0.57v-0.26c0-1.9-1.2-2.94-3.38-2.94c-1.53,0-2.68,0.34-3.93,0.86l-0.86-2.52
				c1.51-0.68,2.99-1.14,5.23-1.14c4.06,0,6.03,2.13,6.03,5.8v8.14H596.48z M596.56,236.38c-0.81-0.31-1.92-0.55-3.15-0.55
				c-1.98,0-3.15,0.81-3.15,2.13v0.05c0,1.3,1.17,2.03,2.65,2.03c2.08,0,3.64-1.17,3.64-2.89V236.38z"/>
			<path class="st2" d="M604,228.4h3.15v2.13c0.88-1.3,2.16-2.42,4.29-2.42c3.09,0,4.89,2.08,4.89,5.28v8.74h-3.15v-7.8
				c0-2.13-1.07-3.35-2.94-3.35c-1.82,0-3.09,1.27-3.09,3.41v7.75H604V228.4z"/>
			<path class="st2" d="M619.97,235.32v-0.05c0-3.93,2.78-7.15,6.71-7.15c4.37,0,6.58,3.43,6.58,7.38c0,0.29-0.03,0.57-0.05,0.88
				h-10.09c0.34,2.24,1.92,3.48,3.95,3.48c1.53,0,2.63-0.57,3.72-1.64l1.85,1.64c-1.3,1.56-3.09,2.57-5.62,2.57
				C623.04,242.44,619.97,239.55,619.97,235.32z M630.14,234.3c-0.21-2.03-1.4-3.61-3.48-3.61c-1.92,0-3.28,1.48-3.56,3.61H630.14z"
				/>
			<path class="st2" d="M644.67,239.48l1.92-2.29c1.74,1.51,3.48,2.37,5.75,2.37c1.98,0,3.22-0.91,3.22-2.29v-0.05
				c0-1.3-0.73-2-4.11-2.78c-3.87-0.94-6.06-2.08-6.06-5.43v-0.05c0-3.12,2.6-5.28,6.21-5.28c2.65,0,4.76,0.81,6.6,2.29l-1.72,2.42
				c-1.64-1.22-3.28-1.87-4.94-1.87c-1.87,0-2.96,0.96-2.96,2.16v0.05c0,1.4,0.83,2.03,4.32,2.86c3.85,0.94,5.85,2.31,5.85,5.33
				v0.05c0,3.41-2.68,5.43-6.5,5.43C649.48,242.39,646.86,241.43,644.67,239.48z"/>
			<path class="st2" d="M661.96,235.34v-0.05c0-3.93,3.12-7.18,7.33-7.18c4.21,0,7.31,3.2,7.31,7.12v0.05c0,3.9-3.12,7.15-7.36,7.15
				C665.05,242.44,661.96,239.24,661.96,235.34z M673.45,235.34v-0.05c0-2.42-1.74-4.42-4.21-4.42c-2.52,0-4.13,1.98-4.13,4.37v0.05
				c0,2.39,1.74,4.42,4.19,4.42C671.84,239.71,673.45,237.71,673.45,235.34z"/>
			<path class="st2" d="M679.57,235.34v-0.05c0-3.9,3.02-7.18,7.12-7.18c2.6,0,4.21,0.96,5.49,2.37l-1.95,2.11
				c-0.96-1.01-1.98-1.72-3.56-1.72c-2.29,0-3.95,1.98-3.95,4.37v0.05c0,2.44,1.69,4.42,4.11,4.42c1.48,0,2.57-0.7,3.56-1.72
				l1.9,1.87c-1.35,1.51-2.94,2.57-5.62,2.57C682.59,242.44,679.57,239.24,679.57,235.34z"/>
			<path class="st2" d="M695.49,223.3h3.38v2.99h-3.38V223.3z M695.62,228.4h3.15v13.73h-3.15V228.4z"/>
			<path class="st2" d="M702.55,235.32v-0.05c0-3.93,2.78-7.15,6.71-7.15c4.37,0,6.58,3.43,6.58,7.38c0,0.29-0.03,0.57-0.05,0.88
				h-10.09c0.34,2.24,1.92,3.48,3.95,3.48c1.53,0,2.63-0.57,3.72-1.64l1.85,1.64c-1.3,1.56-3.09,2.57-5.62,2.57
				C705.62,242.44,702.55,239.55,702.55,235.32z M712.71,234.3c-0.21-2.03-1.4-3.61-3.48-3.61c-1.92,0-3.28,1.48-3.56,3.61H712.71z"
				/>
			<path class="st2" d="M719.99,238.33v-7.23h-1.74v-2.7h1.74v-3.77h3.15v3.77h3.69v2.7h-3.69v6.73c0,1.22,0.62,1.72,1.69,1.72
				c0.7,0,1.33-0.16,1.95-0.47v2.57c-0.78,0.44-1.66,0.7-2.83,0.7C721.63,242.36,719.99,241.35,719.99,238.33z"/>
			<path class="st2" d="M730.36,245.54l1.07-2.34c0.57,0.31,1.2,0.52,1.85,0.52c0.88,0,1.43-0.39,1.95-1.59l-5.72-13.73h3.35
				l3.9,10.19l3.56-10.19h3.28l-5.46,14.12c-1.09,2.81-2.31,3.85-4.52,3.85C732.28,246.37,731.32,246.05,730.36,245.54z"/>
		</g>
	</g>
</g>
</svg>
