<svg version="1.1" id="Layer_1" xmlns="http://www.w3.org/2000/svg" xmlns:xlink="http://www.w3.org/1999/xlink" x="0px" y="0px" viewBox="0 0 816.5 290" style="enable-background:new 0 0 816.5 290;" xml:space="preserve">
<style type="text/css">
	.st0{display:none;}
	.st1{fill:#FFFFFF;}
</style>
<g id="DOES_NOT_PRINT" class="st0">
</g>
<g id="rule">
	<g>
		<rect x="148.2" y="79.3" class="st1" width="617.5" height="1.7"></rect>
	</g>
</g>
<g id="tertiary">
</g>
<g>
	<path class="st1" d="M146.4,108.2L146.4,108.2c0-8.8,6.6-16,16.1-16c5.8,0,9.3,1.9,12.1,4.8l-4.3,5c-2.4-2.2-4.8-3.5-7.9-3.5
		c-5.2,0-8.9,4.3-8.9,9.6v0.1c0,5.3,3.6,9.7,8.9,9.7c3.5,0,5.7-1.4,8.1-3.6l4.3,4.4c-3.2,3.4-6.7,5.5-12.6,5.5
		C153.1,124,146.4,117,146.4,108.2z"></path>
	<path class="st1" d="M180.3,92.7h14.1c3.9,0,6.9,1.1,9,3.1c1.7,1.7,2.6,4.1,2.6,7v0.1c0,5-2.7,8.1-6.6,9.6l7.5,11H199l-6.6-9.9H187
		v9.9h-6.8L180.3,92.7L180.3,92.7z M193.9,107.7c3.3,0,5.2-1.8,5.2-4.4v-0.1c0-2.9-2-4.4-5.3-4.4H187v8.8H193.9z"></path>
	<path class="st1" d="M210.7,108.2L210.7,108.2c0-8.8,6.9-16,16.4-16c9.5,0,16.3,7.1,16.3,15.8v0.1c0,8.8-6.9,15.9-16.4,15.9
		C217.5,124,210.7,116.9,210.7,108.2z M236.4,108.2L236.4,108.2c0-5.4-3.9-9.8-9.3-9.8s-9.2,4.3-9.2,9.6v0.1c0,5.3,3.9,9.7,9.3,9.7
		C232.6,117.8,236.4,113.5,236.4,108.2z"></path>
	<path class="st1" d="M245,92.7h7.3l6.4,20.9l6.9-20.9h5.8l6.9,20.9l6.4-20.9h7.1l-10.5,31h-5.9l-7-20.2l-7,20.2h-5.9L245,92.7z"></path>
	<path class="st1" d="M296.8,92.7h6.2l14.4,19v-19h6.7v30.8h-5.8l-14.9-19.6v19.6h-6.7L296.8,92.7L296.8,92.7z"></path>
	<path class="st1" d="M346,92.7h23.5v6.2h-16.7v6.6h14.7v6.2h-14.7v11.9H346V92.7z"></path>
	<path class="st1" d="M383.2,92.5h6.2l13.2,31h-7.1l-2.8-6.9h-13l-2.8,6.9H370L383.2,92.5z M390.4,110.6l-4.1-10l-4.1,10H390.4z"></path>
	<path class="st1" d="M406.7,92.7h7.3l8.1,13l8.1-13h7.3v30.8h-6.7v-20.1l-8.7,13.2h-0.2l-8.6-13v20h-6.6V92.7z"></path>
	<path class="st1" d="M445.7,92.7h6.8v30.8h-6.8V92.7z"></path>
	<path class="st1" d="M460.6,92.7h6.8v24.6h15.4v6.2h-22.1L460.6,92.7L460.6,92.7z"></path>
	<path class="st1" d="M491.8,111.4L480,92.7h7.9l7.4,12.4l7.5-12.4h7.7l-11.8,18.5v12.3h-6.8L491.8,111.4L491.8,111.4z"></path>
	<path class="st1" d="M527,119l4-4.8c2.8,2.3,5.7,3.7,9.2,3.7c2.8,0,4.4-1.1,4.4-2.9V115c0-1.7-1.1-2.6-6.2-3.9
		c-6.2-1.6-10.2-3.3-10.2-9.4v-0.1c0-5.6,4.5-9.3,10.8-9.3c4.5,0,8.3,1.4,11.4,3.9l-3.5,5.1c-2.7-1.9-5.4-3-8-3c-2.6,0-4,1.2-4,2.7
		v0.1c0,2,1.3,2.7,6.6,4.1c6.2,1.6,9.8,3.9,9.8,9.2v0.1c0,6.1-4.7,9.6-11.3,9.6C535.5,123.9,530.8,122.3,527,119z"></path>
	<path class="st1" d="M555.9,108.2L555.9,108.2c0-8.8,6.6-16,16.1-16c5.8,0,9.3,1.9,12.2,4.8l-4.3,5c-2.4-2.2-4.8-3.5-7.9-3.5
		c-5.2,0-8.9,4.3-8.9,9.6v0.1c0,5.3,3.7,9.7,8.9,9.7c3.5,0,5.7-1.4,8.1-3.6l4.3,4.4c-3.2,3.4-6.7,5.5-12.6,5.5
		C562.7,124,555.9,117,555.9,108.2z"></path>
	<path class="st1" d="M589.8,92.7h6.8v12.2h12.5V92.7h6.8v30.8h-6.8v-12.4h-12.5v12.4h-6.8V92.7z"></path>
	<path class="st1" d="M622.3,108.2L622.3,108.2c0-8.8,6.9-16,16.4-16c9.5,0,16.3,7.1,16.3,15.8v0.1c0,8.8-6.9,15.9-16.4,15.9
		C629.1,124,622.3,116.9,622.3,108.2z M648,108.2L648,108.2c0-5.4-3.9-9.8-9.3-9.8s-9.2,4.3-9.2,9.6v0.1c0,5.3,3.9,9.7,9.3,9.7
		C644.2,117.8,648,113.5,648,108.2z"></path>
	<path class="st1" d="M659.9,108.2L659.9,108.2c0-8.8,6.9-16,16.4-16c9.5,0,16.3,7.1,16.3,15.8v0.1c0,8.8-6.9,15.9-16.4,15.9
		C666.7,124,659.9,116.9,659.9,108.2z M685.5,108.2L685.5,108.2c0-5.4-3.9-9.8-9.3-9.8s-9.2,4.3-9.2,9.6v0.1c0,5.3,3.9,9.7,9.3,9.7
		C681.7,117.8,685.5,113.5,685.5,108.2z"></path>
	<path class="st1" d="M699,92.7h6.8v24.6h15.4v6.2H699V92.7z"></path>
	<path class="st1" d="M146.4,152.2L146.4,152.2c0-8.8,6.9-16,16.4-16s16.3,7.1,16.3,15.8v0.1c0,8.8-6.9,15.9-16.4,15.9
		S146.4,160.9,146.4,152.2z M172.1,152.2L172.1,152.2c0-5.4-3.9-9.8-9.3-9.8s-9.2,4.3-9.2,9.6v0.1c0,5.3,3.9,9.7,9.3,9.7
		S172.1,157.5,172.1,152.2z"></path>
	<path class="st1" d="M185.6,136.7H209v6.2h-16.7v6.6H207v6.2h-14.7v11.9h-6.8V136.7z"></path>
	<path class="st1" d="M226.8,163l4-4.8c2.8,2.3,5.7,3.7,9.2,3.7c2.8,0,4.4-1.1,4.4-2.9V159c0-1.7-1.1-2.6-6.2-3.9
		c-6.2-1.6-10.2-3.3-10.2-9.4v-0.1c0-5.6,4.5-9.3,10.8-9.3c4.5,0,8.3,1.4,11.4,3.9l-3.5,5.1c-2.7-1.9-5.4-3-8-3c-2.6,0-4,1.2-4,2.7
		v0.1c0,2,1.3,2.7,6.6,4.1c6.2,1.6,9.8,3.9,9.8,9.2v0.1c0,6.1-4.7,9.6-11.3,9.6C235.2,167.9,230.5,166.3,226.8,163z"></path>
	<path class="st1" d="M255.7,152.2L255.7,152.2c0-8.8,6.9-16,16.4-16c9.5,0,16.3,7.1,16.3,15.8v0.1c0,8.8-6.9,15.9-16.4,15.9
		C262.5,168,255.7,160.9,255.7,152.2z M281.3,152.2L281.3,152.2c0-5.4-3.9-9.8-9.3-9.8s-9.2,4.3-9.2,9.6v0.1c0,5.3,3.9,9.7,9.3,9.7
		C277.5,161.8,281.3,157.5,281.3,152.2z"></path>
	<path class="st1" d="M293.2,152.2L293.2,152.2c0-8.8,6.6-16,16.1-16c5.8,0,9.3,1.9,12.1,4.8l-4.3,5c-2.4-2.2-4.8-3.5-7.9-3.5
		c-5.2,0-8.9,4.3-8.9,9.6v0.1c0,5.3,3.6,9.7,8.9,9.7c3.5,0,5.7-1.4,8.1-3.6l4.3,4.4c-3.2,3.4-6.7,5.5-12.6,5.5
		C300,168,293.2,161,293.2,152.2z"></path>
	<path class="st1" d="M327.2,136.7h6.8v30.8h-6.8V136.7z"></path>
	<path class="st1" d="M352.1,136.5h6.2l13.2,31h-7.1l-2.8-6.9h-13l-2.8,6.9h-6.9L352.1,136.5z M359.3,154.6l-4.1-10l-4.1,10H359.3z"></path>
	<path class="st1" d="M376.5,136.7h6.8v24.6h15.4v6.2h-22.1V136.7z"></path>
	<path class="st1" d="M415.8,136.7h7.3l6.4,20.9l6.9-20.9h5.8l6.9,20.9l6.4-20.9h7.1l-10.5,31h-5.9l-7-20.1l-7,20.1h-5.9
		L415.8,136.7z"></path>
	<path class="st1" d="M464.1,152.2L464.1,152.2c0-8.8,6.9-16,16.4-16c9.5,0,16.3,7.1,16.3,15.8v0.1c0,8.8-6.9,15.9-16.4,15.9
		C471,168,464.1,160.9,464.1,152.2z M489.8,152.2L489.8,152.2c0-5.4-3.9-9.8-9.3-9.8s-9.2,4.3-9.2,9.6v0.1c0,5.3,3.9,9.7,9.3,9.7
		S489.8,157.5,489.8,152.2z"></path>
	<path class="st1" d="M502.4,136.7h14.1c3.9,0,7,1.1,9,3.1c1.7,1.7,2.6,4.1,2.6,7v0.1c0,5-2.7,8.1-6.6,9.6l7.5,11h-7.9l-6.6-9.9
		h-5.3v9.9h-6.8L502.4,136.7L502.4,136.7z M516.1,151.7c3.3,0,5.2-1.8,5.2-4.4v-0.1c0-2.9-2-4.4-5.3-4.4h-6.7v8.9L516.1,151.7
		L516.1,151.7z"></path>
	<path class="st1" d="M534.8,136.7h6.8v13.5l12.5-13.5h8.2l-12.5,13.1l13.1,17.7h-8.1l-9.5-13.1l-3.6,3.7v9.4h-6.8V136.7z"></path>
	<path class="st1" d="M566.1,171.9c3-0.3,4.5-1.9,4.3-4.4h-2.7v-7h7.1v5.9c0,5.8-2.9,8.1-8.1,8.2L566.1,171.9z"></path>
	<path class="st1" d="M595.7,136.7h12.6c7.3,0,11.8,4.4,11.8,10.6v0.1c0,7.1-5.5,10.8-12.5,10.8h-5.2v9.2h-6.8L595.7,136.7
		L595.7,136.7z M607.9,152.2c3.4,0,5.4-2,5.4-4.7v-0.1c0-3-2.1-4.7-5.5-4.7h-5.2v9.4H607.9z"></path>
	<path class="st1" d="M624.3,152.2L624.3,152.2c0-8.8,6.9-16,16.4-16c9.5,0,16.3,7.1,16.3,15.8v0.1c0,8.8-6.9,15.9-16.4,15.9
		C631.2,168,624.3,160.9,624.3,152.2z M650,152.2L650,152.2c0-5.4-3.9-9.8-9.3-9.8s-9.2,4.3-9.2,9.6v0.1c0,5.3,3.9,9.7,9.3,9.7
		S650,157.5,650,152.2z"></path>
	<path class="st1" d="M662.6,136.7h6.8v24.6h15.4v6.2h-22.1V136.7z"></path>
	<path class="st1" d="M689.9,136.7h6.8v30.8h-6.8V136.7z"></path>
	<path class="st1" d="M703.2,152.2L703.2,152.2c0-8.8,6.6-16,16.1-16c5.8,0,9.3,1.9,12.2,4.8l-4.3,5c-2.4-2.2-4.8-3.5-7.9-3.5
		c-5.2,0-8.9,4.3-8.9,9.6v0.1c0,5.3,3.7,9.7,8.9,9.7c3.5,0,5.7-1.4,8.1-3.6l4.3,4.4c-3.2,3.4-6.7,5.5-12.6,5.5
		C709.9,168,703.2,161,703.2,152.2z"></path>
	<path class="st1" d="M745.9,155.4l-11.8-18.7h7.9l7.3,12.4l7.5-12.4h7.7l-11.8,18.5v12.3h-6.8L745.9,155.4L745.9,155.4z"></path>
	<path class="st1" d="M757.6,171.9c3-0.3,4.5-1.9,4.3-4.4h-2.7v-7h7.1v5.9c0,5.8-2.9,8.1-8.1,8.2L757.6,171.9z"></path>
	<path class="st1" d="M158.3,180.5h6.2l13.2,31h-7.1l-2.8-6.9h-13l-2.8,6.9h-6.9L158.3,180.5z M165.5,198.6l-4.1-10l-4.1,10H165.5z"></path>
	<path class="st1" d="M182.7,180.7h6.2l14.4,19v-19h6.7v30.8h-5.8l-14.9-19.6v19.6h-6.7V180.7z"></path>
	<path class="st1" d="M218.1,180.7h12c9.7,0,16.4,6.6,16.4,15.3v0.1c0,8.7-6.7,15.4-16.4,15.4h-12V180.7z M230.1,205.4
		c5.5,0,9.3-3.7,9.3-9.2v-0.1c0-5.5-3.7-9.3-9.3-9.3h-5.2v18.6L230.1,205.4L230.1,205.4z"></path>
	<path class="st1" d="M267,180.7h12.6c7.4,0,11.8,4.4,11.8,10.6v0.1c0,7.1-5.5,10.8-12.5,10.8h-5.1v9.2H267V180.7z M279.2,196.2
		c3.4,0,5.4-2,5.4-4.7v-0.1c0-3-2.1-4.7-5.5-4.7h-5.2v9.4H279.2z"></path>
	<path class="st1" d="M296.8,180.7h14.1c3.9,0,7,1.1,9,3.1c1.7,1.7,2.6,4.1,2.6,7v0.1c0,5-2.7,8.1-6.6,9.6l7.5,11h-7.9l-6.6-9.9
		h-5.3v9.9h-6.8L296.8,180.7L296.8,180.7z M310.4,195.7c3.3,0,5.2-1.8,5.2-4.4v-0.1c0-2.9-2-4.4-5.3-4.4h-6.7v8.9L310.4,195.7
		L310.4,195.7z"></path>
	<path class="st1" d="M340.4,180.5h6.2l13.2,31h-7.1l-2.8-6.9h-13l-2.8,6.9h-6.9L340.4,180.5z M347.5,198.6l-4.1-10l-4.1,10H347.5z"></path>
	<path class="st1" d="M361.6,196.2L361.6,196.2c0-8.8,6.6-16,16.1-16c5.8,0,9.3,1.9,12.1,4.8l-4.3,5c-2.4-2.2-4.8-3.5-7.9-3.5
		c-5.2,0-8.9,4.3-8.9,9.6v0.1c0,5.3,3.6,9.7,8.9,9.7c3.5,0,5.7-1.4,8.1-3.6l4.3,4.4c-3.2,3.4-6.7,5.5-12.6,5.5
		C368.3,212,361.6,205,361.6,196.2z"></path>
	<path class="st1" d="M403.4,186.9H394v-6.2h25.5v6.2h-9.4v24.6h-6.8V186.9z"></path>
	<path class="st1" d="M424.8,180.7h6.8v30.8h-6.8V180.7z"></path>
	<path class="st1" d="M438.1,196.2L438.1,196.2c0-8.8,6.6-16,16.1-16c5.8,0,9.3,1.9,12.1,4.8l-4.3,5c-2.4-2.2-4.8-3.5-7.9-3.5
		c-5.2,0-8.9,4.3-8.9,9.6v0.1c0,5.3,3.6,9.7,8.9,9.7c3.5,0,5.7-1.4,8.1-3.6l4.3,4.4c-3.2,3.4-6.7,5.5-12.6,5.5
		C444.8,212,438.1,205,438.1,196.2z"></path>
	<path class="st1" d="M471.9,180.7h23.2v6h-16.5v6.2h14.5v6h-14.5v6.5h16.7v6h-23.5V180.7z"></path>
</g>
<g id="primary">
	<g>
		<g>
			<path class="st1" d="M153.6,53.2H148v-3.7h15.1v3.7h-5.5v14.5h-4L153.6,53.2L153.6,53.2z"></path>
			<path class="st1" d="M167.1,49.5h4v7.2h7.4v-7.2h4v18.2h-4v-7.3h-7.4v7.3h-4V49.5z"></path>
			<path class="st1" d="M187.7,49.5h13.7v3.6h-9.8v3.7h8.6v3.6h-8.6v3.8h9.9v3.6h-13.9V49.5z"></path>
			<path class="st1" d="M214.5,59.9V49.5h4v10.3c0,3,1.5,4.5,3.9,4.5c2.4,0,3.9-1.5,3.9-4.4V49.5h4v10.3c0,5.5-3.1,8.2-8,8.2
				S214.5,65.2,214.5,59.9z"></path>
			<path class="st1" d="M235.4,49.5h3.7l8.5,11.2V49.5h3.9v18.2h-3.4l-8.8-11.6v11.6h-3.9V49.5z"></path>
			<path class="st1" d="M257,49.5h4v18.2h-4V49.5z"></path>
			<path class="st1" d="M264.9,49.5h4.4l4.8,12.8l4.8-12.8h4.3l-7.4,18.3h-3.5L264.9,49.5z"></path>
			<path class="st1" d="M286.9,49.5h13.7v3.6h-9.8v3.7h8.6v3.6h-8.6v3.8h9.9v3.6h-13.9L286.9,49.5L286.9,49.5z"></path>
			<path class="st1" d="M305.2,49.5h8.3c2.3,0,4.1,0.7,5.3,1.8c1,1,1.6,2.4,1.6,4.2v0c0,2.9-1.6,4.8-3.9,5.6l4.5,6.5h-4.7l-3.9-5.8
				h-3.1v5.8h-4L305.2,49.5L305.2,49.5z M313.2,58.3c2,0,3.1-1,3.1-2.6v0c0-1.7-1.2-2.6-3.1-2.6h-4v5.2L313.2,58.3L313.2,58.3z"></path>
			<path class="st1" d="M323.6,65l2.4-2.8c1.6,1.3,3.4,2.2,5.4,2.2c1.6,0,2.6-0.7,2.6-1.7v0c0-1-0.6-1.5-3.7-2.3c-3.7-0.9-6-2-6-5.6
				v0c0-3.3,2.6-5.5,6.4-5.5c2.6,0,4.9,0.8,6.8,2.3l-2.1,3c-1.6-1.1-3.2-1.8-4.7-1.8s-2.3,0.7-2.3,1.6v0c0,1.2,0.8,1.6,3.9,2.4
				c3.7,1,5.8,2.3,5.8,5.5v0c0,3.6-2.8,5.6-6.7,5.6C328.6,67.9,325.8,67,323.6,65z"></path>
			<path class="st1" d="M342.6,49.5h4v18.2h-4V49.5z"></path>
			<path class="st1" d="M356.3,53.2h-5.5v-3.7h15.1v3.7h-5.5v14.5h-4L356.3,53.2L356.3,53.2z"></path>
			<path class="st1" d="M375,60.5l-7-11h4.7l4.3,7.3l4.4-7.3h4.5l-7,11v7.2h-4L375,60.5L375,60.5z"></path>
			<path class="st1" d="M397.3,58.7L397.3,58.7c0-5.2,4.1-9.5,9.7-9.5s9.6,4.2,9.6,9.4v0c0,5.2-4.1,9.4-9.7,9.4
				S397.3,63.8,397.3,58.7z M412.4,58.7L412.4,58.7c0-3.2-2.3-5.8-5.5-5.8s-5.5,2.5-5.5,5.7v0c0,3.1,2.3,5.7,5.5,5.7
				C410.2,64.3,412.4,61.8,412.4,58.7z"></path>
			<path class="st1" d="M421.1,49.5h13.9v3.6h-9.9V57h8.7v3.6h-8.7v7.1h-4L421.1,49.5L421.1,49.5z"></path>
			<path class="st1" d="M447,58.7L447,58.7c0-5.2,3.9-9.5,9.5-9.5c3.4,0,5.5,1.1,7.2,2.8l-2.5,2.9c-1.4-1.3-2.8-2-4.6-2
				c-3.1,0-5.3,2.5-5.3,5.7v0c0,3.1,2.2,5.7,5.3,5.7c2.1,0,3.4-0.8,4.8-2.1l2.5,2.6c-1.9,2-4,3.2-7.5,3.2
				C450.9,68,447,63.9,447,58.7z"></path>
			<path class="st1" d="M467.9,49.5h4v7.2h7.4v-7.2h4v18.2h-4v-7.3h-7.4v7.3h-4V49.5z"></path>
			<path class="st1" d="M488.7,49.5h4v18.2h-4V49.5z"></path>
			<path class="st1" d="M497.4,58.7L497.4,58.7c0-5.2,3.9-9.5,9.5-9.5c3.4,0,5.5,1.1,7.2,2.8l-2.5,2.9c-1.4-1.3-2.8-2-4.6-2
				c-3.1,0-5.3,2.5-5.3,5.7v0c0,3.1,2.2,5.7,5.3,5.7c2.1,0,3.4-0.8,4.8-2.1l2.5,2.6c-1.9,2-4,3.2-7.5,3.2
				C501.4,68,497.4,63.9,497.4,58.7z"></path>
			<path class="st1" d="M524.5,49.4h3.7l7.8,18.3h-4.2l-1.7-4.1h-7.7l-1.7,4.1h-4.1L524.5,49.4z M528.7,60.1l-2.4-5.9l-2.4,5.9
				H528.7z"></path>
			<path class="st1" d="M537.8,58.7L537.8,58.7c0-5.2,4-9.5,9.5-9.5c3.3,0,5.2,0.9,7.2,2.5l-2.5,3c-1.4-1.2-2.7-1.8-4.8-1.8
				c-2.9,0-5.2,2.6-5.2,5.7v0c0,3.3,2.3,5.8,5.5,5.8c1.5,0,2.8-0.4,3.8-1.1v-2.6h-4v-3.5h7.9v7.9c-1.9,1.6-4.5,2.9-7.8,2.9
				C541.7,68,537.8,64,537.8,58.7z"></path>
			<path class="st1" d="M559,58.7L559,58.7c0-5.2,4.1-9.5,9.7-9.5s9.7,4.2,9.7,9.4v0c0,5.2-4.1,9.4-9.7,9.4S559,63.8,559,58.7z
				 M574.2,58.7L574.2,58.7c0-3.2-2.3-5.8-5.5-5.8s-5.5,2.5-5.5,5.7v0c0,3.1,2.3,5.7,5.5,5.7C572,64.3,574.2,61.8,574.2,58.7z"></path>
		</g>
	</g>
	<g>
		<g>
			<path class="st1" d="M153.9,223.8h3l8,18.3h-3.4l-1.9-4.4H151l-1.9,4.4h-3.3L153.9,223.8z M158.5,234.9l-3.1-7.3l-3.1,7.3H158.5z
				"></path>
			<path class="st1" d="M167,235.3L167,235.3c0-4.6,3.1-7.2,6.4-7.2c2.3,0,3.7,1.1,4.7,2.4v-7.4h3.1v19H178v-2.3
				c-1,1.4-2.4,2.6-4.7,2.6C170.1,242.4,167,239.8,167,235.3z M178.1,235.3L178.1,235.3c0-2.7-1.9-4.4-4-4.4c-2.2,0-3.9,1.7-3.9,4.4
				v0.1c0,2.6,1.8,4.4,3.9,4.4C176.2,239.7,178.1,237.9,178.1,235.3z"></path>
			<path class="st1" d="M184.2,228.4h3.4l3.7,10.1l3.7-10.1h3.3l-5.6,13.8h-2.8L184.2,228.4z"></path>
			<path class="st1" d="M209.6,242.1v-1.7c-0.9,1.1-2.4,2-4.4,2c-2.6,0-4.9-1.5-4.9-4.2v-0.1c0-3,2.4-4.5,5.6-4.5
				c1.7,0,2.7,0.2,3.8,0.6v-0.3c0-1.9-1.2-2.9-3.4-2.9c-1.5,0-2.7,0.3-3.9,0.9l-0.9-2.5c1.5-0.7,3-1.1,5.2-1.1c4.1,0,6,2.1,6,5.8
				v8.1L209.6,242.1L209.6,242.1z M209.6,236.4c-0.8-0.3-1.9-0.6-3.1-0.6c-2,0-3.1,0.8-3.1,2.1v0.1c0,1.3,1.2,2,2.6,2
				c2.1,0,3.6-1.2,3.6-2.9L209.6,236.4L209.6,236.4z"></path>
			<path class="st1" d="M217.1,228.4h3.1v2.1c0.9-1.3,2.2-2.4,4.3-2.4c3.1,0,4.9,2.1,4.9,5.3v8.7h-3.1v-7.8c0-2.1-1.1-3.4-2.9-3.4
				c-1.8,0-3.1,1.3-3.1,3.4v7.8h-3.1V228.4z"></path>
			<path class="st1" d="M233,235.3L233,235.3c0-3.9,3-7.2,7.1-7.2c2.6,0,4.2,1,5.5,2.4l-1.9,2.1c-1-1-2-1.7-3.6-1.7
				c-2.3,0-3.9,2-3.9,4.4v0.1c0,2.4,1.7,4.4,4.1,4.4c1.5,0,2.6-0.7,3.6-1.7l1.9,1.9c-1.4,1.5-2.9,2.6-5.6,2.6
				C236,242.4,233,239.2,233,235.3z"></path>
			<path class="st1" d="M248.9,223.3h3.4v3h-3.4V223.3z M249.1,228.4h3.1v13.7h-3.1V228.4z"></path>
			<path class="st1" d="M256.8,228.4h3.1v2.1c0.9-1.3,2.2-2.4,4.3-2.4c3.1,0,4.9,2.1,4.9,5.3v8.7H266v-7.8c0-2.1-1.1-3.4-2.9-3.4
				c-1.8,0-3.1,1.3-3.1,3.4v7.8h-3.1L256.8,228.4L256.8,228.4z"></path>
			<path class="st1" d="M273.4,244.7l1.2-2.4c1.5,0.9,3,1.5,4.9,1.5c2.8,0,4.3-1.5,4.3-4.2v-1.1c-1.1,1.5-2.6,2.5-4.8,2.5
				c-3.2,0-6.2-2.4-6.2-6.4v-0.1c0-4.1,3-6.4,6.2-6.4c2.3,0,3.7,1.1,4.8,2.3v-2.1h3.1v10.9c0,2.3-0.6,4-1.7,5.2
				c-1.2,1.2-3.2,1.9-5.6,1.9C277.3,246.3,275.2,245.8,273.4,244.7z M283.9,234.6L283.9,234.6c0-2.3-1.9-3.9-4-3.9s-3.9,1.5-3.9,3.8
				v0.1c0,2.3,1.7,3.8,3.9,3.8C282,238.4,283.9,236.8,283.9,234.6z"></path>
			<path class="st1" d="M308.4,242.1v-1.7c-0.9,1.1-2.4,2-4.5,2c-2.6,0-4.9-1.5-4.9-4.2v-0.1c0-3,2.4-4.5,5.6-4.5
				c1.7,0,2.7,0.2,3.8,0.6v-0.3c0-1.9-1.2-2.9-3.4-2.9c-1.5,0-2.7,0.3-3.9,0.9l-0.9-2.5c1.5-0.7,3-1.1,5.2-1.1c4.1,0,6,2.1,6,5.8
				v8.1L308.4,242.1L308.4,242.1z M308.5,236.4c-0.8-0.3-1.9-0.6-3.1-0.6c-2,0-3.1,0.8-3.1,2.1v0.1c0,1.3,1.2,2,2.6,2
				c2.1,0,3.6-1.2,3.6-2.9L308.5,236.4L308.5,236.4z"></path>
			<path class="st1" d="M324.7,223.9h3.4l5.5,8.6l5.5-8.6h3.4v18.2h-3.2v-13.1l-5.8,8.6h-0.1l-5.7-8.5v13h-3.1L324.7,223.9
				L324.7,223.9z"></path>
			<path class="st1" d="M346.8,235.3L346.8,235.3c0-4,3.1-7.2,7.3-7.2s7.3,3.2,7.3,7.1v0.1c0,3.9-3.1,7.1-7.4,7.1
				C349.9,242.4,346.8,239.2,346.8,235.3z M358.3,235.3L358.3,235.3c0-2.5-1.7-4.5-4.2-4.5c-2.5,0-4.1,2-4.1,4.4v0.1
				c0,2.4,1.7,4.4,4.2,4.4C356.7,239.7,358.3,237.7,358.3,235.3z"></path>
			<path class="st1" d="M365.2,228.4h3.1v3.1c0.9-2.1,2.4-3.5,4.9-3.4v3.3H373c-2.8,0-4.7,1.8-4.7,5.4v5.2h-3.1V228.4z"></path>
			<path class="st1" d="M375.5,235.3L375.5,235.3c0-4,2.8-7.2,6.7-7.2c4.4,0,6.6,3.4,6.6,7.4c0,0.3,0,0.6,0,0.9h-10.1
				c0.3,2.2,1.9,3.5,4,3.5c1.5,0,2.6-0.6,3.7-1.6l1.9,1.6c-1.3,1.6-3.1,2.6-5.6,2.6C378.6,242.4,375.5,239.6,375.5,235.3z
				 M385.7,234.3c-0.2-2-1.4-3.6-3.5-3.6c-1.9,0-3.3,1.5-3.6,3.6H385.7z"></path>
			<path class="st1" d="M399.6,239.4l2.1-2.2c1.1,1.4,2.1,2.1,3.7,2.1c1.7,0,2.9-1.1,2.9-3.6v-11.9h3.3v12c0,2.2-0.6,3.8-1.7,4.8
				c-1.1,1.1-2.6,1.6-4.4,1.6C402.6,242.4,400.8,241.1,399.6,239.4z"></path>
			<path class="st1" d="M416.2,237.1v-8.7h3.1v7.8c0,2.1,1.1,3.4,2.9,3.4c1.8,0,3.1-1.3,3.1-3.4v-7.8h3.1v13.7h-3.1V240
				c-0.9,1.3-2.2,2.4-4.3,2.4C418,242.4,416.2,240.3,416.2,237.1z"></path>
			<path class="st1" d="M432,240.3l1.4-2.1c1.5,1.1,3.1,1.7,4.5,1.7c1.4,0,2.1-0.6,2.1-1.5v-0.1c0-1.1-1.5-1.4-3.1-1.9
				c-2-0.6-4.3-1.4-4.3-4v-0.1c0-2.6,2.2-4.2,4.9-4.2c1.7,0,3.6,0.6,5,1.6l-1.2,2.2c-1.3-0.8-2.7-1.3-3.9-1.3
				c-1.2,0-1.9,0.6-1.9,1.4v0.1c0,1,1.5,1.4,3.1,1.9c2,0.6,4.3,1.5,4.3,4v0.1c0,2.9-2.2,4.3-5.1,4.3
				C435.9,242.4,433.7,241.7,432,240.3z"></path>
			<path class="st1" d="M447.3,238.3v-7.2h-1.7v-2.7h1.7v-3.8h3.1v3.8h3.7v2.7h-3.7v6.7c0,1.2,0.6,1.7,1.7,1.7c0.7,0,1.3-0.2,2-0.5
				v2.6c-0.8,0.4-1.7,0.7-2.8,0.7C449,242.4,447.3,241.4,447.3,238.3z"></path>
			<path class="st1" d="M474.8,242.1v-1.7c-0.9,1.1-2.4,2-4.5,2c-2.6,0-4.9-1.5-4.9-4.2v-0.1c0-3,2.4-4.5,5.6-4.5
				c1.7,0,2.7,0.2,3.8,0.6v-0.3c0-1.9-1.2-2.9-3.4-2.9c-1.5,0-2.7,0.3-3.9,0.9l-0.9-2.5c1.5-0.7,3-1.1,5.2-1.1c4.1,0,6,2.1,6,5.8
				v8.1L474.8,242.1L474.8,242.1z M474.9,236.4c-0.8-0.3-1.9-0.6-3.1-0.6c-2,0-3.1,0.8-3.1,2.1v0.1c0,1.3,1.2,2,2.6,2
				c2.1,0,3.6-1.2,3.6-2.9L474.9,236.4L474.9,236.4z"></path>
			<path class="st1" d="M482.3,228.4h3.1v2.1c0.9-1.3,2.2-2.4,4.3-2.4c3.1,0,4.9,2.1,4.9,5.3v8.7h-3.1v-7.8c0-2.1-1.1-3.4-2.9-3.4
				c-1.8,0-3.1,1.3-3.1,3.4v7.8h-3.1L482.3,228.4L482.3,228.4z"></path>
			<path class="st1" d="M498.3,235.3L498.3,235.3c0-4.6,3.1-7.2,6.4-7.2c2.3,0,3.7,1.1,4.7,2.4v-7.4h3.1v19h-3.1v-2.3
				c-1,1.4-2.4,2.6-4.7,2.6C501.5,242.4,498.3,239.8,498.3,235.3z M509.4,235.3L509.4,235.3c0-2.7-1.9-4.4-4-4.4c-2.2,0-4,1.7-4,4.4
				v0.1c0,2.6,1.8,4.4,4,4.4C507.6,239.7,509.4,237.9,509.4,235.3z"></path>
			<path class="st1" d="M525.9,223.9h3.2v7.6h8.7v-7.6h3.2v18.2h-3.2v-7.7h-8.7v7.7h-3.2V223.9z"></path>
			<path class="st1" d="M545.9,237.1v-8.7h3.2v7.8c0,2.1,1.1,3.4,2.9,3.4c1.8,0,3.1-1.3,3.1-3.4v-7.8h3.2v13.7h-3.2V240
				c-0.9,1.3-2.2,2.4-4.3,2.4C547.7,242.4,545.9,240.3,545.9,237.1z"></path>
			<path class="st1" d="M562.8,228.4h3.2v2.1c0.9-1.2,2.1-2.4,4.2-2.4c2,0,3.3,1,4.1,2.4c1.1-1.5,2.6-2.4,4.7-2.4
				c3,0,4.8,1.9,4.8,5.2v8.8h-3.2v-7.8c0-2.2-1-3.4-2.8-3.4c-1.7,0-2.9,1.2-2.9,3.4v7.8h-3.2v-7.8c0-2.1-1-3.3-2.8-3.3
				s-2.9,1.3-2.9,3.4v7.7h-3.2L562.8,228.4L562.8,228.4z"></path>
			<path class="st1" d="M596.5,242.1v-1.7c-0.9,1.1-2.4,2-4.5,2c-2.6,0-4.9-1.5-4.9-4.2v-0.1c0-3,2.4-4.5,5.6-4.5
				c1.7,0,2.7,0.2,3.8,0.6v-0.3c0-1.9-1.2-2.9-3.4-2.9c-1.5,0-2.7,0.3-3.9,0.9l-0.9-2.5c1.5-0.7,3-1.1,5.2-1.1c4.1,0,6,2.1,6,5.8
				v8.1L596.5,242.1L596.5,242.1z M596.6,236.4c-0.8-0.3-1.9-0.6-3.2-0.6c-2,0-3.2,0.8-3.2,2.1v0.1c0,1.3,1.2,2,2.7,2
				c2.1,0,3.6-1.2,3.6-2.9L596.6,236.4L596.6,236.4z"></path>
			<path class="st1" d="M604,228.4h3.2v2.1c0.9-1.3,2.2-2.4,4.3-2.4c3.1,0,4.9,2.1,4.9,5.3v8.7h-3.2v-7.8c0-2.1-1.1-3.4-2.9-3.4
				c-1.8,0-3.1,1.3-3.1,3.4v7.8H604V228.4z"></path>
			<path class="st1" d="M620,235.3L620,235.3c0-4,2.8-7.2,6.7-7.2c4.4,0,6.6,3.4,6.6,7.4c0,0.3,0,0.6,0,0.9h-10.1
				c0.3,2.2,1.9,3.5,4,3.5c1.5,0,2.6-0.6,3.7-1.6l1.8,1.6c-1.3,1.6-3.1,2.6-5.6,2.6C623,242.4,620,239.6,620,235.3z M630.1,234.3
				c-0.2-2-1.4-3.6-3.5-3.6c-1.9,0-3.3,1.5-3.6,3.6H630.1z"></path>
			<path class="st1" d="M644.7,239.5l1.9-2.3c1.7,1.5,3.5,2.4,5.8,2.4c2,0,3.2-0.9,3.2-2.3v-0.1c0-1.3-0.7-2-4.1-2.8
				c-3.9-0.9-6.1-2.1-6.1-5.4V229c0-3.1,2.6-5.3,6.2-5.3c2.7,0,4.8,0.8,6.6,2.3l-1.7,2.4c-1.6-1.2-3.3-1.9-4.9-1.9c-1.9,0-3,1-3,2.2
				v0.1c0,1.4,0.8,2,4.3,2.9c3.8,0.9,5.8,2.3,5.8,5.3v0.1c0,3.4-2.7,5.4-6.5,5.4C649.5,242.4,646.9,241.4,644.7,239.5z"></path>
			<path class="st1" d="M662,235.3L662,235.3c0-4,3.1-7.2,7.3-7.2s7.3,3.2,7.3,7.1v0.1c0,3.9-3.1,7.1-7.4,7.1
				C665,242.4,662,239.2,662,235.3z M673.5,235.3L673.5,235.3c0-2.5-1.7-4.5-4.2-4.5c-2.5,0-4.1,2-4.1,4.4v0.1
				c0,2.4,1.7,4.4,4.2,4.4C671.8,239.7,673.5,237.7,673.5,235.3z"></path>
			<path class="st1" d="M679.6,235.3L679.6,235.3c0-3.9,3-7.2,7.1-7.2c2.6,0,4.2,1,5.5,2.4l-2,2.1c-1-1-2-1.7-3.6-1.7
				c-2.3,0-4,2-4,4.4v0.1c0,2.4,1.7,4.4,4.1,4.4c1.5,0,2.6-0.7,3.6-1.7l1.9,1.9c-1.3,1.5-2.9,2.6-5.6,2.6
				C682.6,242.4,679.6,239.2,679.6,235.3z"></path>
			<path class="st1" d="M695.5,223.3h3.4v3h-3.4V223.3z M695.6,228.4h3.2v13.7h-3.2V228.4z"></path>
			<path class="st1" d="M702.5,235.3L702.5,235.3c0-4,2.8-7.2,6.7-7.2c4.4,0,6.6,3.4,6.6,7.4c0,0.3,0,0.6,0,0.9h-10.1
				c0.3,2.2,1.9,3.5,4,3.5c1.5,0,2.6-0.6,3.7-1.6l1.8,1.6c-1.3,1.6-3.1,2.6-5.6,2.6C705.6,242.4,702.5,239.6,702.5,235.3z
				 M712.7,234.3c-0.2-2-1.4-3.6-3.5-3.6c-1.9,0-3.3,1.5-3.6,3.6H712.7z"></path>
			<path class="st1" d="M720,238.3v-7.2h-1.7v-2.7h1.7v-3.8h3.2v3.8h3.7v2.7h-3.7v6.7c0,1.2,0.6,1.7,1.7,1.7c0.7,0,1.3-0.2,2-0.5
				v2.6c-0.8,0.4-1.7,0.7-2.8,0.7C721.6,242.4,720,241.4,720,238.3z"></path>
			<path class="st1" d="M730.4,245.5l1.1-2.3c0.6,0.3,1.2,0.5,1.8,0.5c0.9,0,1.4-0.4,2-1.6l-5.7-13.7h3.3l3.9,10.2l3.6-10.2h3.3
				l-5.5,14.1c-1.1,2.8-2.3,3.9-4.5,3.9C732.3,246.4,731.3,246.1,730.4,245.5z"></path>
		</g>
	</g>
</g>
<g>
	<path class="st1" d="M67,113.2c-0.7-0.3-1.5-0.5-2.1-0.9c0.5,1.5,0.8,2.9,1.6,4.5C67.1,117.7,67.9,115.5,67,113.2 M64.9,87.5
		L64.9,87.5c0,2.1-5.8,5.1-8.3,6.5c3.9,1.3,7.5-2.3,7.1-1.4c-0.5,1-5.2,5.1-7.3,7.3c1.6,0.4,3.1-0.8,4.2-1.8
		c1.3-1.1,3.4-3.8,3.1-2.4c-3.4,4.2-6.1,13-4.5,13.6c1-2,4.9-12.2,5.1-12.1c0.3,0.1-0.3,2.7-0.4,4.4c-0.2,3.8-0.2,5.6,0.6,9.4
		c0.4-0.6,0.8-0.6,1.5-0.5c0.1-0.4,0.1-0.3-0.4-0.8c-1.1-1.5,0.2-3.4-0.4-4.6c-0.4-1-0.7-0.2-0.9-1.3c0.3-0.3,1.1-0.4,1.5-0.4
		c0.4-3.9,1.7-5.9,1.2-3.5c-0.3,1.3-0.6,3.3-0.5,3.4c0.2,0.1,0.2,0.1,0.4,0.1c0.1,0,6.6-10.7,3-3.3c-0.5,1-2.4,3.6-2.4,3.6
		c0.5,0.5,1,1.1,1.1,1.5c0,0.1,8.8-11.5,2.8-2.2c-0.4,0.6-2.2,2.5-2.6,3c-0.1,0.1,0.2,2.2,0.2,2.2c0.9-0.6,2.2-1.9,2.8-2.7
		c-0.1-1.2,0.2-1,0.3-2.2c0.3-0.2,0.6,0.3,1.1,0.7c0.2,0.2,6-9.9,2.4-2.3c-0.6,1.2-1.9,2.7-1.9,2.8c0.2,0.3,0.6,1.1,1,2.1
		c0,0,7.8-11.2,3.1-2.7c-0.4,0.7-2.7,3.5-2.7,3.5c0.6,1.4,1.1,2.8,1.1,2.8c-0.1-1.1-0.4-3.2,1.9-5c0.3,1.9,0.8,2,1.5,2.6
		c0.3,0.3,0.8,1.4,0.9,0.4c0.2-2.8-0.7-2.7-1.4-3.9c-0.2-0.3-0.1-0.9,0-0.9c5.6,0.2,5.4,5.4,6.3,5.4c-0.4-1.3-0.5-2.6,0-3.7
		c-1.5-1.1-1.1-2.9-0.8-3.7c-1.7-1.7-0.7-5.4,0.1-6.2c-1.1-1.6,0.3-2.6,0-3.6c-0.5-3.4-3.5-2.4-4.2-5.6c-0.5,0.6-1.4,2.5-0.9,3.2
		c0.5,0.7,1.5,0.8,1.5,1.4c0,0.2,0.1,0.9-0.1,1c-0.6,0.1-1-0.4-1.6-0.7c-1.2-0.5-4,1.5-4.2-0.2c-0.1-1.1,0.4-0.3,0.3-1.3
		c0-1-0.6-0.3-0.6-1.6c0-1,1.2-1.3,1.3-1.7c0.2-1,2,1.4,3-1.1c-0.6,0.1-1.8-0.3-1.7-0.9c0.3-1.6,0.3-5.5-3.3-4.6
		c-1.3,0.3-4.9,2.2-5.4,0.1c-1.3,2.3,1.3,1.9,2,1.9c-0.3,0.2-0.7,0.6-1.7,0.4c-2,1.3-9.5,6.1-11.6,7.2
		C60.4,90.3,64.8,87.5,64.9,87.5 M71.9,106.5c-1,1-1.4,1-1.3,1.5c0.2,0.6,0.7,1,1.1,1.6c0.6,0.5,0.8,0.9,0.4-0.5
		C71.8,108.1,71.9,107.5,71.9,106.5 M88.1,84.5c-0.2-0.4-0.5-0.8-0.9-1c-1.8-0.9-5.3,1-5.2-1.7c0,0-1.2,0.9-0.7,1.9
		C82.6,85.9,86.1,83.2,88.1,84.5 M60.9,57.5c-3,0-3.1,4.6,0,4.6C64,62.1,64,57.5,60.9,57.5 M60.9,66.7c-3.2,0-3.2,4.6,0,4.6
		C64,71.4,64,66.7,60.9,66.7 M64.1,61.4h2.7v-2.6h-2.7V61.4z M64.1,70.6h2.7V68h-2.7V70.6z M71.4,67.7c-1.2,0.7-1,1.6-0.6,2.1
		c0.2-0.2,1-0.7,1.3-1C72,68.7,71.6,68,71.4,67.7 M74.2,63.6c0-0.3,0-0.5,0-0.6c0-0.2-0.4-0.8-0.5-0.8c-0.1,0-0.4,0.3-0.6,0.5
		c-0.1,0.2-0.1,0.6,0.1,0.8C73.5,64,73.7,64,74.2,63.6 M74.2,64.9c0-0.1,0-0.2,0-0.3c0-0.1,0-0.4,0-0.8c-0.4,0.2-0.5,0.4-0.9,0.2
		c-0.6,0.5,0.3,0.8,0.5,1C74,65,74.1,64.9,74.2,64.9 M79.2,57.5c0.2-0.2,0.7-0.7,1-1.1c-0.2-0.1-0.5-0.3-0.6-0.7
		C79,56.2,78.9,56.6,79.2,57.5 M83.5,58.1c-0.4,0.3-0.7,0.5-0.8,0.7c0.1,0.2,1,0.8,1.4,0.6c0.5-0.2,0.7-0.7,0.2-0.9
		C84,58.3,83.7,58.2,83.5,58.1 M83.8,57.3c0.2-0.2,0.4-0.3,0.5-0.4c-0.3-0.3-0.9-0.6-1.1-0.6c-0.2,0-0.7,0.2-0.5,0.4
		c0.2,0.2,0.4,0.5,0.8,0.6C83.6,57.4,83.7,57.4,83.8,57.3 M85.1,69.3c0-0.3,0-0.6,0-0.8c0-0.2-0.7-0.7-0.8-0.7
		c-0.2,0-0.2,0.1-0.3,0.4c-0.1,0.2,0,0.6,0.1,0.7C84.4,69.2,84.7,69.3,85.1,69.3 M84.1,69.4c-0.6,0.5,0.1,1,0.3,1.2
		c0.2-0.1,0.5-0.2,0.7-0.2c0-0.1-0.1-0.2-0.1-0.3c0-0.1,0-0.3,0-0.5C84.6,69.6,84.4,69.6,84.1,69.4 M82.7,70.2l-0.4,0.4L81.9,71
		c-0.3-0.3-0.5-0.4-0.6-0.6l0-1.9l-0.6-0.3c-0.3,0.2-0.5,0.1-0.3-0.1l0.9-0.8l0.2,0l0.6,0.9l0,1.8C82.4,70.1,82.2,70.1,82.7,70.2
		 M82.5,64.3c-0.3-0.8,0.2-1.6,0.5-1.9c0.2-0.2,0.7-0.6,1-0.8c0.3,0.2,0.6,0.3,0.7,0.4c-0.1,0.2-0.1,0.5-0.5,0.5
		c-0.5,0-0.9-0.1-1.2,0.2c-0.3,0.3-0.1,1.1,0.3,1.4c0.3,0.2,1,0.6,1.1,0.3c0.2-0.4,0.4-0.2,0.2,0.1c-0.2,0.2-0.5,0.7-0.6,1
		C83.5,65.5,82.8,65.2,82.5,64.3 M83.2,70.3c0-0.5,0.2-0.8,0.6-1.2c0,0,0,0-0.1,0c-0.1-0.1-0.2-0.9-0.1-1.1c0.2-0.2,0.9-0.9,1.4-1
		c0.3,0,0.8,0.7,1.1,1c-0.1,0.1,0.1,2.1,0.1,2.3c0.1,0.2,0.5,0.3,0.6,0.1c0.1-0.2,0.3,0,0.1,0.1c-0.1,0.1-0.6,0.5-0.8,0.7
		c-0.2-0.2-0.6-0.4-0.8-0.7c-0.5,0.1-1,0.5-1.4,0.8C83.4,71.2,83.2,70.8,83.2,70.3 M87.3,65.2l-0.4,0.4l-0.5,0.4
		c-0.3-0.3-0.5-0.4-0.5-0.6l0-2l-0.5-0.3c-0.3,0.2-0.5,0.1-0.2-0.1l0.9-0.8l0.2,0l0.4,0.6l0,2.1C86.8,65.1,86.8,65.1,87.3,65.2
		 M86.8,58.7c-1.1-0.1-0.8-0.5-0.6-0.4C87.2,58.3,87,58.8,86.8,58.7 M86.8,58.1c-1.1,0-0.8-0.5-0.6-0.4C87.1,57.7,87,58.1,86.8,58.1
		 M85.9,60.4l0.5,0.5v0.5L86,61.7h-0.3l-0.3-0.3l0-0.6L85.9,60.4z M85.4,56.4c-0.1,0.1-0.5,0.5-1,0.9c0.1,0,0.1,0,0.2,0.1
		c0.8,0.5,1.1,1.1,0.3,1.7c-0.4,0.3-1.1,0.7-1.9,0.7c-0.5,0-1.4-0.4-1.5-0.6c0.4-0.4,0.8-0.8,1.2-1.1c-0.5-0.4-1-0.9-0.6-1.5
		c0.3-0.4,1.2-1.1,1.9-1.1C84.8,55.7,85.1,56.2,85.4,56.4 M81.3,59c-0.2,0.1-0.6,0.6-1,0.6c-1,0-2.4-0.8-2.2-2.2
		c0.2-1.5,1.4-2,1.8-2c0.6,0,0.7,0.5,1,0.8c-0.5,0.4-1.3,1.2-1.7,1.6c0.1,0.2,0.7,1.2,1.8,0.9C81.6,58.5,81.7,58.8,81.3,59
		 M77.8,56.7c-0.2,0.2-0.6,0.5-0.8,0.6c-0.2-0.1-0.5-0.5-0.6-0.6c-0.1,0.1-0.2,0.1-0.3,0.2c0,0.3,0,2.6,0,2.9c-0.3,0-0.6,0-0.9,0
		c0-0.3,0-2.2,0-2.5c0-0.4-0.4-0.4-0.8-0.5c0.2-0.3,0.7-0.6,0.9-0.8c0.4,0.3,0.6,0.3,0.8,0.5c0.2-0.1,0.7-0.4,0.9-0.6
		c0.2,0.2,0.5,0.6,0.6,0.7C77.8,56.3,78,56.5,77.8,56.7 M74.2,61.6c0.3,0,0.6,0.6,0.9,1C75,62.6,75,64.6,75,64.8
		c0.1,0.1,0.3,0.2,0.4,0.2c0.2-0.2,0.3,0,0.1,0.1c-0.1,0.1-0.8,0.7-0.9,0.9c-0.2-0.2-0.3-0.4-0.3-0.8c-0.4,0.1-0.8,0.3-1,0.7
		c-0.4-0.2-0.8-0.6-0.8-1c0-0.5,0.3-0.7,0.6-1c-0.1,0-0.1-0.1-0.2-0.1c-0.1-0.1-0.2-0.8-0.1-1C73,62.2,73.7,61.6,74.2,61.6
		 M73.5,60.5c-0.1-0.2-0.2-0.4-0.5-0.3c-0.8,0.2-1.6,0.5-2.2,0.1c-0.6-0.4-1.2-0.5-1.2-2c0-0.9,0.8-1.6,1.3-1.9
		c0.6-0.3,1.6-0.1,2.1,0c0.2,0.1,0.4,0,0.4-0.2c0-0.2,0.2-0.1,0.2,0c0,0.1,0,2,0,2.1c0,0.1-0.3,0.2-0.3,0c0-0.2-0.1-0.6-0.1-0.9
		c-0.1-0.5-1.4-1.4-2.3-0.2c0,0.1-0.4,0.7-0.3,1.2c0,0.4,0.1,0.9,0.3,1.2c0.7,1,1.7,0.7,2.3-0.2c0.2-0.3,0.2-0.7,0.2-0.9
		c0-0.1,0.3-0.1,0.3,0c0,0.2,0,1.4,0,1.5c0,0.2,0.1,0.3,0.2,0.4C74,60.6,73.8,60.8,73.5,60.5 M69.7,62.5c0.4-0.5,1.2-1,1.8-1.2
		c0.2,0.2,0.4,0.5,0.7,0.9c-0.3,0.2-0.5,0.5-0.7,0.7c-0.1-0.1-0.8-1.2-1.3-0.4c-0.3,0.4-0.5,1.5,0.3,2.2c0.4,0.3,0.9,0.4,1.5,0.3
		c-0.3,0.4-0.4,0.5-0.5,0.8c-0.9,0.2-1.2-0.1-1.6-0.5C68.9,64.5,69.2,63.2,69.7,62.5 M70.1,69.2c0.2-1.5,1.6-2.1,2.1-2.4
		c0.1,0.4,0.6,1.2,0.9,1.5c-0.5,0.4-1.6,1.3-2,1.6c0.2,0.4,1.1,0.7,1.4,0.4c0.2-0.2,0.5-0.1,0.2,0.1c-0.3,0.4-0.6,0.9-0.8,1.2
		C71.2,71.5,69.9,70.6,70.1,69.2 M73.4,68c0.4-0.3,0.6-0.6,0.9-0.8c0.2,0.4,0.3,0.7,0.6,0.9c0.3-0.2,0.8-0.5,1-0.8
		c0.2,0.1,0.6,0.3,0.6,1.1c0,0.7,0.1,1.9,0.1,2.2c0,0.1,0,0.1,0.3,0c0.2-0.1,0.3,0,0.1,0.2c-0.2,0.1-0.9,0.6-1.1,0.9
		c-0.3-0.5-0.3-0.8-0.2-1.3c0.1-0.4,0-1.5,0-1.7c0-0.2-0.4-0.3-0.5-0.5c-0.2,0.2-0.2,0.2-0.4,0.4c0,0.3,0,2.6,0,2.9
		c-0.5,0-0.5,0-0.7,0c0-0.4,0-2.2,0-2.5C74,68.5,73.6,68.2,73.4,68 M77.4,65.4c-0.2,0.2-0.7-0.1-0.9-0.4c-0.3-0.5-0.2-1.6-0.2-2.4
		c0,0-0.2-0.2-0.3-0.3c-0.2-0.1-0.3-0.1,0.1-0.3c0.4-0.2,1.1-1.2,1.2-1.5c0.1-0.2,0.2,0,0.1,0.2c-0.3,0.5-0.2,1.1-0.1,1.3
		c0,0.1,0.9,0,1,0c0.1,0,0.1,0.4,0,0.3c-0.1,0-1.2,0.1-1.2,0.1c-0.1,0,0.1,1.8,0.2,1.9c0,0,0.4,0.3,0.5,0.2c0.2-0.2,0.3,0,0.1,0.2
		C77.8,64.8,77.6,65.2,77.4,65.4 M77.8,68c0.3-0.2,0.9-1.3,1-1.5c0.1-0.2,0.2-0.2,0.2,0.1c0,0.4-0.2,1.2-0.1,1.4
		c0,0.1,0.6,0.1,0.7,0.1c0.1,0,0.1,0.3,0,0.3c-0.1,0-0.7,0.1-0.7,0.1c-0.1,0,0,1.3,0.1,1.4c0.2,0.2,0.4,0.4,0.7,0
		c0.2-0.2,0.3,0,0.1,0.2c-0.1,0.1-0.6,0.6-0.7,0.9c-0.1,0.3-0.7,0.1-0.9-0.2c-0.3-0.4-0.2-1.4-0.2-2.2C78.2,68.5,77.5,68.2,77.8,68
		 M81.9,66.3c-0.3,0.3-0.5,0.5-0.7,0.8c-0.2-0.1-0.5-0.4-0.8-0.6c0.4-0.2,0.6-0.4,0.8-0.7C81.3,66.1,81.6,66.3,81.9,66.3 M80.1,61.9
		c0.6,0.2,1.6,0.1,1.9,0.9c0.3,0.9-0.3,2-1,2.1c-0.6,0.1-1.2-0.2-1.5-0.1c-0.2,0-0.3,0.1-0.3,0.2c0,0.2-0.3,0.3-0.3,0
		c-0.1-0.2-0.1-1.3-0.1-1.5c0-0.3,0.3-0.3,0.3,0c0.1,0.3,0.1,0.5,0.4,0.8c0.2,0.2,1.4,0.5,1.9,0.2c0.4-0.3,0.3-0.9-0.1-1.2
		c-0.4-0.2-1.9-0.6-2.1-1c-0.4-0.7,0.3-1.4,0.7-1.6c0.5-0.3,1.2-0.2,1.4-0.2c0.2,0,0.5,0.1,0.5-0.2c0-0.2,0.2-0.2,0.2,0
		c0.1,0.7,0.1,0.3,0.1,1c0,0.3-0.1,0.3-0.3,0.1c-0.1-0.2-1-0.9-1.8-0.5C79.2,61.4,79.5,61.8,80.1,61.9 M82.4,73.4
		c3.3,0.2,6.1,1.7,6.1,1.7V53.8c0,0-4.9-3.4-12.8-0.4c-2.3,0.9-8,0.1-8,0.1v21.8C72.8,75.8,79.2,73.2,82.4,73.4 M90.2,80.4
		c0,0.3-0.4,0.7-0.4,0.7l1.3-0.7c-0.3-0.2-1-0.6-1.3-0.7C89.8,79.8,90.2,80,90.2,80.4 M92.1,80.4c-1.2,0.2-2.1,1.6-3.5,1
		c-0.2-0.1-0.6-0.2-0.5-0.5c0.2,0.1,0.6,0.2,0.9,0.3c0,0-0.7-0.6-0.1-1.4c-0.8,0.5-1.1,0.4-1.1,0.1c0-0.1,1.1-0.9,2.1-0.5
		C90.7,79.7,91.3,80.2,92.1,80.4L92.1,80.4z M88.8,77.9c-0.7,0.1-1.5,0.5-1.7,1.2c-0.4,0.4-0.4-0.7-1.2-0.2
		c-0.4,0.5,0.6,1.6,0.4,1.6c-0.9,0.3-0.8-1.4-1.3-1.4c-0.8,0.3-2.7,2-0.8,3.4c-0.1-0.9,1.7-1.9,2.3,0.1c1.8-0.1,2.4,0.9,2.6,1.5
		c2.6,0.5,1.9,2.2,1.8,2.2c-0.2-0.4-1.4-2.1-3.2-0.9c-0.4,0.3-1.2,0.5-1.5,0.2c0,0.6,0.8,1.1,1.3,1c1.6-0.4,2,1.1,0.8,1.5
		c0.3,0.4,0.8,0.4,1.3,0.1c0.7-0.4,0.8-0.8,1-1.1c0.4,2.1-2.2,2.3-3.1,2.5c0.1,0.5,0.4,0.6,1,0.7c-2.8,0.1-3.4,2.8-3.2,4.3
		c0.6,0,1.6-1.3,1.5-0.5c-2,2.1-2.7,5-1.6,6.8c0.5-0.2,0.7-0.8,0.8-1.2c0.1-0.1,1.1,0.4-0.5,2.4c-0.1,0.5-0.7,2.1,0.6,2.4
		c0.5-0.6,0.4-1.1,0.5-1.7c0.4-0.1,0.6,1,0.5,1.4c-1.7,0.7-1.5,5.8,0.5,8.5c-0.9-2-0.8-4.5,0-6.6c0.6-1.6,1.9-5.1,1.9-5.1
		c0.7,0.9,1.7,4.8,1.7,6.4c1-0.9,1.2-1.9,2.1-2.6c0.4,1.4,0.6,2.3,0.9,3.6c0.4-1.2,1.5-2.6-0.1-6.6c0.3-0.3,0.9,1.4,1.1,1.3
		c0.1-0.1,0.4-0.9-0.2-2.4c-1.1-1-1.3-2.5-1.2-2.6c0.1-0.1,0.6,1.6,1.2,1.6c0.1-1.3,0.4-2.6,0.3-3.6c0-0.3-0.4-1.6-1.7-2.7
		c-0.7-0.6-1-1.9-0.9-2.2c0.7,0.6,0.5,1.1,1.1,1.3c0.2-0.5,0.1-2.5-0.6-3.4c-0.4-0.7-0.2-0.6,0.3-0.2c0.6,0.7,0.3,0.7,0.9,1
		c1.2-2.8,0.1-3.3,0.2-3.5c0.1-0.2,0.9,1.3,1.6,0.7c-1.2-0.6-1.1-1.5-1.3-2.6c-0.1-0.8-0.6-1.1-0.4-1.3c1.2,0.9,1.5-0.1,1.5-0.3
		c-0.2,0.1-1.3,0.3-1.4-1.3c-0.1-0.6-1-0.9-1-0.9c0.6-0.1,2.5-0.2,2-2.1c-0.2,0.4-0.8,1.2-2,0.9c0,0,0.8-0.2,0.6-1
		C92.2,79.7,90.7,77.6,88.8,77.9 M105,58.3c0.3,0.3,1.1,0.6,1.6,0.8c0-0.4,0-0.7,0-0.9c0-0.2-0.8-0.7-1-0.7c-0.2,0-0.4,0.2-0.6,0.5
		C104.9,58.1,104.9,58.2,105,58.3 M105.8,60.5c0.3-0.1,0.5-0.2,0.7-0.2c0-0.1,0-0.2,0-0.4c0-0.1,0-0.4,0-0.7
		c-0.4-0.1-0.9-0.3-1.3-0.6c0.1,0,0.1,0.1,0.2,0.1C105,59.6,105.6,60.4,105.8,60.5 M105.9,65c0.2,0.5,1,1.1,1.2,1.2
		c0.3-0.4,0.5-1.2,0.4-1.8c-0.1-0.5-0.7-1-1.2-1.2C105.6,63.7,105.6,64.4,105.9,65 M95,69.6c-0.4,0.8-0.1,0.9,0.2,1.1
		c0.3-0.1,0.5-0.3,0.7-0.4c0-0.1,0-0.4,0-0.7C95.5,69.7,95.3,69.8,95,69.6 M95.9,69.4c0-0.3,0-0.7,0-0.8c0-0.2-0.5-0.6-0.6-0.6
		c-0.2,0-0.3,0.1-0.5,0.4c-0.1,0.2-0.1,0.8,0,0.8C95.2,69.5,95.5,69.4,95.9,69.4 M96.6,71.3c-0.3-0.2-0.5-0.3-0.6-0.6
		c-0.8,0.3-1,0.7-1.5,1c-0.3-0.2-0.5-0.7-0.5-1.1c0-0.4,0.4-1.1,0.7-1.3c0,0,0,0-0.1-0.1c-0.1-0.1-0.2-0.7-0.1-0.9
		c0.2-0.2,0.8-1.2,1.4-1.2c0.4,0,0.6,0.4,1,0.7c-0.1,0.1,0,1.7-0.1,1.9c0.3,0.4,0.5,0.4,0.7,0.3c0.2-0.1,0.3,0,0.1,0.1
		C97.4,70.4,96.8,71.2,96.6,71.3 M98.4,68.1c0.1,0-0.7-0.3-0.4-0.5c0.6-0.3,1.2-0.9,1.3-1.2c0.1-0.2,0.3-0.1,0.2,0.1
		c-0.1,0.2-0.2,0.8-0.1,1c0,0.1,0.5,0.1,0.7,0.1c0.1,0,0.1,0.4,0,0.4c-0.2,0-0.7,0-0.7,0c-0.1,0,0,2,0,2.2c0.1,0.2,0.5,0.3,0.7,0.1
		c0.2-0.2,0.4,0,0.1,0.2c-0.1,0.1-0.5,0.7-0.7,0.8c-0.3,0.1-0.7-0.1-0.9-0.4C98.2,70.5,98.4,69.1,98.4,68.1 M99.7,65.4
		c-0.3-0.2-0.8-0.6-1.1-1c-0.5,0.6-0.6,1.1-1.4,1.3c0.5-0.4,0.9-1.3,0.9-2.2c0-0.8-0.5-1.2-0.8-1.3c-0.3,0.2-0.6,0.4-0.8,0.4
		c-0.2,0.1-0.2-0.2-0.1-0.3c0.4-0.2,1.3-0.9,1.4-1c0.4,0.1,0.8,0.4,0.9,0.7c0.3-0.2,0.8-0.7,0.9-0.9c0.2,0.3,0.7,0.7,1.3,0.9
		c-0.5,0.9-1.7,0.4-1.8,0.1c-0.2,0.3-0.2,0.5,0,0.9c0.2,0.5,1.2,1,1.7,1.2C100.7,64.5,100,65.3,99.7,65.4 M100.5,68.6
		c0.3-0.4,0.7-0.6,0.9-0.8c0.4,0.3,0.5,0.4,0.7,0.7c0,0.5-0.1,1.5-0.1,1.9c0,0.4,1.4,0.6,1.5,0.1c0.1-0.5,0-1.2,0-1.5
		c0-0.2-0.6-0.3-0.9-0.3c0.4-0.4,0.7-0.7,0.9-0.9c0.3,0.3,0.7,0.6,0.9,0.9c0,0.5-0.1,1.8,0,2.1c0.1,0.3,0.1,0.4,0.3,0.5
		c-0.3,0.2-0.5,0.3-0.6,0.5c-0.3-0.1-0.7-0.5-0.7-0.8c-0.3,0.2-1.3,0.6-1.6,0.7c-0.3-0.4-0.6-0.4-0.6-0.9c0-0.4,0.1-1.6,0-1.9
		C101.1,68.7,100.8,68.6,100.5,68.6 M105,64.9c0-1.1,0.8-2.1,2-2.5c1,0.3,1.3,1.3,1.4,1.9c0,0.5-0.3,1.2-0.6,1.6
		c-0.4,0.2-0.8,0.6-1.1,1C105.5,66.9,105,65.6,105,64.9 M105.2,69.3c0.3-0.2,1-0.8,1.2-0.9c0.4,0.3,0.6,0.6,0.8,0.8
		c0.3-0.1,0.7-0.4,0.9-0.6c0.3,0.2,0.7,0.6,0.9,0.7c0.2-0.2,0.4,0,0.2,0.2c-0.2,0.2-0.6,0.6-0.8,0.7c-0.3-0.1-0.7-0.6-0.8-0.7
		c-0.1,0.1-0.2,0.1-0.3,0.2c0,0.3,0,2.5,0,2.8c-0.4,0-0.7,0-0.9,0c0-0.4,0-2.3,0-2.6C106.2,69.4,105.6,69.3,105.2,69.3 M109.7,65.3
		c-0.3,0-0.6-0.1-0.7-0.1c-0.2-0.1-0.1-0.3,0.1-0.3c0.2,0,0.5,0.1,0.7,0.1C109.8,65,109.9,65.3,109.7,65.3 M109.7,64.6
		c-0.3,0-0.6-0.1-0.7-0.1c-0.2-0.1-0.1-0.3,0.1-0.3c0.2,0,0.5,0.1,0.7,0.1C109.8,64.3,109.9,64.6,109.7,64.6 M107.9,60.3l-0.9,0.9
		c-0.3-0.2-0.4-0.4-0.5-0.7c-0.7,0.1-1.1,0.5-1.4,0.8c-0.3-0.2-0.7-0.9-0.7-1.4c0-0.5,0.3-1.1,0.6-1.4c0,0,0,0,0.1,0
		c-0.1-0.1-0.3-0.2-0.4-0.3c-0.1-0.1-0.1-0.3,0-0.5c0.2-0.2,0.7-0.9,1.2-1c0.3,0,0.8,0,1.4,0.6c-0.1,0.1-0.1,2-0.1,2.2
		C107.5,60,107.9,60.3,107.9,60.3 M102.2,63.7c-0.1,0.7,0.5,1.3,0.9,1.5c0.4,0.2,1,0.1,1.2,0.1c0.2,0,0.1-0.1,0.2-0.2
		c0.1-0.1,0.3,0,0.2,0.1c-0.1,0.1-1,1-1.3,1.2c-0.2,0.1-0.8,0-1.1-0.4c-0.6-0.7-1-1-0.8-2.2c0.1-0.9,1.6-1.6,1.9-1.8
		c0.1,0.1,0.8,0.8,1.1,1c-0.1,0.1-0.5,0.3-0.8,0.3c-0.4,0-0.6-0.3-0.8-0.6C102.6,63,102.3,63.2,102.2,63.7 M104,56.8
		c-0.2,0-1.8,0.2-1.8,0.2c-0.1,0,0.1,2,0.1,2.2c0.1,0.2,0.2,0.4,0.4,0.3c0.2-0.2,0.4,0.1,0.2,0.3c-0.1,0.1-0.5,0.8-0.6,0.9
		c-0.3,0.2-0.6-0.4-0.7-0.7c-0.2-0.5-0.3-1.9-0.3-2.8c0.1,0-0.8-0.3-0.4-0.5c0.7-0.3,1.4-1.3,1.5-1.5c0.1-0.2,0.3-0.1,0.2,0.1
		c-0.2,0.5-0.2,0.9-0.1,1.1c0,0.1,1.4,0,1.6,0C104.2,56.4,104.2,56.8,104,56.8 M100.3,59.3l-0.7,0.9H99c-0.3-0.3-0.5-0.6-0.6-0.8
		l0-2.1l-0.8-0.4c-0.1,0.2-0.4,0.2-0.3,0l1.1-0.9l0.2,0l0.7,0.7l0,2.2C99.6,59.1,99.8,59.2,100.3,59.3 M99.4,55L99,55.3h-0.3
		L98.4,55l0-0.6l0.5-0.4l0.5,0.5V55z M97.2,55c-0.4,0.1-0.6,0.5-0.7,0.9c-0.1,0.4-1.3,4.1-1.5,4.3c-0.3-1.1-1.6-3.9-2-4.5
		c-0.3-0.5-0.7-0.4-1-0.4c-0.3,0-0.2-0.3,0.1-0.3c0.4,0,2.4,0.2,2.9,0.3c0.2,0,0.2,0.2-0.1,0.3c-0.1,0-0.5,0.2-0.5,0.3
		c0,0.2,0.7,1.8,0.9,2.1c0.2-0.4,0.9-2.2,0.7-2.5c-0.2-0.4-0.2-0.4-0.5-0.5c-0.3,0-0.3-0.2,0.1-0.3c0.3-0.1,1.3-0.1,1.6-0.1
		C97.6,54.7,97.6,54.9,97.2,55 M92.7,61.6c0.6-0.3,2-0.6,2.5-0.4c0.2,0.1,0.5,0,0.5-0.1c0-0.2,0.2-0.1,0.2,0c0,0.1,0,1.7,0,1.8
		c0,0.1-0.2,0.1-0.2,0c0-0.2,0-0.3-0.2-0.6c-0.6-0.9-2.1-0.9-2.9,0.1c-0.3,0.3-0.4,0.9-0.1,1c0.3,0.1,1.4,0,1.8-0.1
		c0.4-0.1,1.3-0.2,1.4-0.3c0.1-0.1,0.2-0.1,0.2,0c0,0.2,0,0.8,0,1c0,0.2-0.1,0.1-0.2,0c-0.1-0.1-0.9-0.1-1.3-0.2
		c-0.6-0.1-1.5-0.2-1.8-0.1c-0.3,0.1-0.1,0.6,0.2,0.9c0.8,1,2.2,1.1,2.8,0.2c0.2-0.3,0.2-0.4,0.2-0.6c0-0.1,0.2-0.2,0.2,0
		c0,0.1,0,1.4,0,1.5c0,0.1-0.2,0.2-0.2,0c0-0.3-0.2-0.3-0.5-0.2c-0.8,0.2-1.9,0.3-2.6-0.1c-0.7-0.4-1.3-0.5-1.3-2.1
		C91.3,62.6,92.1,61.9,92.7,61.6 M91.6,66.3c0.2,0,0.8,0,1,0c0,0.5,0,3.7,0,4c0,0.3,0.3,0.4,0.6,0.3c0.1-0.1,0.3,0,0.1,0.2
		c-0.3,0.2-0.7,0.8-0.9,1c-0.4-0.2-0.8-0.6-0.7-0.9C91.7,70.4,91.6,66.7,91.6,66.3 M96.2,73.4c2.2,0,10.8,2.4,15,2.1V53.8
		c0,0-6.1,0.9-11.4-1.1c-4.3-1.6-10.3,1.2-10.3,1.2c0,0.7,0,21.3,0,21.3S91.7,73.4,96.2,73.4 M112,66.9V71c0,0,2.3,0,4.9-1.7
		c0.8-0.5,1.9-0.3,2.5,0.2h0c0,0-0.3-2.7-2.6-2.4C112.5,67.7,112,66.9,112,66.9 M119.3,60.9c0,0.3,0.1,0.5,0.1,0.6
		C119.4,61.3,119.3,61.1,119.3,60.9c0,0-0.1-2.4-2.7-2.4c-0.8,0-1.9,1-4.5-0.1v4.1c1.1,0.3,4-1.4,5.2-1.9
		C118.1,60.2,119.2,60.5,119.3,60.9 M116.4,104.2c-0.2-6.5-4.2-13.8-3.1-12.4c2.7,3.4,3.6,10.7,5.5,17c0,0,1.2,0.6,0.9-7.4
		c-0.1-1.6-0.7-3.8-1.5-5.3c-1.6-3-4.8-8-4.7-8c0.8-0.6,2.7,3.7,4.3,5.4c1.1,1.1,4,2.2,4.2,2c-2.4-4.6-8.1-8.9-7.5-9.4
		c4.2,4,5.6,4.1,5.7,3.9l-3.8-3.7c-1.1-1.4-2.5-2.5-2.3-2.5c1.7,0.4-0.9-1.4-2.9-2c-0.4-0.1-0.9-0.1-1-0.3c0-0.3,0.5-0.2,0.9-0.3
		c0.3-0.1,0.5-0.3,0.6-0.7c-0.8,0.2-1.5,0-2.2-0.3c-1.3-0.6-3.8-1.3-4.9-0.9c-0.6,0.3-0.8,0.2-1.5,0.8c-0.3-0.1-1.2-0.7-2.4,0.8
		c-0.4,0.4-0.8,1-0.8,1.4c-0.1,1,0,0,0.3,1c0.1,0.4-0.3,1.1-2.1,1.7c-0.7,0.2-0.5,0.9-0.5,0.9c0.3-0.2,0.9-0.5,1.7-0.2
		c1.6,0.8,1.9-0.4,2.9-1.3c0,0-0.3,1.1,0,1.1c1.3,0.3,0.8,1.2,0.7,1.3c-1.6,1.4-0.9,1.9-1.5,2.8c-0.5,0.8-1.4,1.1-2.6,1.1
		c-1.7-0.1,2.2-2.6-1.5-3.7c0.6,1,0.8,1.8-0.5,2.5c-0.8,0.5-0.4,2.9-2.5,1.8c0,0-0.2,1.8-0.4,1.9c2.9,2.5,1.3,3.9,1.4,7.5
		c0.9,2.3-0.1,3.4-0.3,3.5c0.1,1.5,0.3,2.4,1.3,3.6c0.7,0.9-0.1,2.3,0.7,3.3c0.7-2.3,1.4-1.4,1.6-4.6c0.3-0.5,1.4-1.5,2-1.6
		c0,2,0.7,3.7,0.6,4.6c0,0,1.6-0.3,2.2-0.1c0.4,0.1,0.7,0.7,0.7,1c-0.6,0.4-0.6,0.2-1.4,0.8c-1.5,1.1-2.2,3.3-2.2,3.3
		c0,0,3.5-2.8,3.7-3.3c0.2-0.4,0.4-1,0.6-1.6c0-0.1-1.8-1.1-2.3-2.1c-1.6-3,2.4,1.8,2.5,1.4c0.2-1,1-2,1-2c-0.3-0.3-0.9-0.5-1.8-2.2
		c-2.2-3.8,2.5,1.6,2.5,1.6c1.2-0.7,1.2,0.2,1.4,1.2c0,0.1,2.1,1.6,2.2,1.7c0.6-0.5,1-1.3,1.3-1.8c0-0.1-3.8-3.4-4.4-4.6
		c-5.2-9,4.2,4,4.7,3.6c0.2-0.7,0.3-1.7,0.3-3c0,0-1.8-1.3-2.9-3.2c-4.4-7.3,2.9,2.2,2.9,2.1c-0.1-1.6-1.4-8.3-0.5-6.3
		c0.5,1,1.9,5.4,1.6,9.8C113.6,105.2,115.7,104.4,116.4,104.2 M108.2,111.4c0,0-0.7-0.5-0.7-0.4c-0.1,0.3-0.3,0.7-0.5,1.1
		C106.8,112.4,107.3,112.2,108.2,111.4 M107.9,108.7c-0.1,0.6-0.1,1.1-0.3,1.7c0,0.1,0.7,0.3,1,0.6c0.4-0.4,0.8-0.6,1.3-1.2
		c-0.1-0.1-1.9-1.7-1.9-1.6C107.9,108.5,107.9,108.4,107.9,108.7 M113.5,112.4c0.8-0.7,1.3-1.8,2.3-2.2c-0.8-0.7-1.6,0.7-2,0.2
		c0.7-1.1,1.2-2,1.3-3.4c0-0.8,0.9-1.5,1.1-1.9c-0.9,0.1-3.2,1.5-3.6,2.3c-1.5,2-1.5,4-7.9,6.8c-0.3,0,1.2-1.1,1.6-2.4
		c0.2-0.6,1.1-3.4,0.5-4.7c-1.3,1.4-1.1,1.8-1.4,2.8c-1,2.6-1.5,2.9-3.9,4.5c-0.3,0.2-2.2,3.1-4.6,3.2c0.2-0.1,0.1-0.7,0.9-1.2
		c2.7-1.8,1.7-5.6,5.2-6.2c-1.7-0.6-2.9,1.1-3.3,0.9c1.4-2,0.2-3.6,0.4-5.2c-0.5,0.3-0.9,0.8-1,1.3c-0.3,2.9-1.6,3.3-1.7,4.6
		c0.3,2-1.4,3.6-2.5,5c-0.2-1.2,0.1-2.2,1.6-3.2c0.8-0.5-0.1-2.2-0.1-2.2c-0.3,1.8-1.3,2.3-2,2.4c-0.5,0.1,1.9-2.5,1.6-4.8
		c-0.1-1-0.4-0.6-0.6-1.7c-2.1,2.3-0.6,3.8-2.7,6.5c-1,1.3-1.4,3.5-1.5,3.6c0-3.4,0.1-2.4,1.6-5.1c1.2-2.2-0.1-4.3-0.2-5.7
		c-2.7,1.8-2.5,5.4-2.5,4.6c-0.1-0.8-0.4-2.1,0-3.3c0.6-2-0.7-5.1-0.7-5.1c-3.8,5.9-0.6,12.8-0.8,12.7c-1.6-2.6-2.8-2.7-3.2-4.6
		c-0.2-1.1-2.1-6.9-5.7-7c1.8,1.5,1.4,1.8,1.5,4.3c-1.1,6.3,7.7,7,7.1,10.3c-1.2-1.9-3.1-2.8-5.9-4.3c-1.2-1-2.6-1.4-2.7-2.9
		c0.1-1.1,0.2-0.9,0-2.3c-0.1-1-1.2-0.4-1.9-2.6c-1.6,1.4-1,3.1-0.9,4c0,0.3,0.2,1.2,0,1.8c-0.6-0.4-1-1.2-1.6-2
		c-1.1-1.5-1.1-3.3-1.7-4.5c-0.3-0.6-0.6-1.4-0.9-1.4l0,0c-0.3,2.3-0.1,4.3,0.9,6c0,0-0.3,0.5-0.5,0.6c-1-0.3-2.4-1.1-3-2.7
		c-1.2,1-0.4,2.4-0.4,2.4c-2.8-1.4,0-6.9-3.9-6.8c1,1.1,0.4,2.4,0.3,3.7c0,2.1,2.6,3.7,2.6,3.7c-2.9-1-3.5,0.4-3.5,0.4
		c0,0,4.3,1.9,11.1,2.6c0.9,0.1,2.1,1.1,1.9,1.1c-0.9-0.1-2.6-1.2-5.1,1c1.5,0,2.5,2.4,4.9,1.1c6.2-1.7,8.4,1.3,9.4,2.1
		c-0.2,0.4-4.7-2.8-8.3-0.7c-1.9,1.1-5,0.1-7.4-1.7c1,2.5,5.1,5.3,6.5,5.3c1.7,0,3.8-2.2,6.2-2.1c3.9,0.2,4.4,3.7,4,3.4
		c0,0-3.1-5.1-7,0.3c1.8-0.8,4.3-0.6,6.4,0.4c0.3,0.1-0.5,1-1.1,1.7c-0.4,0.4-2,2.9-3.8,0.5c-0.3-0.4-1.1-2.6-6.6-2.1
		c2.1,0.9,4.4,3.4,5.5,4.5c2.9,2.9,7.3-3.5,7.5-2.8c0,1.4,0.7,2.1,1.1,2.9c1,1.9-1.2,1.6-2.4,1.1c0,0,2.3,3.6,4.2,1.6
		c2.1-2.2-2.8-3.9-1.2-5.6c0.9-1,4,2.2,5.4,2.2c3.8,0.4,3.6-3.2,5.6-3.1c-1.9-1.9-3.9-0.9-4.3-0.4c-1.3,1.5-2.7,0.5-3.7-0.3
		c-0.6-0.7-1.5-0.8-2.3-0.6c-0.4,0,0.8-1.4,2.3-1.1c3.5,0.7,6.9-0.6,7.8-1c1.4-0.8,2.2-2.1,3.7-3.6c-0.5,0.1-3.4,1.7-4.3,2.2
		c-2.8,1.4-4.5-0.4-4.8-0.4c-0.5,0-0.4-0.4,0.4-0.7c2.8-0.6,4.8-3.1,7.5-4.1C107.2,114,111,115,113.5,112.4 M112.4,117.3
		c1.1-1.6,1.8-3.4,2.2-5.3c-0.7,0.9-1.6,1.6-2.6,2C111.3,116.2,111.6,118.5,112.4,117.3 M122.8,99.4C119.9,129.8,94.5,135,89,136
		c-0.3,0.1-30.7-3.8-33.7-36.6c0,0,0-48.4,0-48.4s29-3.7,67.4,0L122.8,99.4z M124.5,99.7l0-50.4c-40.5-3.9-71,0-71,0s0,50.4,0,50.4
		c3.2,34.1,35.2,38.2,35.5,38.1C94.7,136.8,121.5,131.4,124.5,99.7"></path>
</g>
</svg>